<svg width="43" height="53" viewBox="0 0 43 53" fill="none" xmlns="http://www.w3.org/2000/svg">
<path d="M41.7618 14.1755L27.3564 0.594247C26.953 0.21609 26.4222 0 25.8702 0H2.1762C0.976636 0 0 0.983208 0 2.20411V50.7379C0 51.9588 0.976636 52.942 2.1762 52.942H40.2756C41.4752 52.942 42.4518 51.9588 42.4518 50.7379V15.7853C42.4624 15.1695 42.2076 14.5861 41.7618 14.1755ZM28.0464 7.27142L35.5835 14.37H28.0464V7.27142ZM4.36301 48.5337V4.40823H23.694V16.5849C23.694 17.8058 24.6707 18.789 25.8702 18.789H38.0994V48.5229H4.36301V48.5337Z" fill="url(#paint0_linear)"/>
<path d="M29.3106 25.6387H13.143C11.9434 25.6387 10.9668 26.6219 10.9668 27.8428C10.9668 29.0637 11.9434 30.0469 13.143 30.0469H29.3106C30.5101 30.0469 31.4868 29.0637 31.4868 27.8428C31.4974 26.6327 30.5207 25.6387 29.3106 25.6387Z" fill="url(#paint1_linear)"/>
<path d="M29.3106 37.4043H13.143C11.9434 37.4043 10.9668 38.3875 10.9668 39.6084C10.9668 40.8293 11.9434 41.8125 13.143 41.8125H29.3106C30.5101 41.8125 31.4868 40.8293 31.4868 39.6084C31.4974 38.3983 30.5207 37.4043 29.3106 37.4043Z" fill="url(#paint2_linear)"/>
<defs>
<linearGradient id="paint0_linear" x1="0" y1="26.471" x2="42.4521" y2="26.471" gradientUnits="userSpaceOnUse">
<stop stop-color="#FFC9B3"/>
<stop offset="1" stop-color="#F67D75"/>
</linearGradient>
<linearGradient id="paint1_linear" x1="10.9668" y1="27.8428" x2="31.4868" y2="27.8428" gradientUnits="userSpaceOnUse">
<stop stop-color="#FFC9B3"/>
<stop offset="1" stop-color="#F67D75"/>
</linearGradient>
<linearGradient id="paint2_linear" x1="10.9668" y1="39.6084" x2="31.4868" y2="39.6084" gradientUnits="userSpaceOnUse">
<stop stop-color="#FFC9B3"/>
<stop offset="1" stop-color="#F67D75"/>
</linearGradient>
</defs>
</svg>
