<svg width="169" height="32" viewBox="0 0 169 32" fill="none" xmlns="http://www.w3.org/2000/svg">
<path d="M28.6642 15.753C28.6642 13.3087 27.9618 10.9206 26.6132 8.86967L31.5861 3.89682L27.8494 0.160156L22.8766 5.13301C18.6904 2.40778 13.268 2.40778 9.08182 5.13301L4.13706 0.160156L0.400391 3.89682L5.37325 8.86967C2.64801 13.0559 2.64801 18.4782 5.37325 22.6644L0.400391 27.6373L4.13706 31.3739L9.10991 26.4011C13.2961 29.1263 18.7185 29.1263 22.9047 26.4011L27.8775 31.3739L31.6142 27.6373L26.6413 22.6644C27.9618 20.6135 28.6642 18.2254 28.6642 15.753ZM8.6042 15.753C8.6042 12.7468 10.4304 10.0216 13.2399 8.89777C16.0494 7.77396 19.2523 8.44825 21.3313 10.6116C23.4104 12.7749 24.0004 16.0059 22.7642 18.7592L17.8756 13.8706L14.139 17.6073L19.0275 22.4958C16.7518 23.5354 14.0828 23.3106 11.9756 21.962C9.86848 20.6135 8.6042 18.2816 8.6042 15.753Z" fill="white"/>
<path d="M55.5234 15.9216C55.5234 18.9839 53.9782 21.7373 51.2249 23.0015L52.6858 24.912L49.6796 26.4292L47.6568 23.7601H47.6006C42.6277 23.7601 39.6777 20.1358 39.6777 15.9216C39.6777 11.7073 42.6277 8.08301 47.6006 8.08301C52.5734 8.08301 55.5234 11.7073 55.5234 15.9216ZM47.6006 20.6696C50.4101 20.6696 51.9553 18.4782 51.9553 15.8935C51.9553 13.3087 50.4382 11.1173 47.6006 11.1173C44.763 11.1173 43.2458 13.3087 43.2458 15.8935C43.2458 18.5063 44.763 20.6696 47.6006 20.6696ZM61.0582 23.5915C58.6139 23.5915 57.2934 22.0744 57.2934 19.4054V13.0839H60.5806V18.703C60.5806 20.1077 61.0582 20.8663 62.2663 20.8663C63.643 20.8663 64.233 19.9673 64.233 18.5906V13.112H67.4639V23.3106H64.233V21.8497C63.6711 22.9454 62.6034 23.5915 61.0582 23.5915ZM74.2349 23.5915C71.1725 23.5915 69.4306 21.2877 69.4306 18.2254C69.4306 15.163 71.313 12.8592 74.2911 12.8592C75.7801 12.8592 76.932 13.5616 77.4939 14.6011V13.1401H80.7249V23.3387H77.4939V21.9058C76.9039 22.8892 75.6396 23.5915 74.2349 23.5915ZM75.162 20.9225C76.7634 20.9225 77.6063 19.7144 77.6063 18.2254C77.6063 16.7644 76.7915 15.5563 75.162 15.5563C73.673 15.5563 72.7177 16.6801 72.7177 18.2254C72.7177 19.7706 73.6449 20.9225 75.162 20.9225ZM83.3658 13.112H86.5968V14.6011C87.1868 13.4492 88.3668 12.8311 89.912 12.8311C92.3844 12.8311 93.6487 14.2358 93.6487 16.9892V23.3106H90.3896V18.0568C90.3896 16.343 89.912 15.5563 88.5915 15.5563C87.2991 15.5563 86.6249 16.3992 86.6249 17.9725V23.3106H83.3939V13.112H83.3658ZM101.572 20.8101C101.965 20.8101 102.386 20.782 102.695 20.7539V23.3387C102.218 23.423 101.459 23.5073 100.532 23.5073C99.0149 23.5073 96.9077 23.1701 96.9077 19.7706V15.6968H95.3063V13.1401H96.9077V10.1059H100.139V13.1401H102.442V15.6968H100.139V19.0963C100.167 20.5573 100.785 20.8101 101.572 20.8101ZM108.652 23.6477C105.673 23.6477 103.819 22.1868 103.819 20.2482H107.05C107.05 20.9506 107.724 21.4563 108.736 21.4563C109.438 21.4563 109.916 21.0911 109.916 20.5011C109.916 20.1077 109.719 19.7706 109.185 19.6301L106.685 18.9839C104.999 18.5625 104.128 17.4949 104.128 16.0339C104.128 14.1235 105.814 12.803 108.483 12.803C111.461 12.803 113.034 14.0392 113.034 15.9777H109.832C109.832 15.2473 109.298 14.8539 108.427 14.8539C107.724 14.8539 107.275 15.1911 107.275 15.6968C107.275 16.1744 107.584 16.4554 108.146 16.5958L110.562 17.242C112.135 17.6635 113.147 18.6187 113.147 20.0796C113.119 22.2149 111.461 23.6477 108.652 23.6477ZM120.48 20.8101C120.873 20.8101 121.294 20.782 121.603 20.7539V23.3387C121.126 23.423 120.367 23.5073 119.44 23.5073C117.923 23.5073 115.816 23.1701 115.816 19.7706V15.6968H114.214V13.1401H115.816V10.1059H119.047V13.1401H121.351V15.6968H119.047V19.0963C119.075 20.5573 119.693 20.8101 120.48 20.8101ZM127.532 23.5915C124.469 23.5915 122.727 21.2877 122.727 18.2254C122.727 15.163 124.61 12.8592 127.588 12.8592C129.077 12.8592 130.229 13.5616 130.791 14.6011V13.1401H134.022V23.3387H130.791V21.9058C130.229 22.8892 128.964 23.5915 127.532 23.5915ZM128.487 20.9225C130.088 20.9225 130.931 19.7144 130.931 18.2254C130.931 16.7644 130.116 15.5563 128.487 15.5563C126.998 15.5563 126.042 16.6801 126.042 18.2254C126.042 19.7706 126.97 20.9225 128.487 20.9225ZM136.691 13.112H139.922V14.6011C140.371 13.5897 141.439 12.8311 142.843 12.8311C144.67 12.8311 145.597 13.6458 146.046 14.7135C146.608 13.6178 147.816 12.8311 149.305 12.8311C152.227 12.8311 152.93 14.8539 152.93 16.9892V23.3106H149.671V17.5792C149.671 16.1744 149.137 15.5563 148.153 15.5563C147.142 15.5563 146.44 16.1182 146.44 18.0568V23.3106H143.181V17.5511C143.181 16.1463 142.675 15.5563 141.663 15.5563C140.624 15.5563 139.922 16.1182 139.922 18.0568V23.3106H136.691V13.112ZM155.486 13.112H158.745V14.573C159.279 13.5897 160.543 12.8311 162.061 12.8311C164.842 12.8311 166.752 14.9944 166.752 18.1973C166.752 21.4001 164.786 23.5634 161.976 23.5634C160.487 23.5634 159.251 22.8049 158.745 21.8497V27.5249H155.514L155.486 13.112ZM161.049 20.9225C162.454 20.9225 163.465 19.8268 163.465 18.2254C163.465 16.652 162.482 15.5563 161.049 15.5563C159.588 15.5563 158.605 16.6239 158.605 18.2254C158.577 19.8268 159.588 20.9225 161.049 20.9225ZM167.623 15.2473C167.371 15.2473 167.118 15.1911 166.893 15.0506C166.696 14.9382 166.528 14.7697 166.415 14.5449C166.303 14.3201 166.247 14.0954 166.247 13.8425C166.247 13.5897 166.303 13.3649 166.415 13.1401C166.528 12.9154 166.696 12.7749 166.893 12.6344C167.118 12.522 167.371 12.4378 167.623 12.4378C167.904 12.4378 168.129 12.4939 168.354 12.6344C168.551 12.7468 168.719 12.9154 168.831 13.1401C168.944 13.3368 169 13.5897 169 13.8425C169 14.0954 168.944 14.3482 168.831 14.5449C168.719 14.7416 168.551 14.9382 168.354 15.0506C168.129 15.1911 167.876 15.2473 167.623 15.2473ZM167.623 15.0225C167.848 15.0225 168.045 14.9663 168.213 14.8539C168.382 14.7416 168.522 14.6011 168.607 14.4325C168.691 14.2639 168.747 14.0673 168.747 13.8425C168.747 13.6459 168.691 13.4492 168.607 13.2525C168.438 12.8873 168.045 12.6625 167.651 12.6906C167.455 12.6906 167.258 12.7468 167.061 12.8592C166.893 12.9716 166.752 13.112 166.668 13.2806C166.584 13.4492 166.528 13.6458 166.528 13.8706C166.528 14.0954 166.584 14.292 166.668 14.4606C166.752 14.6292 166.893 14.7697 167.061 14.882C167.202 14.9663 167.399 15.0225 167.623 15.0225ZM167.118 13.112H167.68C167.82 13.112 167.932 13.1682 168.045 13.2525C168.129 13.3368 168.185 13.4773 168.185 13.6178C168.185 13.7301 168.157 13.8144 168.101 13.8987C168.045 13.983 167.961 14.0392 167.848 14.0673L168.157 14.573H167.904L167.623 14.0954H167.342V14.573H167.118V13.112ZM167.68 13.8987C167.764 13.8987 167.848 13.8706 167.876 13.8144C167.932 13.7582 167.961 13.6739 167.961 13.6178C167.961 13.5335 167.932 13.4492 167.876 13.393C167.82 13.3368 167.736 13.3087 167.68 13.3087H167.371V13.8987H167.68Z" fill="white"/>
</svg>
