<svg width="37" height="53" viewBox="0 0 37 53" fill="none" xmlns="http://www.w3.org/2000/svg">
<path fill-rule="evenodd" clip-rule="evenodd" d="M15.7686 3.50413H20.4116C27.185 3.50413 32.676 8.99512 32.676 15.7686V37.2314C32.676 44.0049 27.185 49.4959 20.4116 49.4959H15.7686C8.99512 49.4959 3.50413 44.0049 3.50413 37.2314V15.7686C3.50413 8.99512 8.99512 3.50413 15.7686 3.50413ZM0 15.7686C0 7.05984 7.05984 0 15.7686 0H20.4116C29.1203 0 36.1802 7.05984 36.1802 15.7686V37.2314C36.1802 45.9402 29.1203 53 20.4116 53H15.7686C7.05984 53 0 45.9402 0 37.2314V15.7686ZM10.2495 33.486L18.1136 41.7994L25.9391 33.4826L23.3869 31.0814L18.1068 36.6931L12.7951 31.0779L10.2495 33.486ZM16.3407 12.9653C16.3407 11.9975 17.125 11.2132 18.0927 11.2132C19.0605 11.2132 19.8448 11.9975 19.8448 12.9653C19.8448 13.933 19.0605 14.7173 18.0927 14.7173C17.125 14.7173 16.3407 13.933 16.3407 12.9653ZM16.3407 19.9735C16.3407 19.0058 17.125 18.2215 18.0927 18.2215C19.0605 18.2215 19.8448 19.0058 19.8448 19.9735C19.8448 20.9413 19.0605 21.7256 18.0927 21.7256C17.125 21.7256 16.3407 20.9413 16.3407 19.9735ZM16.3407 26.9818C16.3407 26.014 17.125 25.2297 18.0927 25.2297C19.0605 25.2297 19.8448 26.014 19.8448 26.9818C19.8448 27.9495 19.0605 28.7339 18.0927 28.7339C17.125 28.7339 16.3407 27.9495 16.3407 26.9818Z" fill="url(#paint0_linear)"/>
<defs>
<linearGradient id="paint0_linear" x1="18.0463" y1="-15" x2="18.0463" y2="38" gradientUnits="userSpaceOnUse">
<stop stop-color="#FFC9B3"/>
<stop offset="1" stop-color="#F67D75"/>
</linearGradient>
</defs>
</svg>
