<svg width="572" height="573" viewBox="0 0 572 573" fill="none" xmlns="http://www.w3.org/2000/svg">
<path d="M286 0.999987C443.399 0.999981 571 128.821 571 286.5C571 444.179 443.4 572 286 572C128.6 572 0.999994 444.179 0.999987 286.5C0.999981 128.821 128.6 0.999994 286 0.999987Z" stroke="url(#paint1_linear)" stroke-opacity="0.2" stroke-width="2"/>
<path opacity="0.1" d="M286 28C428.489 28 544 143.734 544 286.5C544 429.266 428.489 545 286 545C143.511 545 28 429.266 28 286.5C28 143.734 143.511 28 286 28ZM286 532.075C421.365 532.075 531.1 422.127 531.1 286.5C531.1 150.873 421.365 40.925 286 40.925C150.635 40.925 40.9 150.873 40.9 286.5C40.9 422.127 150.635 532.075 286 532.075Z" fill="white"/>
<path d="M286 28C217.574 28 151.951 55.2347 103.566 103.713C55.1821 152.191 28 217.942 28 286.5C28 355.058 55.182 420.809 103.566 469.287C151.951 517.765 217.574 545 286 545L286 532.075C220.995 532.075 158.653 506.202 112.688 460.148C66.723 414.093 40.9 351.631 40.9 286.5C40.9 221.369 66.723 158.906 112.688 112.852C158.653 66.798 220.995 40.925 286 40.925L286 28Z" fill="url(#paint2_linear)"/>
<defs>
<linearGradient id="paint0_linear" x1="572.5" y1="286.5" x2="-0.499997" y2="286.5" gradientUnits="userSpaceOnUse">
<stop stop-color="#07060A"/>
<stop offset="1" stop-color="#4D4A57" stop-opacity="0"/>
</linearGradient>
<linearGradient id="paint1_linear" x1="286" y1="-1.5232e-05" x2="286" y2="573" gradientUnits="userSpaceOnUse">
<stop stop-color="white"/>
<stop offset="1" stop-color="white" stop-opacity="0"/>
</linearGradient>
<linearGradient id="paint2_linear" x1="286" y1="545" x2="286" y2="28" gradientUnits="userSpaceOnUse">
<stop stop-color="#FFC9B3"/>
<stop offset="1" stop-color="#F67D75"/>
</linearGradient>
</defs>
</svg>
