<svg width="572" height="573" viewBox="0 0 572 573" fill="none" xmlns="http://www.w3.org/2000/svg">
<path d="M286 0.999987C443.399 0.999981 571 128.821 571 286.5C571 444.179 443.4 572 286 572C128.6 572 0.999994 444.179 0.999987 286.5C0.999981 128.821 128.6 0.999994 286 0.999987Z" stroke="url(#paint1_linear)" stroke-opacity="0.2" stroke-width="2"/>
<path opacity="0.1" d="M286 28C428.489 28 544 143.734 544 286.5C544 429.266 428.489 545 286 545C143.511 545 28 429.266 28 286.5C28 143.734 143.511 28 286 28ZM286 532.075C421.365 532.075 531.1 422.127 531.1 286.5C531.1 150.873 421.365 40.925 286 40.925C150.635 40.925 40.9 150.873 40.9 286.5C40.9 422.127 150.635 532.075 286 532.075Z" fill="white"/>
<path d="M286 28C234.972 28 185.091 43.1608 142.663 71.5651C100.235 99.9694 67.1665 140.342 47.6391 187.576C28.1117 234.811 23.0024 286.787 32.9574 336.931C42.9124 387.075 67.4845 433.135 103.566 469.287C139.648 505.439 185.62 530.059 235.667 540.033C285.714 550.007 337.589 544.888 384.732 525.323C431.876 505.758 472.17 472.625 500.519 430.115C528.869 387.605 544 337.626 544 286.5L531.1 286.5C531.1 335.07 516.725 382.55 489.793 422.934C462.861 463.319 424.582 494.795 379.796 513.382C335.01 531.969 285.728 536.832 238.183 527.356C190.639 517.881 146.966 494.492 112.688 460.148C78.4103 425.803 55.0668 382.046 45.6095 334.409C36.1523 286.772 41.0061 237.395 59.5571 192.523C78.1082 147.65 109.523 109.296 149.83 82.3119C190.136 55.3277 237.524 40.925 286 40.925L286 28Z" fill="url(#paint2_linear)"/>
<defs>
<linearGradient id="paint0_linear" x1="572.5" y1="286.5" x2="-0.499997" y2="286.5" gradientUnits="userSpaceOnUse">
<stop stop-color="#07060A"/>
<stop offset="1" stop-color="#4D4A57" stop-opacity="0"/>
</linearGradient>
<linearGradient id="paint1_linear" x1="286" y1="-1.5232e-05" x2="286" y2="573" gradientUnits="userSpaceOnUse">
<stop stop-color="white"/>
<stop offset="1" stop-color="white" stop-opacity="0"/>
</linearGradient>
<linearGradient id="paint2_linear" x1="286" y1="545" x2="286" y2="28" gradientUnits="userSpaceOnUse">
<stop stop-color="#FFC9B3"/>
<stop offset="1" stop-color="#F67D75"/>
</linearGradient>
</defs>
</svg>
