<svg width="29" height="29" viewBox="0 0 29 29" fill="none" xmlns="http://www.w3.org/2000/svg">
<circle cx="14.5" cy="14.5" r="14.5" fill="#F5AC37"/>
<path d="M14.7354 15.5617H20.4351C20.5566 15.5617 20.614 15.5617 20.6228 15.4024C20.6693 14.8225 20.6693 14.2393 20.6228 13.6588C20.6228 13.5461 20.5667 13.4995 20.4446 13.4995H9.10108C8.96068 13.4995 8.92288 13.5461 8.92288 13.6777V15.3463C8.92288 15.5617 8.92288 15.5617 9.14766 15.5617H14.7354ZM19.9862 11.5494C20.0024 11.5069 20.0024 11.4603 19.9862 11.4185C19.8911 11.2112 19.7783 11.0135 19.6474 10.8278C19.4503 10.5106 19.2181 10.2183 18.9535 9.95572C18.8286 9.79709 18.6842 9.65467 18.5222 9.53384C17.7108 8.84331 16.7462 8.3546 15.7094 8.1089C15.1863 7.99145 14.6517 7.93542 14.1157 7.94015H9.08151C8.9411 7.94015 8.9222 7.99617 8.9222 8.11835V11.4461C8.9222 11.5865 8.9222 11.6243 9.10041 11.6243H19.9187C19.9187 11.6243 20.0126 11.6054 20.0315 11.5494H19.9856H19.9862ZM19.9862 17.5117C19.8269 17.4942 19.6663 17.4942 19.507 17.5117H9.11053C8.97013 17.5117 8.92288 17.5117 8.92288 17.6994V20.9529C8.92288 21.1028 8.92288 21.1406 9.11053 21.1406H13.9105C14.14 21.1581 14.3695 21.1419 14.5943 21.094C15.2909 21.0441 15.976 20.8929 16.6294 20.6438C16.867 20.5614 17.0965 20.4541 17.3132 20.3252H17.3787C18.5039 19.7399 19.4179 18.8206 19.9943 17.692C19.9943 17.692 20.0598 17.5502 19.9862 17.5131V17.5117ZM7.03894 22.8274V22.7714V20.5871V19.8466V17.6434C7.03894 17.5212 7.03894 17.503 6.88908 17.503H4.85461C4.74189 17.503 4.69531 17.503 4.69531 17.3531V15.5718H6.87018C6.99169 15.5718 7.03894 15.5718 7.03894 15.4125V13.65C7.03894 13.5373 7.03894 13.5096 6.88908 13.5096H4.85461C4.74189 13.5096 4.69531 13.5096 4.69531 13.3598V11.7101C4.69531 11.6068 4.69531 11.5791 4.84516 11.5791H6.86073C7.00114 11.5791 7.03894 11.5791 7.03894 11.4009V6.34781C7.03894 6.19796 7.03894 6.16016 7.22659 6.16016H14.2575C14.7678 6.18041 15.2747 6.23643 15.7762 6.32891C16.8097 6.51993 17.8026 6.88916 18.7105 7.41634C19.3126 7.77072 19.8668 8.19868 20.3602 8.69143C20.7314 9.07686 21.0663 9.49402 21.3633 9.93817C21.6582 10.3884 21.9033 10.8697 22.0956 11.3726C22.1193 11.5035 22.2448 11.5919 22.3758 11.5697H24.0538C24.2692 11.5697 24.2692 11.5697 24.2786 11.7762V13.3139C24.2786 13.4637 24.2226 13.5015 24.0721 13.5015H22.7781C22.6471 13.5015 22.6093 13.5015 22.6188 13.6703C22.6701 14.2413 22.6701 14.8144 22.6188 15.3855C22.6188 15.5448 22.6188 15.5637 22.7976 15.5637H24.2779C24.3434 15.6481 24.2779 15.7324 24.2779 15.8175C24.2874 15.9262 24.2874 16.0362 24.2779 16.1449V17.2795C24.2779 17.4388 24.2314 17.4861 24.0903 17.4861H22.3184C22.1949 17.4625 22.0747 17.5414 22.0464 17.6643C21.6245 18.7612 20.9495 19.7447 20.0774 20.5331C19.7588 20.82 19.424 21.09 19.0743 21.339C18.699 21.555 18.3338 21.7798 17.9491 21.958C17.241 22.2766 16.4985 22.5115 15.7364 22.6607C15.0128 22.7903 14.2791 22.849 13.5426 22.8389H7.03624V22.8294L7.03894 22.8274Z" fill="#FEFEFD"/>
</svg>
