<svg width="22" height="16" viewBox="0 0 22 16" fill="none" xmlns="http://www.w3.org/2000/svg">
<path d="M10.9964 0C6.66849 0 3.14718 3.59265 3.14062 7.99332C3.14062 12.394 6.66194 15.9933 10.9833 16C15.3111 16.0067 18.839 12.4274 18.8521 8.02003C18.8652 3.60601 15.3308 0 10.9964 0ZM10.9898 14.3973C7.53407 14.3907 4.7144 11.5192 4.7144 8C4.7144 4.46745 7.54063 1.59599 11.0095 1.59599C14.4652 1.60267 17.2849 4.46745 17.2849 7.99332C17.2849 11.5259 14.4587 14.404 10.9898 14.3973Z" fill="#F67D75"/>
<path d="M21.2052 3.83305C20.6806 2.50417 19.9331 1.3222 18.9626 0.287138C18.6282 -0.0734635 18.1561 -0.100175 17.8282 0.213682C17.5003 0.527538 17.4938 1.00166 17.8151 1.37562C17.8938 1.46911 17.979 1.55592 18.0642 1.65609C19.9724 3.91318 20.7265 6.5242 20.3134 9.46911C20.038 11.4324 19.1856 13.1352 17.8544 14.591C17.4938 14.985 17.4938 15.4658 17.8347 15.7863C18.1757 16.1068 18.6479 16.0668 19.0085 15.6728C20.9823 13.5092 21.9659 10.9449 22.0052 8.39398C21.9987 6.57762 21.7364 5.16861 21.2052 3.83305Z" fill="#F67D75"/>
<path d="M3.94098 14.3506C1.94754 11.9867 1.21311 9.25544 1.74426 6.19701C2.06557 4.3673 2.89836 2.77798 4.14426 1.42239C4.50492 1.0284 4.51148 0.547595 4.17049 0.227061C3.82951 -0.106829 3.35082 -0.0600844 2.98361 0.347261C1.02295 2.49751 0.0393443 5.05511 0 7.57264C0 9.41571 0.262295 10.818 0.786885 12.1603C1.31148 13.4958 2.07213 14.6845 3.04262 15.7262C3.36393 16.0735 3.83607 16.0935 4.16393 15.7863C4.48525 15.4858 4.50492 14.9983 4.19672 14.6444C4.11803 14.5443 4.02623 14.4508 3.94098 14.3506Z" fill="#F67D75"/>
<path d="M10.2178 8.71451C10.2178 9.24205 10.5456 9.60265 11.0112 9.60265C11.4637 9.59597 11.7915 9.24205 11.7915 8.72786C11.7915 7.17861 11.7915 5.62936 11.7915 4.08011C11.7915 3.56592 11.4637 3.212 11.0112 3.20532C10.5456 3.20532 10.2243 3.56592 10.2178 4.09347C10.2178 4.86142 10.2178 5.62936 10.2178 6.39063C10.2178 7.16526 10.2112 7.93988 10.2178 8.71451Z" fill="#F67D75"/>
<path d="M11.0046 10.798C10.3554 10.798 9.81772 11.3456 9.82428 12.0067C9.83084 12.6611 10.3554 13.1953 10.998 13.1953C11.6472 13.1953 12.1849 12.6477 12.1784 11.9866C12.1718 11.3389 11.6472 10.8047 11.0046 10.798Z" fill="#F67D75"/>
</svg>
