<svg width="72" height="72" viewBox="0 0 72 72" fill="none" xmlns="http://www.w3.org/2000/svg">
<path d="M31.9219 8.4375C14.4591 8.4375 0 22.5648 0 40.0781C0 57.5354 14.3976 72 31.9219 72C49.4401 72 63.5625 57.5354 63.5625 40.0781V37.9688H34.0312V8.4375H31.9219ZM59.2652 42.1875C58.1951 56.4813 46.3403 67.7812 31.9219 67.7812C16.9052 67.7812 4.21875 55.0948 4.21875 40.0781C4.21875 25.6597 15.5187 13.8049 29.8125 12.7348V42.1875H59.2652Z" fill="url(#paint0_linear)"/>
<path d="M40.3594 0H38.25V33.75H72V31.6406C72 14.1537 57.8485 0 40.3594 0ZM42.4688 19.8583L54.2944 8.0321C55.6754 8.85059 56.9789 9.78662 58.1907 10.8259L42.4688 26.5485V19.8583ZM61.1741 13.8093C62.2134 15.0211 63.1494 16.3246 63.9679 17.7056L52.1417 29.5312H45.4515L61.1741 13.8093ZM50.2839 6.07709L42.4688 13.8922V4.29895C45.2049 4.50824 47.8295 5.12073 50.2839 6.07709ZM58.1078 29.5312L65.9229 21.7161C66.8793 24.1705 67.4918 26.7957 67.701 29.5312H58.1078Z" fill="url(#paint1_linear)"/>
<defs>
<linearGradient id="paint0_linear" x1="0" y1="36" x2="72" y2="36" gradientUnits="userSpaceOnUse">
<stop stop-color="#FFC9B3"/>
<stop offset="1" stop-color="#F67D75"/>
</linearGradient>
<linearGradient id="paint1_linear" x1="0" y1="36" x2="72" y2="36" gradientUnits="userSpaceOnUse">
<stop stop-color="#FFC9B3"/>
<stop offset="1" stop-color="#F67D75"/>
</linearGradient>
</defs>
</svg>
