<svg width="465" height="392" viewBox="0 0 465 392" fill="none" xmlns="http://www.w3.org/2000/svg">
<g opacity="0.7">
<path d="M0 0L13.0166 7.62939e-06L13.0166 23.9846L0 0Z" fill="url(#paint0_linear)"/>
<path d="M13.0166 61.2984H0L13.0166 85.283L13.0166 61.2984Z" fill="url(#paint1_linear)"/>
<path d="M0 122.597H13.0166L13.0166 146.581L0 122.597Z" fill="url(#paint2_linear)"/>
<path d="M13.0166 183.895H0L13.0166 207.88L13.0166 183.895Z" fill="url(#paint3_linear)"/>
<path d="M0 245.194H13.0166L13.0166 269.178L0 245.194Z" fill="url(#paint4_linear)"/>
<path d="M13.0166 306.492H0L13.0166 330.477L13.0166 306.492Z" fill="url(#paint5_linear)"/>
<path d="M0 367.79H13.0166L13.0166 391.775L0 367.79Z" fill="url(#paint6_linear)"/>
<path d="M63.237 7.62939e-06L50.2204 0L63.237 23.9846V7.62939e-06Z" fill="url(#paint7_linear)"/>
<path d="M50.2204 61.2984H63.237V85.283L50.2204 61.2984Z" fill="url(#paint8_linear)"/>
<path d="M63.237 122.597H50.2204L63.237 146.581V122.597Z" fill="url(#paint9_linear)"/>
<path d="M50.2204 183.895H63.237V207.88L50.2204 183.895Z" fill="url(#paint10_linear)"/>
<path d="M63.237 245.194H50.2204L63.237 269.178V245.194Z" fill="url(#paint11_linear)"/>
<path d="M50.2204 306.492H63.237V330.477L50.2204 306.492Z" fill="url(#paint12_linear)"/>
<path d="M63.237 367.79H50.2204L63.237 391.775V367.79Z" fill="url(#paint13_linear)"/>
<path d="M100.441 0L113.457 7.62939e-06V23.9846L100.441 0Z" fill="url(#paint14_linear)"/>
<path d="M113.457 61.2984H100.441L113.457 85.283V61.2984Z" fill="url(#paint15_linear)"/>
<path d="M100.441 122.597H113.457V146.581L100.441 122.597Z" fill="url(#paint16_linear)"/>
<path d="M113.457 183.895H100.441L113.457 207.88V183.895Z" fill="url(#paint17_linear)"/>
<path d="M100.441 245.194H113.457V269.178L100.441 245.194Z" fill="url(#paint18_linear)"/>
<path d="M113.457 306.492H100.441L113.457 330.477V306.492Z" fill="url(#paint19_linear)"/>
<path d="M100.441 367.79H113.457V391.775L100.441 367.79Z" fill="url(#paint20_linear)"/>
<path d="M163.678 7.62939e-06L150.661 0L163.678 23.9846V7.62939e-06Z" fill="url(#paint21_linear)"/>
<path d="M150.661 61.2984H163.678V85.283L150.661 61.2984Z" fill="url(#paint22_linear)"/>
<path d="M163.678 122.597H150.661L163.678 146.581V122.597Z" fill="url(#paint23_linear)"/>
<path d="M150.661 183.895H163.678V207.88L150.661 183.895Z" fill="url(#paint24_linear)"/>
<path d="M163.678 245.194H150.661L163.678 269.178V245.194Z" fill="url(#paint25_linear)"/>
<path d="M150.661 306.492H163.678V330.477L150.661 306.492Z" fill="url(#paint26_linear)"/>
<path d="M163.678 367.79H150.661L163.678 391.775V367.79Z" fill="url(#paint27_linear)"/>
<path d="M200.881 0L213.898 7.62939e-06V23.9846L200.881 0Z" fill="url(#paint28_linear)"/>
<path d="M213.898 61.2984H200.881L213.898 85.283V61.2984Z" fill="url(#paint29_linear)"/>
<path d="M200.881 122.597H213.898V146.581L200.881 122.597Z" fill="url(#paint30_linear)"/>
<path d="M213.898 183.895H200.881L213.898 207.88V183.895Z" fill="url(#paint31_linear)"/>
<path d="M200.881 245.194H213.898V269.178L200.881 245.194Z" fill="url(#paint32_linear)"/>
<path d="M213.898 306.492H200.881L213.898 330.477V306.492Z" fill="url(#paint33_linear)"/>
<path d="M200.881 367.79H213.898V391.775L200.881 367.79Z" fill="url(#paint34_linear)"/>
<path d="M264.118 7.62939e-06L251.102 0L264.118 23.9846V7.62939e-06Z" fill="url(#paint35_linear)"/>
<path d="M251.102 61.2984H264.118V85.283L251.102 61.2984Z" fill="url(#paint36_linear)"/>
<path d="M264.118 122.597H251.102L264.118 146.581V122.597Z" fill="url(#paint37_linear)"/>
<path d="M251.102 183.895H264.118V207.88L251.102 183.895Z" fill="url(#paint38_linear)"/>
<path d="M264.118 245.194H251.102L264.118 269.178V245.194Z" fill="url(#paint39_linear)"/>
<path d="M251.102 306.492H264.118V330.477L251.102 306.492Z" fill="url(#paint40_linear)"/>
<path d="M264.118 367.79H251.102L264.118 391.775V367.79Z" fill="url(#paint41_linear)"/>
<path d="M301.322 0L314.339 7.62939e-06L314.339 23.9846L301.322 0Z" fill="url(#paint42_linear)"/>
<path d="M314.339 61.2984H301.322L314.339 85.283L314.339 61.2984Z" fill="url(#paint43_linear)"/>
<path d="M301.322 122.597H314.339L314.339 146.581L301.322 122.597Z" fill="url(#paint44_linear)"/>
<path d="M314.339 183.895H301.322L314.339 207.88L314.339 183.895Z" fill="url(#paint45_linear)"/>
<path d="M301.322 245.194H314.339L314.339 269.178L301.322 245.194Z" fill="url(#paint46_linear)"/>
<path d="M314.339 306.492H301.322L314.339 330.477L314.339 306.492Z" fill="url(#paint47_linear)"/>
<path d="M301.322 367.79H314.339L314.339 391.775L301.322 367.79Z" fill="url(#paint48_linear)"/>
<path d="M364.559 7.62939e-06L351.543 0L364.559 23.9846L364.559 7.62939e-06Z" fill="url(#paint49_linear)"/>
<path d="M351.543 61.2984H364.559L364.559 85.283L351.543 61.2984Z" fill="url(#paint50_linear)"/>
<path d="M364.559 122.597H351.543L364.559 146.581L364.559 122.597Z" fill="url(#paint51_linear)"/>
<path d="M351.543 183.895H364.559L364.559 207.88L351.543 183.895Z" fill="url(#paint52_linear)"/>
<path d="M364.559 245.194H351.543L364.559 269.178L364.559 245.194Z" fill="url(#paint53_linear)"/>
<path d="M351.543 306.492H364.559L364.559 330.477L351.543 306.492Z" fill="url(#paint54_linear)"/>
<path d="M364.559 367.79H351.543L364.559 391.775L364.559 367.79Z" fill="url(#paint55_linear)"/>
<path d="M401.763 0L414.78 7.62939e-06L414.78 23.9846L401.763 0Z" fill="url(#paint56_linear)"/>
<path d="M414.78 61.2984H401.763L414.78 85.283L414.78 61.2984Z" fill="url(#paint57_linear)"/>
<path d="M401.763 122.597H414.78L414.78 146.581L401.763 122.597Z" fill="url(#paint58_linear)"/>
<path d="M414.78 183.895H401.763L414.78 207.88L414.78 183.895Z" fill="url(#paint59_linear)"/>
<path d="M401.763 245.194H414.78L414.78 269.178L401.763 245.194Z" fill="url(#paint60_linear)"/>
<path d="M414.78 306.492H401.763L414.78 330.477L414.78 306.492Z" fill="url(#paint61_linear)"/>
<path d="M401.763 367.79H414.78L414.78 391.775L401.763 367.79Z" fill="url(#paint62_linear)"/>
<path d="M465 7.62939e-06L451.983 0L465 23.9846L465 7.62939e-06Z" fill="url(#paint63_linear)"/>
<path d="M451.983 61.2984H465L465 85.283L451.983 61.2984Z" fill="url(#paint64_linear)"/>
<path d="M465 122.597H451.983L465 146.581L465 122.597Z" fill="url(#paint65_linear)"/>
<path d="M451.983 183.895H465L465 207.88L451.983 183.895Z" fill="url(#paint66_linear)"/>
<path d="M465 245.194H451.983L465 269.178L465 245.194Z" fill="url(#paint67_linear)"/>
<path d="M451.983 306.492H465L465 330.477L451.983 306.492Z" fill="url(#paint68_linear)"/>
<path d="M465 367.79H451.983L465 391.775L465 367.79Z" fill="url(#paint69_linear)"/>
</g>
<defs>
<linearGradient id="paint0_linear" x1="0" y1="195.888" x2="465" y2="195.888" gradientUnits="userSpaceOnUse">
<stop stop-color="#FFC9B3"/>
<stop offset="1" stop-color="#F67D75"/>
</linearGradient>
<linearGradient id="paint1_linear" x1="0" y1="195.888" x2="465" y2="195.888" gradientUnits="userSpaceOnUse">
<stop stop-color="#FFC9B3"/>
<stop offset="1" stop-color="#F67D75"/>
</linearGradient>
<linearGradient id="paint2_linear" x1="0" y1="195.888" x2="465" y2="195.888" gradientUnits="userSpaceOnUse">
<stop stop-color="#FFC9B3"/>
<stop offset="1" stop-color="#F67D75"/>
</linearGradient>
<linearGradient id="paint3_linear" x1="0" y1="195.888" x2="465" y2="195.888" gradientUnits="userSpaceOnUse">
<stop stop-color="#FFC9B3"/>
<stop offset="1" stop-color="#F67D75"/>
</linearGradient>
<linearGradient id="paint4_linear" x1="0" y1="195.888" x2="465" y2="195.888" gradientUnits="userSpaceOnUse">
<stop stop-color="#FFC9B3"/>
<stop offset="1" stop-color="#F67D75"/>
</linearGradient>
<linearGradient id="paint5_linear" x1="0" y1="195.888" x2="465" y2="195.888" gradientUnits="userSpaceOnUse">
<stop stop-color="#FFC9B3"/>
<stop offset="1" stop-color="#F67D75"/>
</linearGradient>
<linearGradient id="paint6_linear" x1="0" y1="195.888" x2="465" y2="195.888" gradientUnits="userSpaceOnUse">
<stop stop-color="#FFC9B3"/>
<stop offset="1" stop-color="#F67D75"/>
</linearGradient>
<linearGradient id="paint7_linear" x1="0" y1="195.888" x2="465" y2="195.888" gradientUnits="userSpaceOnUse">
<stop stop-color="#FFC9B3"/>
<stop offset="1" stop-color="#F67D75"/>
</linearGradient>
<linearGradient id="paint8_linear" x1="0" y1="195.888" x2="465" y2="195.888" gradientUnits="userSpaceOnUse">
<stop stop-color="#FFC9B3"/>
<stop offset="1" stop-color="#F67D75"/>
</linearGradient>
<linearGradient id="paint9_linear" x1="0" y1="195.888" x2="465" y2="195.888" gradientUnits="userSpaceOnUse">
<stop stop-color="#FFC9B3"/>
<stop offset="1" stop-color="#F67D75"/>
</linearGradient>
<linearGradient id="paint10_linear" x1="0" y1="195.888" x2="465" y2="195.888" gradientUnits="userSpaceOnUse">
<stop stop-color="#FFC9B3"/>
<stop offset="1" stop-color="#F67D75"/>
</linearGradient>
<linearGradient id="paint11_linear" x1="0" y1="195.888" x2="465" y2="195.888" gradientUnits="userSpaceOnUse">
<stop stop-color="#FFC9B3"/>
<stop offset="1" stop-color="#F67D75"/>
</linearGradient>
<linearGradient id="paint12_linear" x1="0" y1="195.888" x2="465" y2="195.888" gradientUnits="userSpaceOnUse">
<stop stop-color="#FFC9B3"/>
<stop offset="1" stop-color="#F67D75"/>
</linearGradient>
<linearGradient id="paint13_linear" x1="0" y1="195.888" x2="465" y2="195.888" gradientUnits="userSpaceOnUse">
<stop stop-color="#FFC9B3"/>
<stop offset="1" stop-color="#F67D75"/>
</linearGradient>
<linearGradient id="paint14_linear" x1="0" y1="195.888" x2="465" y2="195.888" gradientUnits="userSpaceOnUse">
<stop stop-color="#FFC9B3"/>
<stop offset="1" stop-color="#F67D75"/>
</linearGradient>
<linearGradient id="paint15_linear" x1="0" y1="195.888" x2="465" y2="195.888" gradientUnits="userSpaceOnUse">
<stop stop-color="#FFC9B3"/>
<stop offset="1" stop-color="#F67D75"/>
</linearGradient>
<linearGradient id="paint16_linear" x1="0" y1="195.888" x2="465" y2="195.888" gradientUnits="userSpaceOnUse">
<stop stop-color="#FFC9B3"/>
<stop offset="1" stop-color="#F67D75"/>
</linearGradient>
<linearGradient id="paint17_linear" x1="0" y1="195.888" x2="465" y2="195.888" gradientUnits="userSpaceOnUse">
<stop stop-color="#FFC9B3"/>
<stop offset="1" stop-color="#F67D75"/>
</linearGradient>
<linearGradient id="paint18_linear" x1="0" y1="195.888" x2="465" y2="195.888" gradientUnits="userSpaceOnUse">
<stop stop-color="#FFC9B3"/>
<stop offset="1" stop-color="#F67D75"/>
</linearGradient>
<linearGradient id="paint19_linear" x1="0" y1="195.888" x2="465" y2="195.888" gradientUnits="userSpaceOnUse">
<stop stop-color="#FFC9B3"/>
<stop offset="1" stop-color="#F67D75"/>
</linearGradient>
<linearGradient id="paint20_linear" x1="0" y1="195.888" x2="465" y2="195.888" gradientUnits="userSpaceOnUse">
<stop stop-color="#FFC9B3"/>
<stop offset="1" stop-color="#F67D75"/>
</linearGradient>
<linearGradient id="paint21_linear" x1="0" y1="195.888" x2="465" y2="195.888" gradientUnits="userSpaceOnUse">
<stop stop-color="#FFC9B3"/>
<stop offset="1" stop-color="#F67D75"/>
</linearGradient>
<linearGradient id="paint22_linear" x1="0" y1="195.888" x2="465" y2="195.888" gradientUnits="userSpaceOnUse">
<stop stop-color="#FFC9B3"/>
<stop offset="1" stop-color="#F67D75"/>
</linearGradient>
<linearGradient id="paint23_linear" x1="0" y1="195.888" x2="465" y2="195.888" gradientUnits="userSpaceOnUse">
<stop stop-color="#FFC9B3"/>
<stop offset="1" stop-color="#F67D75"/>
</linearGradient>
<linearGradient id="paint24_linear" x1="0" y1="195.888" x2="465" y2="195.888" gradientUnits="userSpaceOnUse">
<stop stop-color="#FFC9B3"/>
<stop offset="1" stop-color="#F67D75"/>
</linearGradient>
<linearGradient id="paint25_linear" x1="0" y1="195.888" x2="465" y2="195.888" gradientUnits="userSpaceOnUse">
<stop stop-color="#FFC9B3"/>
<stop offset="1" stop-color="#F67D75"/>
</linearGradient>
<linearGradient id="paint26_linear" x1="0" y1="195.888" x2="465" y2="195.888" gradientUnits="userSpaceOnUse">
<stop stop-color="#FFC9B3"/>
<stop offset="1" stop-color="#F67D75"/>
</linearGradient>
<linearGradient id="paint27_linear" x1="0" y1="195.888" x2="465" y2="195.888" gradientUnits="userSpaceOnUse">
<stop stop-color="#FFC9B3"/>
<stop offset="1" stop-color="#F67D75"/>
</linearGradient>
<linearGradient id="paint28_linear" x1="0" y1="195.888" x2="465" y2="195.888" gradientUnits="userSpaceOnUse">
<stop stop-color="#FFC9B3"/>
<stop offset="1" stop-color="#F67D75"/>
</linearGradient>
<linearGradient id="paint29_linear" x1="0" y1="195.888" x2="465" y2="195.888" gradientUnits="userSpaceOnUse">
<stop stop-color="#FFC9B3"/>
<stop offset="1" stop-color="#F67D75"/>
</linearGradient>
<linearGradient id="paint30_linear" x1="0" y1="195.888" x2="465" y2="195.888" gradientUnits="userSpaceOnUse">
<stop stop-color="#FFC9B3"/>
<stop offset="1" stop-color="#F67D75"/>
</linearGradient>
<linearGradient id="paint31_linear" x1="0" y1="195.888" x2="465" y2="195.888" gradientUnits="userSpaceOnUse">
<stop stop-color="#FFC9B3"/>
<stop offset="1" stop-color="#F67D75"/>
</linearGradient>
<linearGradient id="paint32_linear" x1="0" y1="195.888" x2="465" y2="195.888" gradientUnits="userSpaceOnUse">
<stop stop-color="#FFC9B3"/>
<stop offset="1" stop-color="#F67D75"/>
</linearGradient>
<linearGradient id="paint33_linear" x1="0" y1="195.888" x2="465" y2="195.888" gradientUnits="userSpaceOnUse">
<stop stop-color="#FFC9B3"/>
<stop offset="1" stop-color="#F67D75"/>
</linearGradient>
<linearGradient id="paint34_linear" x1="0" y1="195.888" x2="465" y2="195.888" gradientUnits="userSpaceOnUse">
<stop stop-color="#FFC9B3"/>
<stop offset="1" stop-color="#F67D75"/>
</linearGradient>
<linearGradient id="paint35_linear" x1="0" y1="195.888" x2="465" y2="195.888" gradientUnits="userSpaceOnUse">
<stop stop-color="#FFC9B3"/>
<stop offset="1" stop-color="#F67D75"/>
</linearGradient>
<linearGradient id="paint36_linear" x1="0" y1="195.888" x2="465" y2="195.888" gradientUnits="userSpaceOnUse">
<stop stop-color="#FFC9B3"/>
<stop offset="1" stop-color="#F67D75"/>
</linearGradient>
<linearGradient id="paint37_linear" x1="0" y1="195.888" x2="465" y2="195.888" gradientUnits="userSpaceOnUse">
<stop stop-color="#FFC9B3"/>
<stop offset="1" stop-color="#F67D75"/>
</linearGradient>
<linearGradient id="paint38_linear" x1="0" y1="195.888" x2="465" y2="195.888" gradientUnits="userSpaceOnUse">
<stop stop-color="#FFC9B3"/>
<stop offset="1" stop-color="#F67D75"/>
</linearGradient>
<linearGradient id="paint39_linear" x1="0" y1="195.888" x2="465" y2="195.888" gradientUnits="userSpaceOnUse">
<stop stop-color="#FFC9B3"/>
<stop offset="1" stop-color="#F67D75"/>
</linearGradient>
<linearGradient id="paint40_linear" x1="0" y1="195.888" x2="465" y2="195.888" gradientUnits="userSpaceOnUse">
<stop stop-color="#FFC9B3"/>
<stop offset="1" stop-color="#F67D75"/>
</linearGradient>
<linearGradient id="paint41_linear" x1="0" y1="195.888" x2="465" y2="195.888" gradientUnits="userSpaceOnUse">
<stop stop-color="#FFC9B3"/>
<stop offset="1" stop-color="#F67D75"/>
</linearGradient>
<linearGradient id="paint42_linear" x1="0" y1="195.888" x2="465" y2="195.888" gradientUnits="userSpaceOnUse">
<stop stop-color="#FFC9B3"/>
<stop offset="1" stop-color="#F67D75"/>
</linearGradient>
<linearGradient id="paint43_linear" x1="0" y1="195.888" x2="465" y2="195.888" gradientUnits="userSpaceOnUse">
<stop stop-color="#FFC9B3"/>
<stop offset="1" stop-color="#F67D75"/>
</linearGradient>
<linearGradient id="paint44_linear" x1="0" y1="195.888" x2="465" y2="195.888" gradientUnits="userSpaceOnUse">
<stop stop-color="#FFC9B3"/>
<stop offset="1" stop-color="#F67D75"/>
</linearGradient>
<linearGradient id="paint45_linear" x1="0" y1="195.888" x2="465" y2="195.888" gradientUnits="userSpaceOnUse">
<stop stop-color="#FFC9B3"/>
<stop offset="1" stop-color="#F67D75"/>
</linearGradient>
<linearGradient id="paint46_linear" x1="0" y1="195.888" x2="465" y2="195.888" gradientUnits="userSpaceOnUse">
<stop stop-color="#FFC9B3"/>
<stop offset="1" stop-color="#F67D75"/>
</linearGradient>
<linearGradient id="paint47_linear" x1="0" y1="195.888" x2="465" y2="195.888" gradientUnits="userSpaceOnUse">
<stop stop-color="#FFC9B3"/>
<stop offset="1" stop-color="#F67D75"/>
</linearGradient>
<linearGradient id="paint48_linear" x1="0" y1="195.888" x2="465" y2="195.888" gradientUnits="userSpaceOnUse">
<stop stop-color="#FFC9B3"/>
<stop offset="1" stop-color="#F67D75"/>
</linearGradient>
<linearGradient id="paint49_linear" x1="0" y1="195.888" x2="465" y2="195.888" gradientUnits="userSpaceOnUse">
<stop stop-color="#FFC9B3"/>
<stop offset="1" stop-color="#F67D75"/>
</linearGradient>
<linearGradient id="paint50_linear" x1="0" y1="195.888" x2="465" y2="195.888" gradientUnits="userSpaceOnUse">
<stop stop-color="#FFC9B3"/>
<stop offset="1" stop-color="#F67D75"/>
</linearGradient>
<linearGradient id="paint51_linear" x1="0" y1="195.888" x2="465" y2="195.888" gradientUnits="userSpaceOnUse">
<stop stop-color="#FFC9B3"/>
<stop offset="1" stop-color="#F67D75"/>
</linearGradient>
<linearGradient id="paint52_linear" x1="0" y1="195.888" x2="465" y2="195.888" gradientUnits="userSpaceOnUse">
<stop stop-color="#FFC9B3"/>
<stop offset="1" stop-color="#F67D75"/>
</linearGradient>
<linearGradient id="paint53_linear" x1="0" y1="195.888" x2="465" y2="195.888" gradientUnits="userSpaceOnUse">
<stop stop-color="#FFC9B3"/>
<stop offset="1" stop-color="#F67D75"/>
</linearGradient>
<linearGradient id="paint54_linear" x1="0" y1="195.888" x2="465" y2="195.888" gradientUnits="userSpaceOnUse">
<stop stop-color="#FFC9B3"/>
<stop offset="1" stop-color="#F67D75"/>
</linearGradient>
<linearGradient id="paint55_linear" x1="0" y1="195.888" x2="465" y2="195.888" gradientUnits="userSpaceOnUse">
<stop stop-color="#FFC9B3"/>
<stop offset="1" stop-color="#F67D75"/>
</linearGradient>
<linearGradient id="paint56_linear" x1="0" y1="195.888" x2="465" y2="195.888" gradientUnits="userSpaceOnUse">
<stop stop-color="#FFC9B3"/>
<stop offset="1" stop-color="#F67D75"/>
</linearGradient>
<linearGradient id="paint57_linear" x1="0" y1="195.888" x2="465" y2="195.888" gradientUnits="userSpaceOnUse">
<stop stop-color="#FFC9B3"/>
<stop offset="1" stop-color="#F67D75"/>
</linearGradient>
<linearGradient id="paint58_linear" x1="0" y1="195.888" x2="465" y2="195.888" gradientUnits="userSpaceOnUse">
<stop stop-color="#FFC9B3"/>
<stop offset="1" stop-color="#F67D75"/>
</linearGradient>
<linearGradient id="paint59_linear" x1="0" y1="195.888" x2="465" y2="195.888" gradientUnits="userSpaceOnUse">
<stop stop-color="#FFC9B3"/>
<stop offset="1" stop-color="#F67D75"/>
</linearGradient>
<linearGradient id="paint60_linear" x1="0" y1="195.888" x2="465" y2="195.888" gradientUnits="userSpaceOnUse">
<stop stop-color="#FFC9B3"/>
<stop offset="1" stop-color="#F67D75"/>
</linearGradient>
<linearGradient id="paint61_linear" x1="0" y1="195.888" x2="465" y2="195.888" gradientUnits="userSpaceOnUse">
<stop stop-color="#FFC9B3"/>
<stop offset="1" stop-color="#F67D75"/>
</linearGradient>
<linearGradient id="paint62_linear" x1="0" y1="195.888" x2="465" y2="195.888" gradientUnits="userSpaceOnUse">
<stop stop-color="#FFC9B3"/>
<stop offset="1" stop-color="#F67D75"/>
</linearGradient>
<linearGradient id="paint63_linear" x1="0" y1="195.888" x2="465" y2="195.888" gradientUnits="userSpaceOnUse">
<stop stop-color="#FFC9B3"/>
<stop offset="1" stop-color="#F67D75"/>
</linearGradient>
<linearGradient id="paint64_linear" x1="0" y1="195.888" x2="465" y2="195.888" gradientUnits="userSpaceOnUse">
<stop stop-color="#FFC9B3"/>
<stop offset="1" stop-color="#F67D75"/>
</linearGradient>
<linearGradient id="paint65_linear" x1="0" y1="195.888" x2="465" y2="195.888" gradientUnits="userSpaceOnUse">
<stop stop-color="#FFC9B3"/>
<stop offset="1" stop-color="#F67D75"/>
</linearGradient>
<linearGradient id="paint66_linear" x1="0" y1="195.888" x2="465" y2="195.888" gradientUnits="userSpaceOnUse">
<stop stop-color="#FFC9B3"/>
<stop offset="1" stop-color="#F67D75"/>
</linearGradient>
<linearGradient id="paint67_linear" x1="0" y1="195.888" x2="465" y2="195.888" gradientUnits="userSpaceOnUse">
<stop stop-color="#FFC9B3"/>
<stop offset="1" stop-color="#F67D75"/>
</linearGradient>
<linearGradient id="paint68_linear" x1="0" y1="195.888" x2="465" y2="195.888" gradientUnits="userSpaceOnUse">
<stop stop-color="#FFC9B3"/>
<stop offset="1" stop-color="#F67D75"/>
</linearGradient>
<linearGradient id="paint69_linear" x1="0" y1="195.888" x2="465" y2="195.888" gradientUnits="userSpaceOnUse">
<stop stop-color="#FFC9B3"/>
<stop offset="1" stop-color="#F67D75"/>
</linearGradient>
</defs>
</svg>
