<svg width="30" height="28" viewBox="0 0 30 28" fill="none" xmlns="http://www.w3.org/2000/svg">
<path d="M0.832031 14C0.832031 12.7746 0.987865 11.5874 1.2797 10.4527C2.06236 10.4938 2.84115 10.3177 3.52999 9.94389C4.21883 9.57006 4.79088 9.01303 5.18291 8.33438C5.57494 7.65574 5.77167 6.8819 5.75137 6.09843C5.73107 5.31495 5.49452 4.55234 5.06786 3.89491C6.78053 2.20988 8.89399 0.988613 11.2091 0.346161C11.5647 1.04525 12.1068 1.63231 12.7754 2.04235C13.4439 2.45239 14.213 2.66943 14.9973 2.66943C15.7816 2.66943 16.5506 2.45239 17.2192 2.04235C17.8878 1.63231 18.4299 1.04525 18.7854 0.346161C21.1006 0.988613 23.214 2.20988 24.9267 3.89491C24.4996 4.55246 24.2627 5.31536 24.2422 6.0992C24.2218 6.88303 24.4185 7.65724 24.8108 8.33618C25.2031 9.01511 25.7755 9.5723 26.4648 9.94608C27.154 10.3199 27.9333 10.4957 28.7163 10.4541C29.0081 11.5874 29.1639 12.7746 29.1639 14C29.1639 15.2254 29.0081 16.4126 28.7163 17.5473C27.9335 17.5059 27.1545 17.6818 26.4655 18.0555C25.7764 18.4292 25.2042 18.9862 24.812 19.6649C24.4197 20.3436 24.2229 21.1176 24.2431 21.9012C24.2634 22.6848 24.5 23.4475 24.9267 24.1051C23.214 25.7901 21.1006 27.0114 18.7854 27.6538C18.4299 26.9547 17.8878 26.3677 17.2192 25.9576C16.5506 25.5476 15.7816 25.3306 14.9973 25.3306C14.213 25.3306 13.4439 25.5476 12.7754 25.9576C12.1068 26.3677 11.5647 26.9547 11.2091 27.6538C8.89399 27.0114 6.78053 25.7901 5.06786 24.1051C5.495 23.4475 5.7319 22.6846 5.75235 21.9008C5.77281 21.117 5.57602 20.3427 5.18376 19.6638C4.79151 18.9849 4.21907 18.4277 3.5298 18.0539C2.84052 17.6801 2.06128 17.5043 1.27828 17.5459C0.987865 16.414 0.832031 15.2268 0.832031 14ZM7.6377 18.25C8.5302 19.7956 8.7852 21.5735 8.4367 23.2423C9.0147 23.6532 9.62953 24.0087 10.2741 24.3048C11.5727 23.1415 13.2552 22.4988 14.9987 22.5C16.7837 22.5 18.4525 23.1672 19.7233 24.3048C20.3679 24.0087 20.9827 23.6532 21.5607 23.2423C21.2029 21.5366 21.4874 19.7588 22.3597 18.25C23.2304 16.7404 24.6278 15.6053 26.2839 15.0625C26.3494 14.3557 26.3494 13.6443 26.2839 12.9375C24.6273 12.395 23.2293 11.2599 22.3583 9.75C21.486 8.24115 21.2015 6.46338 21.5593 4.75766C20.9814 4.34672 20.3663 3.99099 19.7219 3.69516C18.4236 4.85815 16.7417 5.50086 14.9987 5.49999C13.2552 5.50121 11.5727 4.85848 10.2741 3.69516C9.62971 3.991 9.01454 4.34673 8.4367 4.75766C8.7945 6.46338 8.50997 8.24115 7.6377 9.75C6.76697 11.2596 5.36959 12.3947 3.71353 12.9375C3.64801 13.6443 3.64801 14.3557 3.71353 15.0625C5.37012 15.605 6.76805 16.7401 7.63911 18.25H7.6377ZM14.9987 18.25C13.8715 18.25 12.7905 17.8022 11.9935 17.0052C11.1965 16.2082 10.7487 15.1272 10.7487 14C10.7487 12.8728 11.1965 11.7918 11.9935 10.9948C12.7905 10.1978 13.8715 9.75 14.9987 9.75C16.1259 9.75 17.2069 10.1978 18.0039 10.9948C18.8009 11.7918 19.2487 12.8728 19.2487 14C19.2487 15.1272 18.8009 16.2082 18.0039 17.0052C17.2069 17.8022 16.1259 18.25 14.9987 18.25ZM14.9987 15.4167C15.3744 15.4167 15.7348 15.2674 16.0004 15.0017C16.2661 14.7361 16.4154 14.3757 16.4154 14C16.4154 13.6243 16.2661 13.2639 16.0004 12.9983C15.7348 12.7326 15.3744 12.5833 14.9987 12.5833C14.623 12.5833 14.2626 12.7326 13.997 12.9983C13.7313 13.2639 13.582 13.6243 13.582 14C13.582 14.3757 13.7313 14.7361 13.997 15.0017C14.2626 15.2674 14.623 15.4167 14.9987 15.4167Z" fill="#747474"/>
</svg>
