<svg width="160" height="160" viewBox="0 0 160 160" fill="none" xmlns="http://www.w3.org/2000/svg">
<mask id="path-1-inside-1" fill="white">
<path d="M160 80C160 95.8225 155.308 111.29 146.518 124.446C137.727 137.602 125.233 147.855 110.615 153.91C95.9966 159.965 79.9113 161.55 64.3928 158.463C48.8743 155.376 34.6197 147.757 23.4315 136.569C12.2433 125.38 4.62399 111.126 1.53718 95.6072C-1.54964 80.0887 0.0346269 64.0034 6.08964 49.3853C12.1446 34.7672 22.3984 22.2729 35.5544 13.4824C48.7103 4.69192 64.1775 -1.88681e-07 80 0V80H160Z"/>
</mask>
<path d="M160 80C160 95.8225 155.308 111.29 146.518 124.446C137.727 137.602 125.233 147.855 110.615 153.91C95.9966 159.965 79.9113 161.55 64.3928 158.463C48.8743 155.376 34.6197 147.757 23.4315 136.569C12.2433 125.38 4.62399 111.126 1.53718 95.6072C-1.54964 80.0887 0.0346269 64.0034 6.08964 49.3853C12.1446 34.7672 22.3984 22.2729 35.5544 13.4824C48.7103 4.69192 64.1775 -1.88681e-07 80 0V80H160Z" stroke="#F67D75" stroke-width="6" mask="url(#path-1-inside-1)"/>
</svg>
