<svg width="236" height="52" viewBox="0 0 236 52" fill="none" xmlns="http://www.w3.org/2000/svg">
<path fill-rule="evenodd" clip-rule="evenodd" d="M123.81 0.508795L121.034 2.26494V35.3859L123.851 33.6297V25.4022C123.851 24.2919 124.108 23.312 124.614 22.451C125.154 21.5775 125.859 20.8871 126.73 20.3743C127.598 19.8641 128.523 19.6104 129.515 19.6095C130.641 19.636 131.433 19.9655 131.962 20.5408C132.513 21.1399 132.811 21.8991 132.837 22.8493V35.3859L135.696 33.6297L135.696 22.307L135.696 22.2985C135.666 20.7658 135.146 19.4936 134.116 18.523C133.085 17.5243 131.746 17.0394 130.139 17.0394C128.525 17.0394 127.07 17.4294 125.784 18.2175C125.006 18.688 124.347 19.2365 123.81 19.864V0.508795ZM180.367 10.1887C179.888 10.1887 179.459 10.3754 179.09 10.708C178.693 11.0367 178.484 11.4743 178.484 11.9896C178.484 12.5069 178.694 12.9524 179.081 13.3049C179.452 13.6422 179.885 13.8318 180.367 13.8318C180.856 13.8318 181.292 13.671 181.651 13.3477L181.66 13.34L181.668 13.3318C182.031 12.9689 182.209 12.5109 182.209 11.9896C182.209 11.4896 182.026 11.0554 181.66 10.7218C181.305 10.3706 180.866 10.1887 180.367 10.1887ZM145.425 18.1715C146.817 17.36 148.365 16.9569 150.061 16.9569C151.782 16.9569 153.331 17.359 154.698 18.1724C156.057 18.9538 157.13 20.0271 157.911 21.3867C158.694 22.7498 159.084 24.2565 159.084 25.8974C159.084 27.5383 158.694 29.045 157.911 30.4081C157.129 31.7695 156.042 32.8559 154.657 33.6639L154.654 33.6653C153.288 34.4504 151.739 34.838 150.02 34.838C148.329 34.838 146.797 34.4649 145.433 33.7101L145.426 33.7067C144.07 32.9272 142.984 31.8707 142.175 30.5415L142.169 30.532C141.384 29.1654 140.997 27.6165 140.997 25.8974C140.997 24.2565 141.386 22.7498 142.169 21.3867L142.173 21.3807C142.981 20.0239 144.067 18.9522 145.425 18.1715ZM150.02 19.527C148.835 19.527 147.777 19.8346 146.833 20.4468L146.831 20.4484C145.903 21.0411 145.169 21.8257 144.626 22.8082C144.084 23.7894 143.814 24.8307 143.814 25.9387C143.814 27.1321 144.085 28.2119 144.623 29.1869C145.191 30.1411 145.937 30.8983 146.862 31.4642C147.809 32.0264 148.858 32.3091 150.02 32.3091C151.183 32.3091 152.217 32.0259 153.133 31.4656L153.138 31.4629C154.091 30.8961 154.835 30.1395 155.374 29.1886L155.376 29.1854C155.941 28.2099 156.225 27.1309 156.225 25.9387C156.225 24.7464 155.941 23.6831 155.379 22.7377L155.375 22.7317L155.372 22.7257C154.831 21.7478 154.088 20.9796 153.138 20.4145L153.132 20.4109L153.126 20.4071C152.21 19.8219 151.179 19.527 150.02 19.527ZM48.7466 16.9981C47.0081 16.9981 45.4387 17.3546 44.0487 18.0778C42.6535 18.7761 41.5474 19.8107 40.7356 21.1726C39.9162 22.5196 39.5172 24.1287 39.5172 25.98C39.5172 27.7221 39.889 29.2708 40.647 30.6119L40.6506 30.618C41.4308 31.9473 42.4753 32.9931 43.7809 33.7475L43.791 33.7529C45.1254 34.4782 46.6014 34.838 48.2101 34.838C49.8799 34.838 51.3907 34.4339 52.7304 33.6184C53.5783 33.1023 54.2937 32.5377 54.8694 31.922V35.3859L57.6871 33.6297V16.6153L55.1008 18.3714L54.9482 20.0888C54.3691 19.364 53.6427 18.741 52.7742 18.2192C51.501 17.4101 50.1561 16.9981 48.7466 16.9981ZM45.4554 20.3364C46.405 19.7975 47.4442 19.527 48.5815 19.527C49.6175 19.527 50.5678 19.7466 51.4391 20.1822C52.3188 20.6221 53.0519 21.2146 53.6438 21.9608L53.6496 21.9679C54.255 22.6994 54.661 23.5282 54.8694 24.4594V26.7073C54.7899 27.8148 54.4682 28.7805 53.9114 29.6158C53.3482 30.4605 52.6069 31.1264 51.6803 31.6159C50.787 32.0749 49.771 32.3091 48.6228 32.3091C47.4916 32.3091 46.4415 32.0279 45.4647 31.4637C44.5091 30.8685 43.7501 30.0957 43.1825 29.1419C42.6186 28.167 42.3349 27.0887 42.3349 25.8974C42.3349 24.5878 42.6224 23.4711 43.1812 22.5314C43.7469 21.5799 44.501 20.8525 45.4475 20.3409L45.4554 20.3364ZM102.625 18.168C104.011 17.3888 105.501 16.9981 107.089 16.9981C108.704 16.9981 110.173 17.3884 111.483 18.175C112.788 18.9576 113.818 20.0312 114.569 21.388C115.354 22.728 115.741 24.2631 115.741 25.98C115.741 27.6754 115.338 29.2119 114.524 30.578L114.525 30.5768L114.146 30.3545L114.524 30.5792L114.524 30.578C113.742 31.9108 112.667 32.9563 111.307 33.7091L111.309 33.7081L111.093 33.3259L111.305 33.7101L111.307 33.7091C109.969 34.4646 108.464 34.838 106.8 34.838C105.296 34.838 103.876 34.4755 102.546 33.7529C101.653 33.2672 100.891 32.6733 100.265 31.9708V49.6809L97.4473 51.0472V18.2476L100.044 16.4915L100.14 20.1505C100.83 19.363 101.66 18.7021 102.625 18.168ZM102.625 18.168L102.623 18.1688L102.839 18.5515L102.626 18.1673L102.625 18.168ZM106.594 19.5683C105.453 19.5683 104.427 19.8269 103.506 20.3384C102.577 20.8543 101.833 21.5477 101.268 22.4217C100.707 23.2885 100.371 24.2724 100.265 25.3816V26.6653C100.344 27.7132 100.664 28.6673 101.224 29.5345C101.818 30.4115 102.563 31.1053 103.463 31.6205C104.386 32.1065 105.386 32.3504 106.47 32.3504C107.663 32.3504 108.726 32.0663 109.671 31.5041L109.676 31.5015C110.658 30.933 111.428 30.1744 111.994 29.2222L111.996 29.2193C112.586 28.2448 112.882 27.1684 112.882 25.98C112.882 24.7583 112.597 23.6816 112.036 22.7377L112.033 22.7333C111.465 21.7513 110.706 20.9807 109.754 20.4145L109.749 20.4118C108.834 19.8524 107.787 19.5683 106.594 19.5683ZM73.5328 17.0394C72.025 17.0394 70.627 17.4174 69.3476 18.1735C68.5 18.6743 67.7898 19.2983 67.2198 20.0439L67.1011 16.6153L64.551 18.3714V35.3859L67.3687 33.6297V25.4022C67.3687 24.3197 67.6255 23.3519 68.1335 22.4883L68.1362 22.4835C68.6507 21.5832 69.3273 20.8826 70.1674 20.3728C71.0309 19.8655 71.9676 19.6112 72.9861 19.6095C74.0821 19.6624 74.8269 20.0023 75.3014 20.5672L75.3075 20.5744L75.3139 20.5814C75.841 21.1565 76.1218 21.8628 76.1477 22.7261V35.3859L78.9654 33.6297V25.2479C79.0184 24.194 79.3006 23.2524 79.8074 22.4147C80.349 21.5649 81.0424 20.8853 81.8904 20.3713C82.7261 19.8649 83.6344 19.6113 84.6241 19.6095C85.7201 19.6624 86.4648 20.0024 86.9393 20.5672L86.9451 20.5739C87.4478 21.1484 87.7184 21.8573 87.7444 22.7261V35.3859L90.5621 33.6297L90.5622 22.307L90.5621 22.2985C90.5327 20.7699 90.0287 19.4992 89.0281 18.5276C88.022 17.5228 86.678 17.0394 85.047 17.0394C83.6248 17.0394 82.2868 17.3883 81.0396 18.0837C80.0872 18.5937 79.301 19.2811 78.6836 20.1413C78.3758 19.3787 77.8581 18.7297 77.139 18.2002C76.1201 17.4222 74.9108 17.0394 73.5328 17.0394ZM170.726 17.6051C171.675 17.2317 172.595 17.0394 173.484 17.0394H173.942L173.821 19.8159H173.401C172.232 19.8159 171.177 20.0749 170.228 20.5872C169.301 21.1028 168.558 21.7953 167.993 22.668C167.464 23.4999 167.196 24.4482 167.196 25.526V33.6297L164.378 35.3859V18.3714L166.93 16.6153L167.05 20.2996C167.362 19.8876 167.72 19.5098 168.122 19.1667C168.927 18.4768 169.796 17.9545 170.726 17.6051ZM218.971 17.0394C217.463 17.0394 216.065 17.4174 214.785 18.1735C213.938 18.6743 213.228 19.2983 212.658 20.0439L212.539 16.6153L209.989 18.3714V34.5078L212.806 32.7517V25.4022C212.806 24.3197 213.063 23.3519 213.571 22.4883L213.574 22.4835C214.089 21.5831 214.765 20.8825 215.605 20.3728C216.469 19.8655 217.405 19.6112 218.424 19.6095C219.52 19.6624 220.265 20.0023 220.739 20.5672L220.745 20.5744L220.752 20.5814C221.279 21.1565 221.56 21.8629 221.585 22.7263V34.5078L224.403 32.7517V25.2479C224.456 24.194 224.738 23.2525 225.245 22.4148C225.787 21.5649 226.48 20.8853 227.328 20.3713C228.164 19.8649 229.072 19.6113 230.062 19.6095C231.158 19.6624 231.903 20.0023 232.377 20.5672L232.383 20.5739C232.886 21.1484 233.156 21.8573 233.182 22.7262V34.5078L236 32.7517L236 22.307L236 22.2985C235.97 20.7698 235.466 19.4991 234.466 18.5275C233.46 17.5228 232.116 17.0394 230.485 17.0394C229.063 17.0394 227.725 17.3883 226.477 18.0837C225.525 18.5937 224.739 19.2811 224.121 20.1413C223.814 19.3788 223.296 18.7299 222.577 18.2003C221.558 17.4222 220.349 17.0394 218.971 17.0394ZM178.896 18.3714L181.714 16.6153V33.6297L178.896 35.3859V18.3714ZM191.396 16.6153L188.579 18.3714V29.7027L188.579 29.7111C188.638 31.2385 189.156 32.5172 190.152 33.5126L190.156 33.5173C191.162 34.4924 192.49 34.9618 194.094 34.9618C195.602 34.9618 197.012 34.5838 198.317 33.8299L198.319 33.8284C199.171 33.3281 199.878 32.7387 200.433 32.0583L200.521 35.3859L203.117 33.6297V16.6153L200.299 18.3714V26.5165C200.299 27.6539 200.029 28.6615 199.495 29.5509L199.493 29.5541C198.979 30.4284 198.301 31.1181 197.457 31.6298C196.619 32.1375 195.724 32.3899 194.764 32.3916C193.61 32.3386 192.804 31.9963 192.274 31.4226C191.747 30.8223 191.449 30.0589 191.396 29.1046V16.6153ZM7.12337 13.5228H19.2265L26.3461 25.7788H0.00384919L7.12337 13.5228ZM19.2265 39.144H7.12337L0.00384919 26.888H26.3461L19.2265 39.144ZM19.2265 12.4136H7.12337L5.27229 7.53338H21.0776L19.2265 12.4136ZM24.1023 18.8838L20.9927 13.5226L26.3409 13.5449L24.1023 18.8838ZM5.36151 13.5229L2.24415 18.8975L0 13.5452L5.36151 13.5229Z" fill="white"/>
</svg>
