<svg width="81" height="81" viewBox="0 0 81 81" fill="none" xmlns="http://www.w3.org/2000/svg">
<path fill-rule="evenodd" clip-rule="evenodd" d="M40.9375 80.5817C63.0289 80.5817 80.9375 62.6731 80.9375 40.5817C80.9375 18.4903 63.0289 0.581665 40.9375 0.581665C18.8461 0.581665 0.9375 18.4903 0.9375 40.5817C0.9375 62.6731 18.8461 80.5817 40.9375 80.5817ZM49.3375 23.5817L47.3699 28.6817H34.5051L32.5375 23.5817H49.3375ZM54.9375 43.0973L47.3699 29.815H34.5051L26.9375 43.0973H54.9375ZM54.9375 44.2993L47.3699 57.5817H34.5051L26.9375 44.2993H54.9375ZM52.5532 35.7911L49.2486 30.0258L54.9321 30.0498L52.5532 35.7911ZM29.3244 35.8058L32.6373 30.0261L26.9395 30.0501L29.3244 35.8058Z" fill="white"/>
</svg>
