<svg width="81" height="81" viewBox="0 0 81 81" fill="none" xmlns="http://www.w3.org/2000/svg">
<path fill-rule="evenodd" clip-rule="evenodd" d="M40.9375 80.6771C63.0289 80.6771 80.9375 62.7685 80.9375 40.6771C80.9375 18.5857 63.0289 0.677124 40.9375 0.677124C18.8461 0.677124 0.9375 18.5857 0.9375 40.6771C0.9375 62.7685 18.8461 80.6771 40.9375 80.6771ZM49.3375 23.6771L47.3699 28.7771H34.5051L32.5375 23.6771H49.3375ZM54.9375 43.1928L47.3699 29.9105H34.5051L26.9375 43.1928H54.9375ZM54.9375 44.3948L47.3699 57.6771H34.5051L26.9375 44.3948H54.9375ZM52.5532 35.8865L49.2486 30.1213L54.9321 30.1452L52.5532 35.8865ZM29.3244 35.9012L32.6373 30.1216L26.9395 30.1456L29.3244 35.9012Z" fill="#070609"/>
</svg>
