<svg width="269" height="58" viewBox="0 0 269 58" fill="none" xmlns="http://www.w3.org/2000/svg">
<path fill-rule="evenodd" clip-rule="evenodd" d="M141.002 0L137.84 2V39.72L141.049 37.72V28.35C141.049 27.0855 141.342 25.9696 141.917 24.9891C142.533 23.9942 143.335 23.2079 144.328 22.624C145.315 22.0429 146.37 21.754 147.499 21.753C148.781 21.7832 149.683 22.1585 150.286 22.8135C150.914 23.4958 151.252 24.3604 151.282 25.4426V39.72L154.538 37.72L154.538 24.825L154.538 24.8154C154.504 23.0698 153.912 21.621 152.739 20.5155C151.565 19.3782 150.039 18.826 148.21 18.826C146.372 18.826 144.714 19.2701 143.25 20.1677C142.364 20.7036 141.613 21.3282 141.002 22.0428V0ZM205.412 11.024C204.867 11.024 204.378 11.2367 203.958 11.6154C203.505 11.9898 203.267 12.4881 203.267 13.075C203.267 13.6641 203.506 14.1715 203.948 14.573C204.371 14.9571 204.863 15.173 205.412 15.173C205.969 15.173 206.466 14.9899 206.875 14.6216L206.885 14.6129L206.894 14.6036C207.307 14.1903 207.51 13.6687 207.51 13.075C207.51 12.5055 207.302 12.0111 206.885 11.6311C206.48 11.2312 205.981 11.024 205.412 11.024ZM165.618 20.1153C167.203 19.1911 168.967 18.732 170.898 18.732C172.857 18.732 174.623 19.1899 176.179 20.1163C177.727 21.0062 178.949 22.2286 179.838 23.7769C180.73 25.3294 181.174 27.0453 181.174 28.914C181.174 30.7827 180.73 32.4986 179.838 34.0511C178.948 35.6015 177.709 36.8387 176.132 37.7589L176.129 37.7606C174.573 38.6546 172.809 39.096 170.851 39.096C168.926 39.096 167.181 38.6711 165.627 37.8115L165.62 37.8076C164.075 36.92 162.838 35.7167 161.917 34.203L161.91 34.1921C161.016 32.6358 160.575 30.8718 160.575 28.914C160.575 27.0453 161.018 25.3294 161.91 23.7769L161.914 23.7701C162.835 22.2249 164.071 21.0044 165.618 20.1153ZM170.851 21.659C169.502 21.659 168.297 22.0094 167.222 22.7065L167.219 22.7083C166.162 23.3834 165.327 24.2769 164.708 25.3958C164.091 26.5132 163.784 27.6991 163.784 28.961C163.784 30.3201 164.092 31.5498 164.705 32.6602C165.352 33.747 166.201 34.6092 167.255 35.2538C168.333 35.894 169.528 36.216 170.851 36.216C172.175 36.216 173.353 35.8935 174.397 35.2554L174.402 35.2522C175.488 34.6067 176.334 33.7451 176.949 32.6622L176.951 32.6585C177.594 31.5476 177.918 30.3187 177.918 28.961C177.918 27.6032 177.594 26.3922 176.954 25.3155L176.95 25.3088L176.946 25.3018C176.331 24.1882 175.485 23.3133 174.402 22.6698L174.395 22.6657L174.389 22.6614C173.345 21.9948 172.171 21.659 170.851 21.659ZM55.5154 18.779C53.5355 18.779 51.7482 19.1849 50.1651 20.0086C48.5763 20.8039 47.3165 21.9821 46.392 23.5331C45.4588 25.0672 45.0044 26.8996 45.0044 29.008C45.0044 30.9921 45.4278 32.7558 46.291 34.2831L46.2952 34.2901C47.1838 35.804 48.3732 36.995 49.8602 37.8541L49.8716 37.8603C51.3913 38.6862 53.0723 39.096 54.9044 39.096C56.8061 39.096 58.5267 38.6358 60.0524 37.7071C61.018 37.1193 61.8328 36.4763 62.4884 35.7752V39.72L65.6974 37.72V18.343L62.7519 20.343L62.5781 22.2988C61.9186 21.4734 61.0914 20.7639 60.1022 20.1696C58.6522 19.2482 57.1206 18.779 55.5154 18.779ZM51.7672 22.5808C52.8486 21.9671 54.0322 21.659 55.3274 21.659C56.5073 21.659 57.5895 21.9091 58.5818 22.4052C59.5836 22.9061 60.4185 23.5809 61.0926 24.4308L61.0992 24.4388C61.7887 25.272 62.251 26.2158 62.4884 27.2763V29.8363C62.3978 31.0976 62.0315 32.1974 61.3974 33.1487C60.756 34.1107 59.9117 34.8691 58.8564 35.4265C57.8391 35.9493 56.682 36.216 55.3744 36.216C54.0861 36.216 52.8902 35.8958 51.7777 35.2532C50.6895 34.5754 49.8251 33.6953 49.1786 32.609C48.5365 31.4988 48.2134 30.2707 48.2134 28.914C48.2134 27.4226 48.5408 26.1508 49.1772 25.0805C49.8214 23.9969 50.6803 23.1686 51.7582 22.5859L51.7672 22.5808ZM116.875 20.1113C118.453 19.2239 120.151 18.779 121.959 18.779C123.798 18.779 125.471 19.2235 126.964 20.1193C128.449 21.0106 129.622 22.2333 130.478 23.7784C131.372 25.3044 131.812 27.0527 131.812 29.008C131.812 30.9389 131.353 32.6887 130.427 34.2445L130.428 34.2431L129.996 33.99L130.426 34.2459L130.427 34.2445C129.536 35.7624 128.312 36.953 126.762 37.8104L126.764 37.8093L126.518 37.374L126.76 37.8115L126.762 37.8104C125.239 38.6708 123.525 39.096 121.63 39.096C119.917 39.096 118.3 38.6832 116.786 37.8603C115.768 37.3071 114.9 36.6308 114.187 35.8307V56L110.978 57.556V20.202L113.935 18.202L114.045 22.3691C114.831 21.4723 115.776 20.7196 116.875 20.1113ZM116.875 20.1113L116.873 20.1122L117.118 20.548L116.876 20.1105L116.875 20.1113ZM121.395 21.706C120.096 21.706 118.927 22.0005 117.878 22.5831C116.821 23.1706 115.973 23.9603 115.329 24.9556C114.69 25.9428 114.308 27.0633 114.187 28.3265V29.7885C114.278 30.9819 114.641 32.0685 115.279 33.0562C115.956 34.0549 116.805 34.845 117.829 35.4317C118.881 35.9853 120.02 36.263 121.254 36.263C122.612 36.263 123.823 35.9394 124.9 35.2992L124.905 35.2963C126.023 34.6488 126.901 33.7849 127.546 32.7005L127.548 32.6971C128.219 31.5874 128.556 30.3615 128.556 29.008C128.556 27.6168 128.232 26.3905 127.593 25.3155L127.59 25.3105C126.942 24.1922 126.078 23.3146 124.994 22.6698L124.989 22.6666C123.946 22.0296 122.753 21.706 121.395 21.706ZM83.7433 18.826C82.0261 18.826 80.434 19.2565 78.9769 20.1175C78.0117 20.6879 77.2029 21.3986 76.5537 22.2477L76.4186 18.343L73.5143 20.343V39.72L76.7233 37.72V28.35C76.7233 27.1172 77.0158 26.015 77.5943 25.0315L77.5974 25.0261C78.1833 24.0007 78.9539 23.2028 79.9107 22.6223C80.894 22.0445 81.9608 21.7549 83.1207 21.753C84.3689 21.8132 85.2171 22.2003 85.7574 22.8436L85.7644 22.8519L85.7717 22.8599C86.372 23.5148 86.6918 24.3192 86.7213 25.3024V39.72L89.9303 37.72V28.1743C89.9906 26.974 90.312 25.9017 90.8892 24.9477C91.506 23.9798 92.2957 23.2059 93.2614 22.6206C94.2132 22.0438 95.2475 21.755 96.3747 21.753C97.6229 21.8132 98.471 22.2004 99.0114 22.8437L99.018 22.8513C99.5905 23.5055 99.8987 24.3128 99.9283 25.3024V39.72L103.137 37.72L103.137 24.825L103.137 24.8154C103.104 23.0745 102.53 21.6273 101.39 20.5208C100.244 19.3765 98.7138 18.826 96.8563 18.826C95.2367 18.826 93.7128 19.2233 92.2925 20.0152C91.2078 20.5961 90.3124 21.379 89.6093 22.3587C89.2588 21.4901 88.6692 20.751 87.8503 20.1479C86.6898 19.2619 85.3126 18.826 83.7433 18.826ZM194.433 19.4702C195.513 19.045 196.561 18.826 197.573 18.826H198.095L197.958 21.988H197.479C196.147 21.988 194.946 22.2829 193.865 22.8664C192.809 23.4536 191.963 24.2423 191.32 25.2362C190.717 26.1836 190.412 27.2635 190.412 28.491V37.72L187.203 39.72V20.343L190.109 18.343L190.246 22.5389C190.602 22.0696 191.009 21.6394 191.467 21.2487C192.384 20.4629 193.373 19.8682 194.433 19.4702ZM249.376 18.826C247.659 18.826 246.067 19.2565 244.61 20.1175C243.644 20.6879 242.836 21.3986 242.186 22.2477L242.051 18.343L239.147 20.343V38.72L242.356 36.72V28.35C242.356 27.1172 242.648 26.015 243.227 25.0315L243.23 25.0261C243.816 24.0007 244.587 23.2027 245.544 22.6222C246.527 22.0445 247.594 21.7549 248.753 21.753C250.002 21.8132 250.85 22.2003 251.39 22.8436L251.397 22.8519L251.404 22.8599C252.005 23.5148 252.325 24.3192 252.354 25.3025V38.72L255.563 36.72V28.1743C255.623 26.974 255.945 25.9018 256.522 24.9478C257.139 23.9799 257.928 23.2059 258.894 22.6206C259.846 22.0438 260.88 21.755 262.007 21.753C263.256 21.8132 264.104 22.2003 264.644 22.8436L264.651 22.8513C265.223 23.5056 265.531 24.3129 265.561 25.3025V38.72L268.77 36.72L268.77 24.825L268.77 24.8154C268.736 23.0744 268.163 21.6272 267.023 20.5207C265.877 19.3765 264.346 18.826 262.489 18.826C260.869 18.826 259.346 19.2233 257.925 20.0152C256.841 20.5961 255.945 21.379 255.242 22.3586C254.892 21.4902 254.302 20.7512 253.483 20.1481C252.323 19.262 250.946 18.826 249.376 18.826ZM203.737 20.343L206.946 18.343V37.72L203.737 39.72V20.343ZM217.973 18.343L214.764 20.343V33.2476L214.764 33.2572C214.831 34.9968 215.422 36.453 216.555 37.5866L216.561 37.592C217.706 38.7024 219.219 39.237 221.045 39.237C222.762 39.237 224.368 38.8066 225.854 37.9479L225.857 37.9462C226.828 37.3765 227.633 36.7052 228.264 35.9303L228.365 39.72L231.321 37.72V18.343L228.112 20.343V29.619C228.112 30.9144 227.804 32.0618 227.196 33.0748L227.194 33.0785C226.608 34.0741 225.836 34.8596 224.875 35.4424C223.921 36.0205 222.902 36.308 221.808 36.31C220.494 36.2496 219.576 35.8598 218.973 35.2064C218.373 34.5227 218.032 33.6534 217.973 32.5665V18.343ZM8.11249 14.821H21.8963L30.0044 28.7789H0.00438368L8.11249 14.821ZM21.8963 44H8.11249L0.00438368 30.0421H30.0044L21.8963 44ZM21.8963 13.5579H8.11249L6.00438 8H24.0044L21.8963 13.5579ZM27.4491 20.9265L23.9077 14.8209L29.9984 14.8462L27.4491 20.9265ZM6.10599 14.8212L2.55577 20.9421L0 14.8466L6.10599 14.8212Z" fill="url(#paint0_linear)"/>
<defs>
<linearGradient id="paint0_linear" x1="0" y1="28.778" x2="268.77" y2="28.7781" gradientUnits="userSpaceOnUse">
<stop stop-color="#FFC9B3"/>
<stop offset="1" stop-color="#F67D75"/>
</linearGradient>
</defs>
</svg>
