<svg width="465" height="515" viewBox="0 0 465 515" fill="none" xmlns="http://www.w3.org/2000/svg">
<path opacity="0.7" fill-rule="evenodd" clip-rule="evenodd" d="M13.0166 0H0L13.0166 23.9846L13.0166 0ZM13.0166 61.2984H0L13.0166 85.283L13.0166 61.2984ZM0 122.597H13.0166L13.0166 146.581L0 122.597ZM13.0166 183.895H0L13.0166 207.88L13.0166 183.895ZM0 245.194H13.0166L13.0166 269.178L0 245.194ZM13.0166 306.492H0L13.0166 330.477L13.0166 306.492ZM0 367.79H13.0166L13.0166 391.775L0 367.79ZM13.0166 429.089H0L13.0166 453.073L13.0166 429.089ZM0 490.387H13.0166L13.0166 514.372L0 490.387ZM63.237 0H50.2204L63.237 23.9846V0ZM50.2204 61.2984H63.237V85.283L50.2204 61.2984ZM63.237 122.597H50.2204L63.237 146.581V122.597ZM50.2204 183.895H63.237V207.88L50.2204 183.895ZM63.237 245.194H50.2204L63.237 269.178V245.194ZM50.2204 306.492H63.237V330.477L50.2204 306.492ZM63.237 367.79H50.2204L63.237 391.775V367.79ZM50.2204 429.089H63.237V453.073L50.2204 429.089ZM63.237 490.387H50.2204L63.237 514.372V490.387ZM100.441 0H113.457V23.9846L100.441 0ZM113.457 61.2984H100.441L113.457 85.283V61.2984ZM100.441 122.597H113.457V146.581L100.441 122.597ZM113.457 183.895H100.441L113.457 207.88V183.895ZM100.441 245.194H113.457V269.178L100.441 245.194ZM113.457 306.492H100.441L113.457 330.477V306.492ZM100.441 367.79H113.457V391.775L100.441 367.79ZM113.457 429.089H100.441L113.457 453.073V429.089ZM100.441 490.387H113.457V514.372L100.441 490.387ZM163.678 0H150.661L163.678 23.9846V0ZM150.661 61.2984H163.678V85.283L150.661 61.2984ZM163.678 122.597H150.661L163.678 146.581V122.597ZM150.661 183.895H163.678V207.88L150.661 183.895ZM163.678 245.194H150.661L163.678 269.178V245.194ZM150.661 306.492H163.678V330.477L150.661 306.492ZM163.678 367.79H150.661L163.678 391.775V367.79ZM150.661 429.089H163.678V453.073L150.661 429.089ZM163.678 490.387H150.661L163.678 514.372V490.387ZM200.881 0H213.898V23.9846L200.881 0ZM213.898 61.2984H200.881L213.898 85.283V61.2984ZM200.881 122.597H213.898V146.581L200.881 122.597ZM213.898 183.895H200.881L213.898 207.88V183.895ZM200.881 245.194H213.898V269.178L200.881 245.194ZM213.898 306.492H200.881L213.898 330.477V306.492ZM200.881 367.79H213.898V391.775L200.881 367.79ZM213.898 429.089H200.881L213.898 453.073V429.089ZM200.881 490.387H213.898V514.372L200.881 490.387ZM264.118 0H251.102L264.118 23.9846V0ZM251.102 61.2984H264.118V85.283L251.102 61.2984ZM264.118 122.597H251.102L264.118 146.581V122.597ZM251.102 183.895H264.118V207.88L251.102 183.895ZM264.118 245.194H251.102L264.118 269.178V245.194ZM251.102 306.492H264.118V330.477L251.102 306.492ZM264.118 367.79H251.102L264.118 391.775V367.79ZM251.102 429.089H264.118V453.073L251.102 429.089ZM264.118 490.387H251.102L264.118 514.372V490.387ZM301.322 0H314.339L314.339 23.9846L301.322 0ZM314.339 61.2984H301.322L314.339 85.283L314.339 61.2984ZM301.322 122.597H314.339L314.339 146.581L301.322 122.597ZM314.339 183.895H301.322L314.339 207.88L314.339 183.895ZM301.322 245.194H314.339L314.339 269.178L301.322 245.194ZM314.339 306.492H301.322L314.339 330.477L314.339 306.492ZM301.322 367.79H314.339L314.339 391.775L301.322 367.79ZM314.339 429.089H301.322L314.339 453.073L314.339 429.089ZM301.322 490.387H314.339L314.339 514.372L301.322 490.387ZM364.559 0H351.543L364.559 23.9846L364.559 0ZM351.543 61.2984H364.559L364.559 85.283L351.543 61.2984ZM364.559 122.597H351.543L364.559 146.581L364.559 122.597ZM351.543 183.895H364.559L364.559 207.88L351.543 183.895ZM364.559 245.194H351.543L364.559 269.178L364.559 245.194ZM351.543 306.492H364.559L364.559 330.477L351.543 306.492ZM364.559 367.79H351.543L364.559 391.775L364.559 367.79ZM351.543 429.089H364.559L364.559 453.073L351.543 429.089ZM364.559 490.387H351.543L364.559 514.372L364.559 490.387ZM401.763 0H414.78L414.78 23.9846L401.763 0ZM414.78 61.2984H401.763L414.78 85.283L414.78 61.2984ZM401.763 122.597H414.78L414.78 146.581L401.763 122.597ZM414.78 183.895H401.763L414.78 207.88L414.78 183.895ZM401.763 245.194H414.78L414.78 269.178L401.763 245.194ZM414.78 306.492H401.763L414.78 330.477L414.78 306.492ZM401.763 367.79H414.78L414.78 391.775L401.763 367.79ZM414.78 429.089H401.763L414.78 453.073L414.78 429.089ZM401.763 490.387H414.78L414.78 514.372L401.763 490.387ZM465 0H451.983L465 23.9846L465 0ZM451.983 61.2984H465L465 85.283L451.983 61.2984ZM465 122.597H451.983L465 146.581L465 122.597ZM451.983 183.895H465L465 207.88L451.983 183.895ZM465 245.194H451.983L465 269.178L465 245.194ZM451.983 306.492H465L465 330.477L451.983 306.492ZM465 367.79H451.983L465 391.775L465 367.79ZM451.983 429.089H465L465 453.073L451.983 429.089ZM465 490.387H451.983L465 514.372L465 490.387Z" fill="url(#paint0_linear)"/>
<defs>
<linearGradient id="paint0_linear" x1="0" y1="257.186" x2="465" y2="257.186" gradientUnits="userSpaceOnUse">
<stop stop-color="#FFC9B3"/>
<stop offset="1" stop-color="#F67D75"/>
</linearGradient>
</defs>
</svg>
