<svg width="49" height="45" viewBox="0 0 49 45" fill="none" xmlns="http://www.w3.org/2000/svg">
<path d="M41.4852 4.86475L26.8125 15.8867L29.541 9.3911L41.4852 4.86475Z" fill="#E17726" stroke="#E17726" stroke-width="0.608108" stroke-linecap="round" stroke-linejoin="round"/>
<path d="M7.64062 4.86475L22.1827 15.9896L19.5849 9.3911L7.64062 4.86475Z" fill="#E27625" stroke="#E27625" stroke-width="0.608108" stroke-linecap="round" stroke-linejoin="round"/>
<path d="M36.2009 30.4209L32.2969 36.4756L40.6564 38.8123L43.0511 30.5532L36.2009 30.4209Z" fill="#E27625" stroke="#E27625" stroke-width="0.608108" stroke-linecap="round" stroke-linejoin="round"/>
<path d="M6.08594 30.5532L8.46609 38.8123L16.8111 36.4756L12.9216 30.4209L6.08594 30.5532Z" fill="#E27625" stroke="#E27625" stroke-width="0.608108" stroke-linecap="round" stroke-linejoin="round"/>
<path d="M16.3612 20.1925L14.0391 23.7489L22.3115 24.131L22.0358 15.093L16.3612 20.1925Z" fill="#E27625" stroke="#E27625" stroke-width="0.608108" stroke-linecap="round" stroke-linejoin="round"/>
<path d="M32.7629 20.1926L27.0012 14.9902L26.8125 24.1311L35.085 23.749L32.7629 20.1926Z" fill="#E27625" stroke="#E27625" stroke-width="0.608108" stroke-linecap="round" stroke-linejoin="round"/>
<path d="M16.8125 36.4757L21.8195 34.0215L17.5091 30.6121L16.8125 36.4757Z" fill="#E27625" stroke="#E27625" stroke-width="0.608108" stroke-linecap="round" stroke-linejoin="round"/>
<path d="M27.3047 34.0215L32.2972 36.4757L31.6151 30.6121L27.3047 34.0215Z" fill="#E27625" stroke="#E27625" stroke-width="0.608108" stroke-linecap="round" stroke-linejoin="round"/>
<path d="M32.2972 36.4757L27.3047 34.0215L27.7111 37.3134L27.6675 38.7095L32.2972 36.4757Z" fill="#D5BFB2" stroke="#D5BFB2" stroke-width="0.608108" stroke-linecap="round" stroke-linejoin="round"/>
<path d="M16.8125 36.4757L21.4567 38.7095L21.4277 37.3134L21.8195 34.0215L16.8125 36.4757Z" fill="#D5BFB2" stroke="#D5BFB2" stroke-width="0.608108" stroke-linecap="round" stroke-linejoin="round"/>
<path d="M21.5414 28.4371L17.3906 27.2027L20.3223 25.8359L21.5414 28.4371Z" fill="#233447" stroke="#233447" stroke-width="0.608108" stroke-linecap="round" stroke-linejoin="round"/>
<path d="M27.5781 28.4371L28.7972 25.8359L31.7434 27.2027L27.5781 28.4371Z" fill="#233447" stroke="#233447" stroke-width="0.608108" stroke-linecap="round" stroke-linejoin="round"/>
<path d="M16.8114 36.4756L17.537 30.4209L12.9219 30.5532L16.8114 36.4756Z" fill="#CC6228" stroke="#CC6228" stroke-width="0.608108" stroke-linecap="round" stroke-linejoin="round"/>
<path d="M31.5859 30.4209L32.2971 36.4756L36.2011 30.5532L31.5859 30.4209Z" fill="#CC6228" stroke="#CC6228" stroke-width="0.608108" stroke-linecap="round" stroke-linejoin="round"/>
<path d="M35.085 23.749L26.8125 24.1311L27.5817 28.437L28.8008 25.8358L31.747 27.2026L35.085 23.749Z" fill="#CC6228" stroke="#CC6228" stroke-width="0.608108" stroke-linecap="round" stroke-linejoin="round"/>
<path d="M17.3916 27.2026L20.3232 25.8358L21.5423 28.437L22.3115 24.1311L14.0391 23.749L17.3916 27.2026Z" fill="#CC6228" stroke="#CC6228" stroke-width="0.608108" stroke-linecap="round" stroke-linejoin="round"/>
<path d="M14.0391 23.749L17.5077 30.612L17.3916 27.2026L14.0391 23.749Z" fill="#E27525" stroke="#E27525" stroke-width="0.608108" stroke-linecap="round" stroke-linejoin="round"/>
<path d="M31.7439 27.2026L31.6133 30.612L35.0819 23.749L31.7439 27.2026Z" fill="#E27525" stroke="#E27525" stroke-width="0.608108" stroke-linecap="round" stroke-linejoin="round"/>
<path d="M22.3122 24.1311L21.543 28.437L22.5153 33.5218L22.733 26.8205L22.3122 24.1311Z" fill="#E27525" stroke="#E27525" stroke-width="0.608108" stroke-linecap="round" stroke-linejoin="round"/>
<path d="M26.8087 24.1311L26.4023 26.8058L26.6055 33.5218L27.5779 28.437L26.8087 24.1311Z" fill="#E27525" stroke="#E27525" stroke-width="0.608108" stroke-linecap="round" stroke-linejoin="round"/>
<path d="M27.5818 28.4371L26.6094 33.5219L27.306 34.0216L31.6164 30.6121L31.747 27.2026L27.5818 28.4371Z" fill="#F5841F" stroke="#F5841F" stroke-width="0.608108" stroke-linecap="round" stroke-linejoin="round"/>
<path d="M17.3906 27.2026L17.5067 30.6121L21.8171 34.0216L22.5137 33.5219L21.5414 28.4371L17.3906 27.2026Z" fill="#F5841F" stroke="#F5841F" stroke-width="0.608108" stroke-linecap="round" stroke-linejoin="round"/>
<path d="M27.6683 38.7096L27.7118 37.3135L27.3345 36.9902H21.7905L21.4277 37.3135L21.4567 38.7096L16.8125 36.4758L18.438 37.8279L21.7324 40.1351H27.378L30.687 37.8279L32.298 36.4758L27.6683 38.7096Z" fill="#C0AC9D" stroke="#C0AC9D" stroke-width="0.608108" stroke-linecap="round" stroke-linejoin="round"/>
<path d="M27.3036 34.0214L26.607 33.5217H22.5143L21.8176 34.0214L21.4258 37.3133L21.7886 36.99H27.3326L27.71 37.3133L27.3036 34.0214Z" fill="#161616" stroke="#161616" stroke-width="0.608108" stroke-linecap="round" stroke-linejoin="round"/>
<path d="M42.1081 16.6068L43.3417 10.5227L41.484 4.86475L27.3047 15.5193L32.7616 20.1926L40.4681 22.4705L42.1661 20.4571L41.4259 19.9134L42.6015 18.8259L41.7017 18.1205L42.8772 17.2093L42.1081 16.6068Z" fill="#763E1A" stroke="#763E1A" stroke-width="0.608108" stroke-linecap="round" stroke-linejoin="round"/>
<path d="M5.78125 10.5227L7.02938 16.6068L6.23116 17.2093L7.42123 18.1205L6.52142 18.8259L7.69698 19.9134L6.95681 20.4571L8.65484 22.4705L16.3613 20.1926L21.8182 15.5193L7.63893 4.86475L5.78125 10.5227Z" fill="#763E1A" stroke="#763E1A" stroke-width="0.608108" stroke-linecap="round" stroke-linejoin="round"/>
<path d="M40.4663 22.4705L32.7598 20.1926L35.0819 23.749L31.6133 30.6121L36.1994 30.5533H43.0496L40.4663 22.4705Z" fill="#F5841F" stroke="#F5841F" stroke-width="0.608108" stroke-linecap="round" stroke-linejoin="round"/>
<path d="M16.3612 20.1926L8.65476 22.4705L6.08594 30.5533H12.9216L17.5077 30.6121L14.0391 23.749L16.3612 20.1926Z" fill="#F5841F" stroke="#F5841F" stroke-width="0.608108" stroke-linecap="round" stroke-linejoin="round"/>
<path d="M26.8096 24.1311L27.303 15.5193L29.538 9.39111H19.582L21.817 15.5193L22.3105 24.1311L22.4992 26.8352L22.5137 33.5219H26.6064L26.6209 26.8352L26.8096 24.1311Z" fill="#F5841F" stroke="#F5841F" stroke-width="0.608108" stroke-linecap="round" stroke-linejoin="round"/>
</svg>
