<svg width="193" height="70" viewBox="0 0 193 70" fill="none" xmlns="http://www.w3.org/2000/svg">
<path fill-rule="evenodd" clip-rule="evenodd" d="M3.97497 46.7616C3.97497 49.9798 3.40681 51.3048 0 51.4934V52.44H13.6305V51.4934C10.2226 51.3048 9.08626 49.9798 9.08626 46.7616V29.7222C9.08626 27.0723 15.3339 22.528 18.7417 22.528C23.8541 22.528 26.1257 27.2609 26.1257 31.4256V46.7606C26.1257 49.9787 25.7462 51.3037 22.3394 51.4924V52.4389H35.4028V51.4924C31.9949 51.3037 31.4267 49.9787 31.4267 46.7606V31.237C31.4267 23.6654 25.937 20.0678 21.7723 20.0678C16.8497 20.0678 13.6315 21.961 9.65656 24.6109L8.70892 19.6883L0.379488 24.4212L1.13739 25.1791C3.40896 25.1791 3.97711 24.7996 3.97711 29.3438V46.7616H3.97497ZM79.5123 46.9503C79.5123 50.1706 79.1328 51.3048 74.9691 51.4934V52.44H89.1678V51.4934C84.8133 51.3048 84.6236 49.9798 84.6236 46.9503V30.4801C84.6236 28.3983 88.2201 24.8007 89.5462 24.2325C93.9006 22.1507 97.1188 25.3688 97.1188 23.8541C96.928 19.4996 95.9814 19.6894 93.5222 19.3099C90.6825 18.9315 86.5167 23.8541 85.002 26.3154L84.0554 19.8791L75.7249 24.0438L76.4817 24.4233C79.5112 24.6131 79.5112 24.2336 79.5112 31.0504V46.9503H79.5123ZM102.988 46.3822C102.988 49.6003 101.851 50.9253 97.4983 51.3048V52.2514H113.4V51.3048C109.046 50.9253 108.478 48.4661 108.478 45.248C108.478 45.248 108.666 0 108.478 0C107.153 0.189744 100.526 1.89315 97.1188 2.64998L100.526 3.21813C103.177 3.97497 102.988 7.00444 102.988 12.3055V46.3822Z" fill="#8A6D67"/>
<path fill-rule="evenodd" clip-rule="evenodd" d="M131.195 46.9502L122.488 27.2619C121.163 24.2324 120.783 21.3938 125.517 21.3938V20.2575H111.317V21.3938C113.4 21.5825 115.105 22.9085 116.051 24.8006L128.735 54.3352C129.115 55.091 128.168 57.3625 127.6 58.3091C124.949 65.126 124.759 64.3681 123.624 65.5054C122.487 66.6407 120.027 66.0725 118.89 65.8828C117.943 65.5054 115.105 65.3157 114.536 66.0736C113.78 67.0202 113.78 67.7781 114.536 68.7247C115.006 69.43 115.768 69.6251 116.732 69.6712H119.462C126.231 69.3196 128.254 59.4369 130.628 53.9579L140.474 25.7493C141.041 24.0448 142.745 21.3949 144.259 21.3949V20.2585H134.795V21.3949C138.391 21.5835 139.527 23.4767 139.149 24.8017L131.195 46.9502ZM185.721 13.252C181.933 13.252 179.282 15.9019 179.282 19.4996C179.282 23.2859 181.933 25.9369 185.721 25.9369C189.506 25.9369 192.157 23.2859 192.157 19.4996C192.157 15.9019 189.315 13.252 185.721 13.252ZM185.53 14.5769C188.368 14.5769 190.264 16.6598 190.264 19.4996C190.264 22.3393 188.368 24.4222 185.721 24.4222C183.069 24.4222 181.175 22.3393 181.175 19.4996C181.175 16.6598 183.069 14.5769 185.53 14.5769ZM183.258 16.0917V22.9074H184.583V20.0677H185.341L186.855 22.9074H188.748L186.855 19.878C188.18 19.6882 188.559 19.3098 188.559 17.9848C188.559 16.6598 187.613 16.0917 185.721 16.0917H183.258ZM184.583 18.9325V17.228H185.908C186.666 17.228 187.043 17.4177 187.043 17.9859C187.043 18.5541 186.666 18.9325 186.097 18.9325H184.583ZM55.2798 52.0626C47.5185 51.4934 43.7322 43.5434 43.7322 33.5084C43.7322 27.2608 47.5185 21.0132 52.6298 20.4451C60.3921 19.6872 65.6931 24.2314 66.8295 38.2413C67.2068 44.49 62.6626 52.4399 55.2798 52.0626ZM54.1434 19.3098C44.2993 20.2564 38.4312 27.4506 38.4312 36.9163C38.4312 45.6242 45.0572 53.0092 54.1445 53.0092C64.1784 53.0092 72.5089 46.5729 72.1294 35.7811C71.751 24.8006 62.0955 18.553 54.1434 19.3098ZM151.452 46.7616C151.452 49.9797 150.885 51.3047 147.478 51.4934V52.4399H161.297V51.4934C157.89 51.3047 156.565 49.9797 156.565 46.7616V29.7221C156.565 27.0722 163.002 22.528 166.411 22.528C171.333 22.528 173.793 27.2608 173.605 31.4255V46.7605C173.605 49.9786 173.414 51.3036 170.008 51.4923V52.4389H182.881V51.4923C179.474 51.3036 178.905 49.9786 178.905 46.7605V31.2369C178.905 23.6653 173.415 20.0677 169.25 20.0677C164.328 20.0677 161.11 21.9609 157.322 24.6108L156.187 19.6882L148.046 24.4211L148.613 25.179C150.885 25.179 151.643 24.7995 151.452 29.3437V46.7616Z" fill="#8A6D67"/>
</svg>
