<svg width="194" height="45" viewBox="0 0 194 45" fill="none" xmlns="http://www.w3.org/2000/svg">
<g clip-path="url(#clip0)">
<path d="M13.161 0.0612282C14.8992 -0.0306085 16.6064 0.0306122 18.3447 0L31.5677 34.8061C29.9536 34.8061 28.3085 34.7755 26.6944 34.8367C25.4218 31.4388 24.3043 28.0102 23.0938 24.6122H8.47395C7.29443 28.0102 6.11491 31.4082 4.90435 34.8061H-0.0310059V34.7755C4.40771 23.2041 8.84643 11.6327 13.161 0.0612282ZM10.026 20.4184H21.5728C19.6483 15.3367 17.786 10.2551 15.7994 5.17347C13.7508 10.1939 11.9815 15.3367 10.026 20.4184ZM36.41 0H40.9418V34.8061H36.41C36.41 23.2041 36.441 11.602 36.41 0ZM74.5271 0H79.0899C79.0279 4.80612 79.2451 9.61224 78.9037 14.3878C80.5799 12 83.3424 10.3469 86.2912 10.2245C88.8986 10.102 91.7232 10.8673 93.4925 12.8571C95.2928 14.8469 95.9136 17.602 95.9136 20.2041V34.8061H91.3818V20.8469C91.3507 18.9796 90.9783 16.8673 89.4883 15.5816C87.9363 14.3265 85.6704 14.1122 83.777 14.602C80.8592 15.4898 79.1831 18.551 79.121 21.4592C79.0899 25.9286 79.121 30.3673 79.121 34.8367H74.5891C74.496 23.2041 74.5271 11.602 74.5271 0ZM126.395 0.79592H130.958C130.927 5.32653 131.082 9.85714 130.772 14.3878C132.075 12.6735 133.876 11.2959 135.986 10.6837C139.618 9.5204 143.808 10.5306 146.571 13.1326C151.755 17.8163 152.096 26.6326 147.409 31.7755C145.081 34.4388 141.418 35.9694 137.849 35.4796C135.024 35.2041 132.479 33.6122 130.772 31.4082V34.7755H126.426C126.395 23.449 126.395 12.1224 126.395 0.79592ZM136.949 14.4796C134.527 14.9388 132.51 16.7449 131.641 19.0102C130.709 21.4286 130.678 24.1837 131.579 26.602C132.386 28.8061 134.248 30.6428 136.576 31.1939C139.121 31.8673 142.008 31.0714 143.746 29.1122C145.578 27.1224 146.136 24.3061 145.857 21.7347C145.671 19.5 144.677 17.2347 142.846 15.8265C141.201 14.5408 138.997 14.0816 136.949 14.4796ZM183.757 3.70408H188.289V10.9898H194.031V15.0612H188.289V27.2449C188.289 28.3469 188.475 29.5714 189.437 30.2755C190.741 31.2245 192.51 30.949 194.031 30.7959V34.8367C191.517 35.1428 188.754 35.1428 186.581 33.6735C184.657 32.4184 183.788 30.0612 183.788 27.8571C183.757 23.602 183.788 19.3469 183.788 15.0612H179.535V10.9898H183.788C183.757 8.54081 183.726 6.12245 183.757 3.70408ZM57.1136 10.3775C60.9005 9.64285 64.9047 11.2041 67.3568 14.0816C72.0749 19.3775 71.5472 28.4388 66.0221 33C62.6077 35.9694 57.2067 36.4286 53.3888 33.949C52.2714 33.3061 51.4954 32.3265 50.6263 31.4082C50.9677 35.9388 50.7815 40.4694 50.8435 44.9694H46.2807V10.9592H50.6263C50.6263 12.0918 50.6263 13.2245 50.6573 14.3571C52.1783 12.3061 54.5063 10.8061 57.1136 10.3775ZM56.8653 14.4796C54.5994 14.9082 52.6439 16.5306 51.7127 18.5816C50.6573 20.8776 50.5642 23.5408 51.2471 25.9592C51.8989 28.3469 53.7613 30.4286 56.2135 31.1327C58.7587 31.9286 61.7075 31.1939 63.5389 29.2653C65.4634 27.2755 66.0531 24.3673 65.7738 21.7041C65.5565 19.3163 64.4391 16.9286 62.3904 15.551C60.8074 14.4796 58.7587 14.1122 56.8653 14.4796ZM104.605 11.6633C107.212 10.1633 110.409 9.94897 113.327 10.5C115.686 10.9592 117.952 12.2449 119.287 14.2959C120.559 16.2245 121.025 18.551 121.056 20.8163V34.8061H116.71C116.71 33.6735 116.71 32.5408 116.679 31.4388C115.065 33.6122 112.644 35.2653 109.882 35.5408C107.616 35.7245 105.195 35.3571 103.239 34.102C99.2039 31.6531 98.552 25.1939 102.184 22.102C103.86 20.6327 106.095 19.898 108.299 19.6224C111.123 19.2857 114.134 19.5306 116.71 20.8163C116.772 19.1939 116.524 17.449 115.407 16.1939C113.637 14.1429 110.471 13.8061 107.988 14.6633C106.467 15.1837 105.412 16.4694 104.605 17.7857C103.208 17.2959 101.811 16.8673 100.414 16.3469C101.346 14.449 102.711 12.7041 104.605 11.6633ZM108.764 23.449C107.771 23.6327 106.747 24 105.971 24.6735C104.325 25.9898 104.015 28.7449 105.567 30.2449C106.871 31.4388 108.826 31.6531 110.533 31.4388C113.731 30.8265 116.648 27.8571 116.431 24.551C114.165 23.2347 111.34 23.1122 108.764 23.449ZM163.084 10.5918C167.306 9.55102 172.272 10.6837 175.066 14.1122C177.3 16.7755 178.076 20.3571 177.89 23.7245H158.956C159.08 25.898 159.856 28.1326 161.532 29.6326C164.108 32.0204 168.454 32.051 171.186 29.8775C172.179 29.1122 172.893 28.0714 173.42 26.9694C174.786 27.4898 176.152 28.102 177.487 28.6531C176.493 30.7959 174.91 32.7245 172.831 33.9184C170.068 35.5408 166.654 35.9388 163.55 35.2653C160.632 34.6531 157.994 32.8163 156.38 30.3367C153.741 26.3265 153.555 20.9694 155.666 16.7143C157.124 13.7449 159.856 11.3878 163.084 10.5918ZM162.401 15.3673C160.756 16.4082 159.732 18.1837 159.235 20.0204H173.11C172.862 17.8775 171.496 15.8878 169.478 15.0306C167.244 14.051 164.481 14.051 162.401 15.3673Z" fill="#8A6D67"/>
</g>
<defs>
<clipPath id="clip0">
<rect width="194" height="45" fill="white"/>
</clipPath>
</defs>
</svg>
