<svg width="214" height="48" viewBox="0 0 214 48" fill="none" xmlns="http://www.w3.org/2000/svg">
<path fill-rule="evenodd" clip-rule="evenodd" d="M10.4496 22.4609H30.7621L29.2717 28.5347H8.91112C7.42069 34.803 8.34492 41.1377 14.1282 41.1377H26.1798L24.6894 47.2127H12.2958C8.06811 47.2127 4.89621 46.8729 2.1624 44.1517C-0.730397 41.2829 -0.364364 32.6663 1.18555 26.3488C4.21447 14.0055 11.8154 4.22217 23.0411 4.22217H35.238L33.7476 10.2972H21.6971C16.3999 10.296 12.0887 16.9704 10.4496 22.4609Z" fill="#8A6D67"/>
<path fill-rule="evenodd" clip-rule="evenodd" d="M71.8207 25.6577C73.8716 17.2984 79.3427 12.8282 87.8472 12.8282H97.7118L96.3998 18.1735H87.4583C83.1334 18.1735 81.1076 18.9032 79.9603 22.9845H95.2193L93.9073 28.3297H78.6483C77.7573 32.5562 79.3747 33.0927 83.7488 33.0927H92.7383L91.4263 38.4368H81.5606C73.0572 38.4368 69.7572 34.0627 71.8207 25.6577ZM113.402 12.8282C120.985 12.8282 123.462 15.4042 121.791 22.2067L117.808 38.4368H111.055L114.835 23.0325C115.707 19.4855 115.325 18.464 111.486 18.464H106.044L101.141 38.4356H94.3854L100.671 12.8271H113.402V12.8282ZM135.975 33.0927C138.405 33.0927 139.788 32.411 140.229 30.6128C140.671 28.8147 139.634 28.0861 137.203 28.0861H131.372C125.152 28.0861 122.838 26.8221 124.305 20.8455C125.653 15.3539 129.14 12.8271 135.312 12.8271H149.84L148.53 18.1723H136.575C133.514 18.1723 131.864 18.3668 131.339 20.5058C130.945 22.1094 131.799 22.79 133.983 22.79H140.107C145.744 22.79 148.041 25.5101 146.837 30.4184C145.655 35.2306 141.904 38.4368 137.871 38.4368H120.425L121.736 33.0927H135.975ZM147.634 38.4368L153.918 12.8282H161.015L154.729 38.4368H147.634ZM170.342 38.8749C161.981 38.8749 158.034 33.5777 159.977 25.6577C161.934 17.6873 168.483 12.3901 176.84 12.3901C185.151 12.3901 189.099 17.6873 187.141 25.6577C185.198 33.5777 178.749 38.8749 170.342 38.8749ZM171.64 33.3832C175.625 33.3832 178.831 30.6128 180.05 25.6577C181.264 20.7002 179.466 17.931 175.434 17.931C171.498 17.931 168.292 20.7002 167.074 25.6577C165.856 30.6128 167.654 33.3832 171.64 33.3832ZM205.115 12.8282C212.695 12.8282 215.173 15.4042 213.504 22.2067L209.521 38.4368H202.765L206.548 23.0325C207.417 19.4855 207.038 18.464 203.197 18.464H197.754L192.853 38.4356H186.099L192.384 12.8271H205.115V12.8282ZM163.014 4.12354H155.927L154.438 10.1997H161.524L163.014 4.12354Z" fill="#8A6D67"/>
<path fill-rule="evenodd" clip-rule="evenodd" d="M208.875 41.1157L207.356 47.1896H28.0568L29.5415 41.1157H208.875ZM49.5875 12.8283L42.0541 20.5539L38.459 12.8271H30.6351L36.9617 25.6566L24.3496 38.4357H32.2216L39.4896 31.0007L43.0584 38.4357H50.9304L44.701 25.8018L52.3831 17.9287L58.6228 17.9299L55.5573 30.4173C54.2705 35.6653 56.4083 38.4357 61.3166 38.4357H67.4888L68.7413 33.333H65.9709C62.5211 33.333 61.9674 31.8277 62.8379 28.2794L65.3784 17.9299H72.5218L73.7743 12.8271H49.5875V12.8283Z" fill="#8A6D67"/>
<path fill-rule="evenodd" clip-rule="evenodd" d="M48.6702 0.29969L49.6654 10.3233H52.6829L56.5994 3.27027L57.0901 10.3233H60.2243L66.2913 0H63.49L59.4121 7.22799L58.926 0H56.0263L51.968 7.22799L51.5013 0H46.0268L44.0148 8.05157H41.8209C40.391 8.05157 40.1268 7.69927 40.4688 6.32779L42.0496 0.00114322H39.3261L37.6915 6.54397C37.0167 9.24689 38.0793 10.3255 41.0373 10.3255H46.1698L48.6702 0.29969Z" fill="#8A6D67"/>
</svg>
