<svg width="210" height="50" viewBox="0 0 210 50" fill="none" xmlns="http://www.w3.org/2000/svg">
<g clip-path="url(#clip0)">
<path d="M28.9567 8.13651C28.6767 8.57632 28.4667 8.99299 28.4667 9.06243C28.4667 9.10873 28.1867 9.59484 27.8367 10.1504C26.88 11.6087 26.67 11.9791 26.2733 12.7893L25.9233 13.5532H20.3467C14.8633 13.5532 14.77 13.5532 14.3033 14.0624C14.0467 14.3634 13.7667 14.7569 13.6733 14.9421C13.6033 15.1272 13.3233 15.5902 13.0667 15.9837C12.81 16.3541 12.53 16.8402 12.4367 17.0254C12.3433 17.2106 11.76 18.206 11.1533 19.2245C10.5233 20.243 9.91667 21.2615 9.8 21.4698C9.66 21.7013 9.45 22.0717 9.33333 22.28C8.86667 23.0671 8.82 23.2754 8.96 23.6226C9.05333 23.9004 9.8 23.9467 13.3467 23.9467C19.3433 23.9467 19.3667 23.9467 19.3667 24.1782C19.3667 24.2939 18.6667 25.5439 17.8267 26.9791C16.8467 28.6226 16.0767 29.6411 15.7267 29.7569C15.4467 29.8726 12.9733 29.8958 10.2667 29.8263L5.34333 29.6874L4.66667 30.3356C4.27 30.706 3.96667 31.1226 3.96667 31.2615C3.96667 31.4235 3.66333 31.9791 3.26667 32.4884C2.89333 33.0208 2.56667 33.5069 2.56667 33.5532C2.56667 33.6226 1.98333 34.6411 1.28333 35.8217C0.583333 37.0022 0 38.0902 0 38.2291C0 38.368 0.186667 38.5532 0.42 38.5995C1.05 38.7615 10.9433 38.5995 11.2233 38.4374C11.34 38.3448 11.5733 38.0439 11.69 37.7893C11.8067 37.5115 12.11 36.956 12.3667 36.5856C12.6233 36.1921 12.9033 35.7291 12.9967 35.5439C13.0667 35.3587 13.4167 34.78 13.7433 34.2708C14.6533 32.8587 14.8633 32.5115 15.4467 31.3078L15.9833 30.2198L18.0833 30.1967C25.06 30.1504 25.13 30.1504 26.2967 30.706C27.9533 31.4698 30.2633 33.2291 31.9667 35.0115C33.6467 36.7476 34.2067 37.4189 37.6133 41.7245L38.3833 42.6967H44.8467C48.3933 42.7198 51.3567 42.6272 51.4267 42.5347C51.4967 42.4189 51.2633 42.0485 50.9133 41.6782C50.5633 41.3078 50.0733 40.7291 49.8167 40.405C49.3733 39.8032 47.1333 37.2337 46.48 36.5624C45.57 35.6365 41.3 30.5902 41.3 30.4513C41.3 30.3587 42.7 30.2198 44.4033 30.1504C46.0833 30.081 47.8567 29.8958 48.3 29.7337C50.0967 29.1319 51.9867 28.0671 53.13 27.0254C54.3667 25.8911 56.4667 23.0208 56.4667 22.4652C56.4667 22.28 56.5833 22.0717 56.7 22.0022C56.84 21.9097 57.4467 21.0069 58.0533 19.9652C58.66 18.9235 59.2667 17.905 59.3833 17.6735C59.5233 17.4652 59.85 16.8634 60.13 16.3541C60.41 15.8448 60.9467 14.9652 61.2967 14.4328C62.02 13.3217 62.5567 12.1874 62.9533 11.03C63.3733 9.82632 62.9067 8.36799 61.95 7.76614C61.2033 7.30317 60.8067 7.30317 45.3133 7.30317H29.4467L28.9567 8.13651ZM50.6567 14.2476C51.2633 14.5717 51.2167 15.243 50.5167 16.655C49.91 17.8819 49.77 18.1134 48.72 19.7569C48.3467 20.3124 48.0667 20.8448 48.0667 20.9606C48.0667 21.331 45.8267 23.0902 44.9867 23.3911C44.4033 23.5763 41.1833 23.6458 33.2267 23.6226C19.18 23.5763 20.44 23.6458 20.6267 22.905C20.72 22.581 21.07 21.8865 21.42 21.3541C22.26 20.0578 22.4 19.8032 23.1933 18.368C24.64 15.706 25.8533 14.0624 26.4133 13.9698C27.8367 13.7847 50.2367 14.0393 50.6567 14.2476ZM74.62 7.69669C73.8733 8.55317 71.19 13.3448 71.3067 13.6226C71.4 13.8541 74.1067 13.9235 84.3733 13.9698C92.8433 13.993 97.4867 14.0856 97.7667 14.2476C98.3967 14.5717 98.35 14.8263 97.4167 16.4467C96.9733 17.2106 96.5067 18.0439 96.39 18.2985C96.2733 18.5532 95.69 19.3171 95.0833 19.9884L93.9867 21.1921H82.8333C72.5433 21.1921 71.5867 21.2152 70.3267 21.6319C66.4067 22.8819 63.7 25.3819 61.3667 29.8726C61.2267 30.1272 60.9233 30.6365 60.6667 31.03C60.41 31.4004 60.1067 31.9328 59.99 32.2106C59.8733 32.4652 59.3367 33.3911 58.8233 34.2476C58.2867 35.0809 57.8667 35.8217 57.8667 35.8911C57.8667 35.9374 57.5633 36.4467 57.1667 37.0022C56.7933 37.581 56.4667 38.0902 56.4667 38.1828C56.4667 38.2522 56.1867 38.6921 55.86 39.1782C55.5333 39.6643 55.16 40.2661 55.0433 40.5208C54.9267 40.7754 54.6233 41.2847 54.39 41.6782C54.1567 42.0485 54.0167 42.4421 54.0633 42.5578C54.2033 42.7661 90.5567 42.7661 90.93 42.5347C91.07 42.4421 91.3267 42.0948 91.4667 41.7939C91.5833 41.4698 91.91 40.8911 92.1667 40.5208C92.4233 40.1272 92.7267 39.618 92.8667 39.3634C93.3333 38.5069 93.7067 37.905 94.01 37.5578C94.1733 37.3495 94.2667 36.956 94.22 36.655L94.15 36.1226L80.9667 36.0995C66.3833 36.0532 67.2 36.1689 68.0633 34.5717C68.2967 34.155 68.7633 33.3911 69.09 32.8819C69.4167 32.3726 69.7667 31.7939 69.8367 31.6087C69.93 31.4235 70.21 30.9374 70.4667 30.5671C70.7233 30.1735 71.0033 29.7106 71.0733 29.5254C71.1667 29.3402 71.4933 28.9467 71.82 28.6458C72.4033 28.1365 72.4267 28.1365 81.41 28.1134C95.5267 28.0902 94.8967 28.1597 99.0033 26.0069C100.637 25.1504 102.597 22.9745 104.347 20.0347C105.303 18.4374 106.167 16.9791 106.237 16.7939C106.33 16.6087 106.61 16.1226 106.867 15.7522C107.123 15.3587 107.427 14.8495 107.567 14.5948C107.707 14.3402 108.08 13.6689 108.383 13.1134C108.85 12.3032 108.967 11.7708 108.967 10.5671C108.943 8.92354 108.733 8.43743 107.637 7.71984C107.03 7.32632 106.073 7.30317 90.9767 7.30317C76.02 7.30317 74.9467 7.32632 74.62 7.69669ZM121.333 7.69669C118.417 8.96984 117.857 9.34021 115.803 11.1921C115.22 11.7245 113.167 14.6874 113.167 15.0115C113.167 15.1041 112.863 15.6134 112.467 16.1458C112.093 16.655 111.767 17.1874 111.767 17.28C111.767 17.3726 111.487 17.905 111.137 18.4606C110.273 19.78 110.017 20.1967 109.41 21.3078C109.153 21.8171 108.617 22.6735 108.243 23.2291C107.87 23.7847 107.567 24.2708 107.567 24.3634C107.567 24.4328 107.263 24.9421 106.867 25.5208C106.493 26.0763 106.167 26.6319 106.167 26.7476C106.167 26.8634 105.887 27.3495 105.56 27.8356C105.233 28.3217 104.86 28.9235 104.743 29.1782C104.627 29.4328 104.323 29.9421 104.067 30.3356C103.81 30.706 103.507 31.2384 103.367 31.493C103.227 31.7476 102.923 32.2569 102.667 32.6504C102.41 33.0208 102.13 33.5069 102.037 33.6921C101.967 33.8772 101.617 34.456 101.29 34.9652C100.24 36.5856 99.9367 37.2569 99.6333 38.53C99.2833 39.9884 99.5867 41.2152 100.497 42.0717L101.08 42.6041L114.987 42.6735C127.75 42.743 129.033 42.7198 130.2 42.3263C130.9 42.118 131.647 41.8171 131.833 41.6782C132.02 41.5624 132.557 41.2615 133 41.03C134.33 40.3587 137.177 37.4884 137.737 36.2384C137.83 36.0532 138.11 35.5671 138.367 35.1967C138.623 34.8032 138.927 34.2939 139.067 34.0393C139.207 33.7847 139.51 33.2522 139.767 32.8819C140.023 32.4884 140.303 32.0254 140.397 31.8402C140.49 31.655 141.003 30.7522 141.563 29.8495C142.123 28.9467 142.567 28.0902 142.567 27.9745C142.567 27.8587 142.683 27.6504 142.823 27.5115C143.173 27.1643 143.967 24.9652 143.967 24.3634C143.967 23.5995 143.057 22.1643 142.287 21.7245C141.563 21.331 140.7 21.3078 130.457 21.2615C124.39 21.2384 119.35 21.1689 119.28 21.0995C119.163 20.9606 119.42 20.3587 119.91 19.5717C120.027 19.3865 120.633 18.4143 121.24 17.3958C122.547 15.243 123.247 14.5485 124.39 14.2476C124.857 14.1087 130.083 13.993 136.22 13.9698C144.853 13.9235 147.257 13.9698 147.35 14.1782C147.397 14.3402 147.14 14.9421 146.767 15.4976C146.37 16.0532 146.067 16.5856 146.067 16.6782C146.067 16.7708 145.857 17.0948 145.6 17.4189C145.04 18.1365 144.993 18.7847 145.507 18.9698C145.717 19.0393 146.883 19.1087 148.143 19.1087C150.617 19.1087 151.037 18.9004 151.643 17.4884C151.923 16.8634 152.11 16.5624 153.207 14.9421L153.93 13.9004H157.22C159.81 13.9004 160.557 13.9698 160.65 14.2245C160.72 14.3865 160.65 14.6874 160.487 14.8726C160.183 15.243 159.74 15.9606 159.437 16.5624C159.343 16.7476 158.503 18.206 157.547 19.8032C155.307 23.53 155.26 23.6458 156.03 23.8541C156.357 23.9235 158.597 23.993 160.977 23.9698C166.367 23.9467 166.133 23.9235 166.133 24.1782C166.133 24.3171 165.713 25.1041 165.177 25.9837C163.823 28.2291 163.847 28.1828 163.427 28.9004C162.773 30.1041 162.913 30.1504 167.72 30.1504L172.13 30.1735L173.507 30.9143C176.05 32.3263 177.497 33.5763 181.16 37.6272C181.44 37.9513 182.443 39.2245 183.377 40.4513L185.08 42.7198H191.707C197.447 42.7198 198.333 42.6735 198.333 42.3726C198.333 42.1874 198.24 42.0254 198.147 42.0254C198.03 42.0254 196.63 40.4976 194.997 38.5995C193.387 36.7245 191.777 34.8726 191.403 34.4791C191.053 34.0856 190.237 33.1134 189.583 32.3495C188.953 31.5624 188.347 30.9143 188.253 30.9143C188.137 30.9143 188.067 30.7522 188.067 30.5671C188.067 30.3819 188.137 30.2198 188.253 30.1967C188.347 30.1967 189.677 30.1504 191.217 30.1041C194.157 30.0347 195.813 29.6874 197.167 28.8772C197.61 28.5995 198.217 28.2754 198.52 28.1365C199.127 27.8819 202.067 24.9652 202.067 24.618C202.067 24.5022 202.393 23.9235 202.767 23.3448C203.163 22.7893 203.467 22.2337 203.467 22.1411C203.467 22.0485 203.793 21.5161 204.167 21.0069C204.563 20.4745 204.867 19.9652 204.867 19.8958C204.867 19.8032 205.333 18.9698 205.917 18.0208C206.5 17.0948 206.967 16.2615 206.967 16.2152C206.967 16.1689 207.247 15.6828 207.62 15.1272C207.97 14.5717 208.39 13.9235 208.553 13.6689C208.717 13.4143 208.95 12.9282 209.09 12.5578C209.23 12.2106 209.487 11.9328 209.673 11.9328C209.93 11.9328 210 11.5393 210 10.1967C210 9.13188 209.907 8.46058 209.743 8.46058C209.603 8.46058 209.16 8.20595 208.74 7.88188L207.97 7.30317H176.283L175.583 8.39114C175.21 9.01614 174.813 9.71058 174.697 9.96521C174.603 10.2198 174.277 10.7291 173.997 11.1226C173.693 11.493 173.273 12.2106 173.017 12.6735C172.62 13.4374 172.457 13.5532 171.733 13.5532C168.63 13.5995 161.84 13.53 161.77 13.4837C161.677 13.3911 162.213 12.3958 162.867 11.3541C163.123 10.9606 163.427 10.4513 163.567 10.1967C163.707 9.94206 164.057 9.31706 164.383 8.8078C164.687 8.29854 164.943 7.74299 164.967 7.58095C164.967 7.37262 164.057 7.30317 161.187 7.30317H157.383L156.683 8.48373C156.31 9.15503 155.727 10.1272 155.4 10.6597C155.073 11.1921 154.56 12.0485 154.257 12.581C153.72 13.4837 153.65 13.5069 152.39 13.5995C150.593 13.7152 148.4 13.53 148.4 13.2985C148.4 13.1134 149.147 11.8402 150.453 9.73373C150.593 9.4791 150.827 9.03929 150.943 8.76151C151.083 8.50688 151.293 8.20595 151.41 8.11336C151.55 8.04391 151.667 7.81243 151.667 7.62725C151.667 7.11799 122.523 7.16429 121.333 7.69669ZM197.447 14.2708C198.03 14.5717 197.96 15.5671 197.283 16.6782C196.957 17.1874 196.583 17.8587 196.443 18.1828C196.303 18.5069 195.953 19.0624 195.673 19.456C195.37 19.8263 195.067 20.3819 194.973 20.6597C194.717 21.4467 192.547 23.206 191.59 23.4143C190.237 23.6921 167.44 23.7152 167.253 23.4143C167.16 23.2754 167.277 22.8587 167.533 22.4652C168.35 21.1226 168.933 20.1504 169.167 19.6874C169.307 19.4328 169.61 18.9004 169.867 18.53C170.123 18.1365 170.427 17.6272 170.543 17.3726C170.66 17.118 171.01 16.5393 171.337 16.0763C171.663 15.5902 171.99 15.0115 172.083 14.7337C172.223 14.2939 172.527 14.155 173.693 13.9698C174.883 13.7847 197.073 14.0856 197.447 14.2708ZM132.627 28.5069C132.743 28.7847 132.393 29.5717 131.483 31.0995C131.367 31.3078 130.9 32.0948 130.457 32.8356C129.407 34.6874 128.287 35.706 127.143 35.8911C125.883 36.0995 112.233 36.1226 111.603 35.9143C111.183 35.7754 111.067 35.5671 111.067 34.9884C111.067 34.5485 111.23 34.0856 111.417 33.9235C111.603 33.7615 111.767 33.53 111.767 33.4143C111.767 33.2754 112.093 32.7198 112.467 32.1411C112.863 31.5856 113.167 31.0532 113.167 30.9606C113.167 30.868 113.54 30.2198 114.007 29.5254L114.823 28.2522L123.153 28.1365C127.727 28.0671 131.717 28.0671 131.997 28.1134C132.277 28.1365 132.557 28.3217 132.627 28.5069Z" fill="#8A6D67"/>
<path d="M149.753 23.692C149.053 23.7845 148.657 24.2707 147.28 26.7475C147 27.2799 146.813 27.7892 146.883 27.9281C146.953 28.0438 148.027 28.1133 149.217 28.0901C151.317 28.067 151.457 28.0207 151.83 27.4651C152.437 26.5623 152.787 25.9836 153.043 25.4281C153.16 25.1734 153.393 24.8725 153.51 24.7799C153.79 24.6179 153.86 23.7614 153.603 23.7151C153.137 23.6457 150.313 23.6225 149.753 23.692ZM141.727 39.1781C141.097 40.1271 140.747 40.6827 140.49 41.2614C140.373 41.516 140.14 41.817 140.023 41.9095C139.883 41.979 139.767 42.2105 139.767 42.3957C139.767 42.8355 144.527 42.8818 144.76 42.4188C144.83 42.2799 145.11 41.817 145.367 41.4466C145.623 41.0531 145.927 40.5207 146.043 40.2429C146.16 39.9883 146.393 39.6873 146.51 39.5947C146.65 39.5253 146.767 39.2475 146.767 38.9929C146.767 38.5994 146.58 38.5531 144.457 38.5531C142.193 38.5531 142.147 38.5762 141.727 39.1781Z" fill="#8A6D67"/>
</g>
<defs>
<clipPath id="clip0">
<rect width="210" height="50" fill="white"/>
</clipPath>
</defs>
</svg>
