<svg width="216" height="48" viewBox="0 0 216 48" fill="none" xmlns="http://www.w3.org/2000/svg">
<g clip-path="url(#clip0)">
<path fill-rule="evenodd" clip-rule="evenodd" d="M58.2415 11.3253H78.0747V47.9802H58.2415V11.3253ZM81.5743 -0.165894H101.159V47.9802H81.5743V-0.165894Z" fill="#8A6D67"/>
<path fill-rule="evenodd" clip-rule="evenodd" d="M105.575 8.64101L125.492 0.0869141V13.0038H129.325V19.8818H125.492V47.9804H105.575V19.8818H102.408V13.0038H105.575V8.64101Z" fill="#8A6D67"/>
<path fill-rule="evenodd" clip-rule="evenodd" d="M67.7418 -0.332764C72.0751 -0.332764 75.5747 2.01555 75.5747 4.86805C75.5747 7.80401 72.074 10.1523 67.7418 10.1523C63.4085 10.1523 59.8248 7.80401 59.8248 4.86805C59.8248 2.01555 63.4085 -0.332764 67.7418 -0.332764ZM9.40845 -0.165829H21.3259L30.1584 12.0811L37.5755 -0.165829H53.5753V47.9803H34.1578V29.3607L25.9091 41.0188L17.4083 29.3607V47.9803H9.40845V-0.165829Z" fill="#8A6D67"/>
<path fill-rule="evenodd" clip-rule="evenodd" d="M177.407 11.3254H196.825V14.2614C198.176 12.9121 200.005 12.158 201.909 12.1646C202.895 12.1606 203.871 12.3531 204.783 12.731C205.695 13.1089 206.523 13.6647 207.22 14.3665C207.917 15.0682 208.469 15.9019 208.844 16.8194C209.22 17.737 209.411 18.7203 209.407 19.7126C209.407 23.8227 206.073 27.1794 201.909 27.1794C200.022 27.1772 198.207 26.4581 196.825 25.1661V47.9804H177.407V11.3254ZM130.574 11.3254H148.908C149.909 11.3254 150.826 12.0811 150.826 13.1718V35.65C150.826 36.9077 151.158 37.5799 151.824 37.5799C152.492 37.6634 153.159 36.9923 153.159 35.65V13.2542C153.159 12.1646 153.741 11.3254 154.824 11.3254H173.073V47.9804H154.99C153.49 47.9804 152.989 46.1363 152.822 43.1168C151.323 45.5486 148.99 47.73 143.323 47.8969C138.072 48.0639 130.572 45.1302 130.572 37.1615V11.3254H130.574Z" fill="#8A6D67"/>
</g>
<defs>
<clipPath id="clip0">
<rect width="216" height="48" fill="white"/>
</clipPath>
</defs>
</svg>
