<svg width="188" height="35" viewBox="0 0 188 35" fill="none" xmlns="http://www.w3.org/2000/svg">
<path d="M31.851 17.5911C31.851 14.8714 31.0695 12.2142 29.569 9.93215L35.1022 4.39893L30.9444 0.241211L25.4112 5.77443C20.7533 2.7421 14.7199 2.7421 10.062 5.77443L4.56007 0.241211L0.402344 4.39893L5.93556 9.93215C2.90323 14.59 2.90323 20.6234 5.93556 25.2813L0.402344 30.8145L4.56007 34.9723L10.0933 29.4391C14.7512 32.4714 20.7846 32.4714 25.4425 29.4391L30.9757 34.9723L35.1334 30.8145L29.6002 25.2813C31.0695 22.9993 31.851 20.3421 31.851 17.5911ZM9.53059 17.5911C9.53059 14.2462 11.5626 11.2139 14.6887 9.96341C17.8148 8.71297 21.3785 9.46323 23.6919 11.8703C26.0052 14.2774 26.6617 17.8725 25.2862 20.936L19.8468 15.4966L15.689 19.6543L21.1285 25.0938C18.5963 26.2504 15.6265 26.0003 13.2819 24.4998C10.9373 22.9993 9.53059 20.4046 9.53059 17.5911Z" fill="url(#paint0_linear)"/>
<path d="M61.7364 17.7789C61.7364 21.1864 60.0171 24.25 56.9535 25.6567L58.579 27.7825L55.2341 29.4706L52.9833 26.5008H52.9208C47.3876 26.5008 44.1051 22.4681 44.1051 17.7789C44.1051 13.0898 47.3876 9.05711 52.9208 9.05711C58.454 9.05711 61.7364 13.0898 61.7364 17.7789ZM52.9208 23.0621C56.0469 23.0621 57.7663 20.6237 57.7663 17.7477C57.7663 14.8717 56.0781 12.4333 52.9208 12.4333C49.7634 12.4333 48.0753 14.8717 48.0753 17.7477C48.0753 20.655 49.7634 23.0621 52.9208 23.0621ZM67.8949 26.3132C65.1751 26.3132 63.7059 24.6251 63.7059 21.6553V14.6216H67.3634V20.8738C67.3634 22.4368 67.8949 23.2809 69.2391 23.2809C70.7709 23.2809 71.4274 22.2805 71.4274 20.7487V14.6528H75.0224V26.0006H71.4274V24.375C70.8021 25.5942 69.6142 26.3132 67.8949 26.3132ZM82.5563 26.3132C79.1489 26.3132 77.2107 23.7498 77.2107 20.3423C77.2107 16.9349 79.3052 14.3715 82.6188 14.3715C84.2757 14.3715 85.5574 15.153 86.1826 16.3097V14.6841H89.7776V26.0319H86.1826V24.4375C85.5261 25.5317 84.1194 26.3132 82.5563 26.3132ZM83.5879 23.3434C85.3698 23.3434 86.3076 21.9992 86.3076 20.3423C86.3076 18.7168 85.4011 17.3725 83.5879 17.3725C81.9311 17.3725 80.8682 18.623 80.8682 20.3423C80.8682 22.0617 81.8998 23.3434 83.5879 23.3434ZM92.7162 14.6528H96.3112V16.3097C96.9677 15.028 98.2806 14.3402 100 14.3402C102.751 14.3402 104.158 15.9033 104.158 18.9669V26.0006H100.531V20.1548C100.531 18.2479 100 17.3725 98.5307 17.3725C97.0927 17.3725 96.3424 18.3104 96.3424 20.061V26.0006H92.7474V14.6528H92.7162ZM112.973 23.2184C113.411 23.2184 113.88 23.1871 114.224 23.1558V26.0319C113.692 26.1256 112.848 26.2194 111.817 26.2194C110.129 26.2194 107.784 25.8443 107.784 22.0617V17.5289H106.002V14.6841H107.784V11.3079H111.379V14.6841H113.942V17.5289H111.379V21.3114C111.41 22.937 112.098 23.2184 112.973 23.2184ZM120.851 26.3757C117.537 26.3757 115.474 24.7502 115.474 22.5931H119.069C119.069 23.3747 119.82 23.9374 120.945 23.9374C121.726 23.9374 122.258 23.531 122.258 22.8745C122.258 22.4368 122.039 22.0617 121.445 21.9054L118.663 21.1864C116.787 20.7175 115.818 19.5296 115.818 17.904C115.818 15.7782 117.694 14.309 120.664 14.309C123.977 14.309 125.728 15.6844 125.728 17.8415H122.164C122.164 17.0287 121.57 16.591 120.601 16.591C119.82 16.591 119.319 16.9662 119.319 17.5289C119.319 18.0603 119.663 18.3729 120.288 18.5292L122.977 19.2482C124.728 19.7171 125.853 20.78 125.853 22.4056C125.822 24.7814 123.977 26.3757 120.851 26.3757ZM134.012 23.2184C134.45 23.2184 134.919 23.1871 135.263 23.1558V26.0319C134.731 26.1256 133.887 26.2194 132.855 26.2194C131.167 26.2194 128.823 25.8443 128.823 22.0617V17.5289H127.041V14.6841H128.823V11.3079H132.418V14.6841H134.981V17.5289H132.418V21.3114C132.449 22.937 133.137 23.2184 134.012 23.2184ZM141.859 26.3132C138.451 26.3132 136.513 23.7498 136.513 20.3423C136.513 16.9349 138.607 14.3715 141.921 14.3715C143.578 14.3715 144.86 15.153 145.485 16.3097V14.6841H149.08V26.0319H145.485V24.4375C144.86 25.5317 143.453 26.3132 141.859 26.3132ZM142.921 23.3434C144.703 23.3434 145.641 21.9992 145.641 20.3423C145.641 18.7168 144.735 17.3725 142.921 17.3725C141.265 17.3725 140.202 18.623 140.202 20.3423C140.202 22.0617 141.233 23.3434 142.921 23.3434ZM152.05 14.6528H155.645V16.3097C156.145 15.1843 157.333 14.3402 158.896 14.3402C160.928 14.3402 161.96 15.2468 162.46 16.4347C163.085 15.2155 164.429 14.3402 166.086 14.3402C169.337 14.3402 170.119 16.591 170.119 18.9669V26.0006H166.492V19.6233C166.492 18.0603 165.898 17.3725 164.804 17.3725C163.679 17.3725 162.897 17.9978 162.897 20.1548V26.0006H159.271V19.5921C159.271 18.029 158.708 17.3725 157.583 17.3725C156.426 17.3725 155.645 17.9978 155.645 20.1548V26.0006H152.05V14.6528ZM172.963 14.6528H176.59V16.2784C177.184 15.1843 178.59 14.3402 180.279 14.3402C183.373 14.3402 185.499 16.7473 185.499 20.3111C185.499 23.8749 183.311 26.2819 180.185 26.2819C178.528 26.2819 177.152 25.4379 176.59 24.375V30.6898H172.995L172.963 14.6528ZM179.153 23.3434C180.716 23.3434 181.842 22.1242 181.842 20.3423C181.842 18.5917 180.747 17.3725 179.153 17.3725C177.528 17.3725 176.433 18.5605 176.433 20.3423C176.402 22.1242 177.528 23.3434 179.153 23.3434ZM186.468 17.0287C186.187 17.0287 185.906 16.9662 185.655 16.8098C185.437 16.6848 185.249 16.4972 185.124 16.2472C184.999 15.9971 184.936 15.747 184.936 15.4656C184.936 15.1843 184.999 14.9342 185.124 14.6841C185.249 14.434 185.437 14.2777 185.655 14.1214C185.906 13.9964 186.187 13.9026 186.468 13.9026C186.781 13.9026 187.031 13.9651 187.281 14.1214C187.5 14.2464 187.687 14.434 187.812 14.6841C187.937 14.9029 188 15.1843 188 15.4656C188 15.747 187.937 16.0283 187.812 16.2472C187.687 16.466 187.5 16.6848 187.281 16.8098C187.031 16.9662 186.75 17.0287 186.468 17.0287ZM186.468 16.7786C186.718 16.7786 186.937 16.7161 187.125 16.591C187.312 16.466 187.469 16.3097 187.562 16.1221C187.656 15.9345 187.719 15.7157 187.719 15.4656C187.719 15.2468 187.656 15.028 187.562 14.8091C187.375 14.4027 186.937 14.1527 186.499 14.1839C186.281 14.1839 186.062 14.2464 185.843 14.3715C185.655 14.4965 185.499 14.6528 185.405 14.8404C185.312 15.028 185.249 15.2468 185.249 15.4969C185.249 15.747 185.312 15.9658 185.405 16.1534C185.499 16.3409 185.655 16.4972 185.843 16.6223C185.999 16.7161 186.218 16.7786 186.468 16.7786ZM185.906 14.6528H186.531C186.687 14.6528 186.812 14.7154 186.937 14.8091C187.031 14.9029 187.093 15.0592 187.093 15.2155C187.093 15.3406 187.062 15.4344 187 15.5281C186.937 15.6219 186.843 15.6845 186.718 15.7157L187.062 16.2784H186.781L186.468 15.747H186.156V16.2784H185.906V14.6528ZM186.531 15.5281C186.625 15.5281 186.718 15.4969 186.75 15.4344C186.812 15.3718 186.843 15.2781 186.843 15.2155C186.843 15.1217 186.812 15.028 186.75 14.9654C186.687 14.9029 186.593 14.8717 186.531 14.8717H186.187V15.5281H186.531Z" fill="url(#paint1_linear)"/>
<defs>
<linearGradient id="paint0_linear" x1="0.402344" y1="17.6068" x2="188" y2="17.6068" gradientUnits="userSpaceOnUse">
<stop stop-color="#FFC9B3"/>
<stop offset="1" stop-color="#F67D75"/>
</linearGradient>
<linearGradient id="paint1_linear" x1="0.402344" y1="17.6068" x2="188" y2="17.6068" gradientUnits="userSpaceOnUse">
<stop stop-color="#FFC9B3"/>
<stop offset="1" stop-color="#F67D75"/>
</linearGradient>
</defs>
</svg>
