<svg width="657" height="445" viewBox="0 0 657 445" fill="none" xmlns="http://www.w3.org/2000/svg">
    <line x1="81" y1="381.5" x2="657" y2="381.5" stroke="#262626"/>
    <path d="M57.218 384.196C56.378 384.196 55.6313 383.995 54.978 383.594C54.3247 383.193 53.8113 382.609 53.438 381.844C53.074 381.069 52.892 380.155 52.892 379.1C52.892 378.045 53.074 377.135 53.438 376.37C53.8113 375.595 54.3247 375.007 54.978 374.606C55.6313 374.205 56.378 374.004 57.218 374.004C58.0487 374.004 58.7907 374.205 59.444 374.606C60.0973 375.007 60.606 375.595 60.97 376.37C61.3433 377.135 61.53 378.045 61.53 379.1C61.53 380.155 61.3433 381.069 60.97 381.844C60.606 382.609 60.0973 383.193 59.444 383.594C58.7907 383.995 58.0487 384.196 57.218 384.196ZM57.218 381.928C57.6847 381.928 58.0533 381.704 58.324 381.256C58.604 380.799 58.744 380.08 58.744 379.1C58.744 378.12 58.604 377.406 58.324 376.958C58.0533 376.501 57.6847 376.272 57.218 376.272C56.742 376.272 56.364 376.501 56.084 376.958C55.8133 377.406 55.678 378.12 55.678 379.1C55.678 380.08 55.8133 380.799 56.084 381.256C56.364 381.704 56.742 381.928 57.218 381.928Z" fill="white"/>
    <path d="M83.954 428.196C83.2354 428.196 82.582 428.075 81.994 427.832C81.406 427.58 80.9254 427.221 80.552 426.754L82.064 424.962C82.5867 425.643 83.1514 425.984 83.758 425.984C84.1594 425.984 84.4627 425.863 84.668 425.62C84.8827 425.377 84.99 425.023 84.99 424.556V420.342H81.602V418.2H87.734V424.388C87.734 425.657 87.412 426.609 86.768 427.244C86.1334 427.879 85.1954 428.196 83.954 428.196ZM92.713 420.286C93.973 420.286 94.9343 420.575 95.597 421.154C96.2597 421.723 96.591 422.601 96.591 423.786V428H94.113V427.02C93.7303 427.757 92.9837 428.126 91.873 428.126C91.285 428.126 90.7763 428.023 90.347 427.818C89.9177 427.613 89.591 427.337 89.367 426.992C89.1523 426.637 89.045 426.236 89.045 425.788C89.045 425.069 89.3203 424.514 89.871 424.122C90.4217 423.721 91.271 423.52 92.419 423.52H93.931C93.8843 422.717 93.3477 422.316 92.321 422.316C91.957 422.316 91.5883 422.377 91.215 422.498C90.8417 422.61 90.5243 422.769 90.263 422.974L89.367 421.168C89.787 420.888 90.2957 420.673 90.893 420.524C91.4997 420.365 92.1063 420.286 92.713 420.286ZM92.615 426.446C92.923 426.446 93.1937 426.371 93.427 426.222C93.6603 426.073 93.8283 425.853 93.931 425.564V424.906H92.783C92.0083 424.906 91.621 425.163 91.621 425.676C91.621 425.909 91.7097 426.096 91.887 426.236C92.0643 426.376 92.307 426.446 92.615 426.446ZM103.212 420.286C104.155 420.286 104.911 420.566 105.48 421.126C106.059 421.686 106.348 422.531 106.348 423.66V428H103.688V424.094C103.688 423.058 103.273 422.54 102.442 422.54C101.985 422.54 101.616 422.689 101.336 422.988C101.065 423.287 100.93 423.735 100.93 424.332V428H98.27V420.412H100.804V421.238C101.103 420.93 101.457 420.697 101.868 420.538C102.279 420.37 102.727 420.286 103.212 420.286ZM119.288 425.802V428H111.658V426.264L115.326 422.834C115.681 422.498 115.919 422.213 116.04 421.98C116.162 421.737 116.222 421.495 116.222 421.252C116.222 420.935 116.115 420.687 115.9 420.51C115.686 420.333 115.373 420.244 114.962 420.244C114.598 420.244 114.262 420.328 113.954 420.496C113.656 420.655 113.408 420.888 113.212 421.196L111.154 420.048C111.537 419.413 112.074 418.914 112.764 418.55C113.455 418.186 114.272 418.004 115.214 418.004C115.961 418.004 116.619 418.125 117.188 418.368C117.767 418.611 118.215 418.961 118.532 419.418C118.859 419.866 119.022 420.389 119.022 420.986C119.022 421.518 118.906 422.022 118.672 422.498C118.448 422.965 118.01 423.497 117.356 424.094L115.508 425.802H119.288ZM127.669 425.802V428H120.039V426.264L123.707 422.834C124.062 422.498 124.3 422.213 124.421 421.98C124.542 421.737 124.603 421.495 124.603 421.252C124.603 420.935 124.496 420.687 124.281 420.51C124.066 420.333 123.754 420.244 123.343 420.244C122.979 420.244 122.643 420.328 122.335 420.496C122.036 420.655 121.789 420.888 121.593 421.196L119.535 420.048C119.918 419.413 120.454 418.914 121.145 418.55C121.836 418.186 122.652 418.004 123.595 418.004C124.342 418.004 125 418.125 125.569 418.368C126.148 418.611 126.596 418.961 126.913 419.418C127.24 419.866 127.403 420.389 127.403 420.986C127.403 421.518 127.286 422.022 127.053 422.498C126.829 422.965 126.39 423.497 125.737 424.094L123.889 425.802H127.669Z" fill="white"/>
    <path d="M251.601 428.196C250.882 428.196 250.229 428.075 249.641 427.832C249.053 427.58 248.572 427.221 248.199 426.754L249.711 424.962C250.233 425.643 250.798 425.984 251.405 425.984C251.806 425.984 252.109 425.863 252.315 425.62C252.529 425.377 252.637 425.023 252.637 424.556V420.342H249.249V418.2H255.381V424.388C255.381 425.657 255.059 426.609 254.415 427.244C253.78 427.879 252.842 428.196 251.601 428.196ZM260.359 420.286C261.619 420.286 262.581 420.575 263.243 421.154C263.906 421.723 264.237 422.601 264.237 423.786V428H261.759V427.02C261.377 427.757 260.63 428.126 259.519 428.126C258.931 428.126 258.423 428.023 257.993 427.818C257.564 427.613 257.237 427.337 257.013 426.992C256.799 426.637 256.691 426.236 256.691 425.788C256.691 425.069 256.967 424.514 257.517 424.122C258.068 423.721 258.917 423.52 260.065 423.52H261.577C261.531 422.717 260.994 422.316 259.967 422.316C259.603 422.316 259.235 422.377 258.861 422.498C258.488 422.61 258.171 422.769 257.909 422.974L257.013 421.168C257.433 420.888 257.942 420.673 258.539 420.524C259.146 420.365 259.753 420.286 260.359 420.286ZM260.261 426.446C260.569 426.446 260.84 426.371 261.073 426.222C261.307 426.073 261.475 425.853 261.577 425.564V424.906H260.429C259.655 424.906 259.267 425.163 259.267 425.676C259.267 425.909 259.356 426.096 259.533 426.236C259.711 426.376 259.953 426.446 260.261 426.446ZM270.859 420.286C271.801 420.286 272.557 420.566 273.127 421.126C273.705 421.686 273.995 422.531 273.995 423.66V428H271.335V424.094C271.335 423.058 270.919 422.54 270.089 422.54C269.631 422.54 269.263 422.689 268.983 422.988C268.712 423.287 268.577 423.735 268.577 424.332V428H265.917V420.412H268.451V421.238C268.749 420.93 269.104 420.697 269.515 420.538C269.925 420.37 270.373 420.286 270.859 420.286ZM286.935 425.802V428H279.305V426.264L282.973 422.834C283.327 422.498 283.565 422.213 283.687 421.98C283.808 421.737 283.869 421.495 283.869 421.252C283.869 420.935 283.761 420.687 283.547 420.51C283.332 420.333 283.019 420.244 282.609 420.244C282.245 420.244 281.909 420.328 281.601 420.496C281.302 420.655 281.055 420.888 280.859 421.196L278.801 420.048C279.183 419.413 279.72 418.914 280.411 418.55C281.101 418.186 281.918 418.004 282.861 418.004C283.607 418.004 284.265 418.125 284.835 418.368C285.413 418.611 285.861 418.961 286.179 419.418C286.505 419.866 286.669 420.389 286.669 420.986C286.669 421.518 286.552 422.022 286.319 422.498C286.095 422.965 285.656 423.497 285.003 424.094L283.155 425.802H286.935ZM296.913 426.124H295.457V428H292.755V426.124H287.575V424.318L291.971 418.2H294.841L290.851 423.926H292.839V422.26H295.457V423.926H296.913V426.124Z" fill="white"/>
    <path d="M444.257 428.196C443.538 428.196 442.885 428.075 442.297 427.832C441.709 427.58 441.228 427.221 440.855 426.754L442.367 424.962C442.889 425.643 443.454 425.984 444.061 425.984C444.462 425.984 444.765 425.863 444.971 425.62C445.185 425.377 445.293 425.023 445.293 424.556V420.342H441.905V418.2H448.037V424.388C448.037 425.657 447.715 426.609 447.071 427.244C446.436 427.879 445.498 428.196 444.257 428.196ZM453.016 420.286C454.276 420.286 455.237 420.575 455.9 421.154C456.562 421.723 456.894 422.601 456.894 423.786V428H454.416V427.02C454.033 427.757 453.286 428.126 452.176 428.126C451.588 428.126 451.079 428.023 450.65 427.818C450.22 427.613 449.894 427.337 449.67 426.992C449.455 426.637 449.348 426.236 449.348 425.788C449.348 425.069 449.623 424.514 450.174 424.122C450.724 423.721 451.574 423.52 452.722 423.52H454.234C454.187 422.717 453.65 422.316 452.624 422.316C452.26 422.316 451.891 422.377 451.518 422.498C451.144 422.61 450.827 422.769 450.566 422.974L449.67 421.168C450.09 420.888 450.598 420.673 451.196 420.524C451.802 420.365 452.409 420.286 453.016 420.286ZM452.918 426.446C453.226 426.446 453.496 426.371 453.73 426.222C453.963 426.073 454.131 425.853 454.234 425.564V424.906H453.086C452.311 424.906 451.924 425.163 451.924 425.676C451.924 425.909 452.012 426.096 452.19 426.236C452.367 426.376 452.61 426.446 452.918 426.446ZM463.515 420.286C464.457 420.286 465.213 420.566 465.783 421.126C466.361 421.686 466.651 422.531 466.651 423.66V428H463.991V424.094C463.991 423.058 463.575 422.54 462.745 422.54C462.287 422.54 461.919 422.689 461.639 422.988C461.368 423.287 461.233 423.735 461.233 424.332V428H458.573V420.412H461.107V421.238C461.405 420.93 461.76 420.697 462.171 420.538C462.581 420.37 463.029 420.286 463.515 420.286ZM479.591 425.802V428H471.961V426.264L475.629 422.834C475.984 422.498 476.222 422.213 476.343 421.98C476.464 421.737 476.525 421.495 476.525 421.252C476.525 420.935 476.418 420.687 476.203 420.51C475.988 420.333 475.676 420.244 475.265 420.244C474.901 420.244 474.565 420.328 474.257 420.496C473.958 420.655 473.711 420.888 473.515 421.196L471.457 420.048C471.84 419.413 472.376 418.914 473.067 418.55C473.758 418.186 474.574 418.004 475.517 418.004C476.264 418.004 476.922 418.125 477.491 418.368C478.07 418.611 478.518 418.961 478.835 419.418C479.162 419.866 479.325 420.389 479.325 420.986C479.325 421.518 479.208 422.022 478.975 422.498C478.751 422.965 478.312 423.497 477.659 424.094L475.811 425.802H479.591ZM485.396 421.756C486.012 421.756 486.577 421.887 487.09 422.148C487.604 422.4 488.01 422.764 488.308 423.24C488.616 423.707 488.77 424.243 488.77 424.85C488.77 425.513 488.598 426.101 488.252 426.614C487.916 427.118 487.454 427.51 486.866 427.79C486.288 428.061 485.639 428.196 484.92 428.196C483.52 428.196 482.414 427.781 481.602 426.95C480.79 426.119 480.384 424.925 480.384 423.366C480.384 422.246 480.599 421.285 481.028 420.482C481.467 419.67 482.078 419.054 482.862 418.634C483.646 418.214 484.556 418.004 485.592 418.004C486.152 418.004 486.684 418.065 487.188 418.186C487.692 418.307 488.122 418.485 488.476 418.718L487.468 420.706C486.992 420.37 486.39 420.202 485.662 420.202C484.953 420.202 484.379 420.398 483.94 420.79C483.502 421.182 483.25 421.747 483.184 422.484C483.744 421.999 484.482 421.756 485.396 421.756ZM484.752 426.222C485.144 426.222 485.462 426.11 485.704 425.886C485.956 425.662 486.082 425.359 486.082 424.976C486.082 424.603 485.956 424.304 485.704 424.08C485.462 423.856 485.14 423.744 484.738 423.744C484.337 423.744 484.01 423.861 483.758 424.094C483.506 424.318 483.38 424.617 483.38 424.99C483.38 425.354 483.502 425.653 483.744 425.886C483.996 426.11 484.332 426.222 484.752 426.222Z" fill="white"/>
    <path d="M610.97 428.196C610.251 428.196 609.598 428.075 609.01 427.832C608.422 427.58 607.941 427.221 607.568 426.754L609.08 424.962C609.602 425.643 610.167 425.984 610.774 425.984C611.175 425.984 611.478 425.863 611.684 425.62C611.898 425.377 612.006 425.023 612.006 424.556V420.342H608.618V418.2H614.75V424.388C614.75 425.657 614.428 426.609 613.784 427.244C613.149 427.879 612.211 428.196 610.97 428.196ZM619.729 420.286C620.989 420.286 621.95 420.575 622.613 421.154C623.275 421.723 623.607 422.601 623.607 423.786V428H621.129V427.02C620.746 427.757 619.999 428.126 618.889 428.126C618.301 428.126 617.792 428.023 617.363 427.818C616.933 427.613 616.607 427.337 616.383 426.992C616.168 426.637 616.061 426.236 616.061 425.788C616.061 425.069 616.336 424.514 616.887 424.122C617.437 423.721 618.287 423.52 619.435 423.52H620.947C620.9 422.717 620.363 422.316 619.337 422.316C618.973 422.316 618.604 422.377 618.231 422.498C617.857 422.61 617.54 422.769 617.279 422.974L616.383 421.168C616.803 420.888 617.311 420.673 617.909 420.524C618.515 420.365 619.122 420.286 619.729 420.286ZM619.631 426.446C619.939 426.446 620.209 426.371 620.443 426.222C620.676 426.073 620.844 425.853 620.947 425.564V424.906H619.799C619.024 424.906 618.637 425.163 618.637 425.676C618.637 425.909 618.725 426.096 618.903 426.236C619.08 426.376 619.323 426.446 619.631 426.446ZM630.228 420.286C631.17 420.286 631.926 420.566 632.496 421.126C633.074 421.686 633.364 422.531 633.364 423.66V428H630.704V424.094C630.704 423.058 630.288 422.54 629.458 422.54C629 422.54 628.632 422.689 628.352 422.988C628.081 423.287 627.946 423.735 627.946 424.332V428H625.286V420.412H627.82V421.238C628.118 420.93 628.473 420.697 628.884 420.538C629.294 420.37 629.742 420.286 630.228 420.286ZM646.304 425.802V428H638.674V426.264L642.342 422.834C642.697 422.498 642.935 422.213 643.056 421.98C643.177 421.737 643.238 421.495 643.238 421.252C643.238 420.935 643.131 420.687 642.916 420.51C642.701 420.333 642.389 420.244 641.978 420.244C641.614 420.244 641.278 420.328 640.97 420.496C640.671 420.655 640.424 420.888 640.228 421.196L638.17 420.048C638.553 419.413 639.089 418.914 639.78 418.55C640.471 418.186 641.287 418.004 642.23 418.004C642.977 418.004 643.635 418.125 644.204 418.368C644.783 418.611 645.231 418.961 645.548 419.418C645.875 419.866 646.038 420.389 646.038 420.986C646.038 421.518 645.921 422.022 645.688 422.498C645.464 422.965 645.025 423.497 644.372 424.094L642.524 425.802H646.304ZM654.167 422.834C654.615 423.095 654.96 423.417 655.203 423.8C655.445 424.183 655.567 424.621 655.567 425.116C655.567 425.732 655.389 426.273 655.035 426.74C654.68 427.207 654.181 427.566 653.537 427.818C652.893 428.07 652.151 428.196 651.311 428.196C650.471 428.196 649.729 428.07 649.085 427.818C648.441 427.566 647.941 427.207 647.587 426.74C647.232 426.273 647.055 425.732 647.055 425.116C647.055 424.621 647.176 424.183 647.419 423.8C647.661 423.417 648.007 423.095 648.455 422.834C648.119 422.601 647.857 422.316 647.671 421.98C647.493 421.644 647.405 421.271 647.405 420.86C647.405 420.291 647.568 419.791 647.895 419.362C648.221 418.923 648.679 418.587 649.267 418.354C649.864 418.121 650.545 418.004 651.311 418.004C652.076 418.004 652.753 418.121 653.341 418.354C653.938 418.587 654.4 418.923 654.727 419.362C655.053 419.791 655.217 420.291 655.217 420.86C655.217 421.271 655.123 421.644 654.937 421.98C654.759 422.316 654.503 422.601 654.167 422.834ZM651.311 419.95C650.965 419.95 650.685 420.043 650.471 420.23C650.256 420.407 650.149 420.659 650.149 420.986C650.149 421.303 650.251 421.555 650.457 421.742C650.671 421.919 650.956 422.008 651.311 422.008C651.665 422.008 651.95 421.919 652.165 421.742C652.379 421.555 652.487 421.303 652.487 420.986C652.487 420.659 652.379 420.407 652.165 420.23C651.95 420.043 651.665 419.95 651.311 419.95ZM651.311 426.25C651.759 426.25 652.113 426.143 652.375 425.928C652.645 425.704 652.781 425.405 652.781 425.032C652.781 424.659 652.645 424.365 652.375 424.15C652.113 423.926 651.759 423.814 651.311 423.814C650.863 423.814 650.503 423.926 650.233 424.15C649.971 424.365 649.841 424.659 649.841 425.032C649.841 425.405 649.971 425.704 650.233 425.928C650.503 426.143 650.863 426.25 651.311 426.25Z" fill="white"/>
    <path d="M11.5932 260.77C12.9652 260.77 13.9779 261.05 14.6312 261.61C15.2939 262.17 15.6252 262.917 15.6252 263.85C15.6252 264.457 15.4666 265.017 15.1492 265.53C14.8412 266.034 14.3652 266.44 13.7212 266.748C13.0866 267.047 12.2979 267.196 11.3552 267.196C10.6646 267.196 9.97855 267.112 9.29722 266.944C8.62522 266.776 8.04655 266.538 7.56122 266.23L8.55522 264.144C8.94722 264.405 9.37655 264.606 9.84322 264.746C10.3192 264.886 10.7952 264.956 11.2712 264.956C11.7472 264.956 12.1252 264.867 12.4052 264.69C12.6946 264.503 12.8392 264.247 12.8392 263.92C12.8392 263.593 12.6992 263.346 12.4192 263.178C12.1392 263.01 11.6446 262.926 10.9352 262.926H8.27522L8.76522 257.2H15.0092V259.342H11.0612L10.9352 260.77H11.5932ZM25.6553 259.286C26.346 259.286 26.9713 259.445 27.5313 259.762C28.1007 260.079 28.5487 260.537 28.8753 261.134C29.2113 261.722 29.3793 262.408 29.3793 263.192C29.3793 263.976 29.2113 264.667 28.8753 265.264C28.5487 265.861 28.1007 266.323 27.5313 266.65C26.9713 266.967 26.346 267.126 25.6553 267.126C24.6567 267.126 23.91 266.832 23.4153 266.244V267H20.8813V256.612H23.5413V260.07C24.0547 259.547 24.7593 259.286 25.6553 259.286ZM25.0953 265.012C25.562 265.012 25.9447 264.853 26.2433 264.536C26.542 264.209 26.6913 263.761 26.6913 263.192C26.6913 262.632 26.542 262.193 26.2433 261.876C25.9447 261.559 25.562 261.4 25.0953 261.4C24.6287 261.4 24.246 261.559 23.9473 261.876C23.6487 262.193 23.4993 262.632 23.4993 263.192C23.4993 263.761 23.6487 264.209 23.9473 264.536C24.246 264.853 24.6287 265.012 25.0953 265.012ZM30.6157 259.412H33.2757V267H30.6157V259.412ZM31.9457 258.572C31.4604 258.572 31.0684 258.437 30.7697 258.166C30.4711 257.895 30.3217 257.559 30.3217 257.158C30.3217 256.757 30.4711 256.421 30.7697 256.15C31.0684 255.879 31.4604 255.744 31.9457 255.744C32.4311 255.744 32.8231 255.875 33.1217 256.136C33.4204 256.388 33.5697 256.715 33.5697 257.116C33.5697 257.536 33.4204 257.886 33.1217 258.166C32.8231 258.437 32.4311 258.572 31.9457 258.572ZM35.0044 256.612H37.6644V267H35.0044V256.612ZM39.3931 256.612H42.0531V267H39.3931V256.612ZM47.5897 267.126C46.7777 267.126 46.0451 266.958 45.3917 266.622C44.7384 266.286 44.2251 265.819 43.8517 265.222C43.4877 264.625 43.3057 263.948 43.3057 263.192C43.3057 262.445 43.4877 261.773 43.8517 261.176C44.2251 260.579 44.7337 260.117 45.3777 259.79C46.0311 259.454 46.7684 259.286 47.5897 259.286C48.4111 259.286 49.1484 259.454 49.8017 259.79C50.4551 260.117 50.9637 260.579 51.3277 261.176C51.6917 261.764 51.8737 262.436 51.8737 263.192C51.8737 263.948 51.6917 264.625 51.3277 265.222C50.9637 265.819 50.4551 266.286 49.8017 266.622C49.1484 266.958 48.4111 267.126 47.5897 267.126ZM47.5897 265.012C48.0564 265.012 48.4391 264.853 48.7377 264.536C49.0364 264.209 49.1857 263.761 49.1857 263.192C49.1857 262.632 49.0364 262.193 48.7377 261.876C48.4391 261.559 48.0564 261.4 47.5897 261.4C47.1231 261.4 46.7404 261.559 46.4417 261.876C46.1431 262.193 45.9937 262.632 45.9937 263.192C45.9937 263.761 46.1431 264.209 46.4417 264.536C46.7404 264.853 47.1231 265.012 47.5897 265.012ZM58.048 259.286C58.9906 259.286 59.7466 259.566 60.316 260.126C60.8946 260.686 61.184 261.531 61.184 262.66V267H58.524V263.094C58.524 262.058 58.1086 261.54 57.278 261.54C56.8206 261.54 56.452 261.689 56.172 261.988C55.9013 262.287 55.766 262.735 55.766 263.332V267H53.106V259.412H55.64V260.238C55.9386 259.93 56.2933 259.697 56.704 259.538C57.1146 259.37 57.5626 259.286 58.048 259.286Z" fill="white"/>
    <path d="M5.37131 137.2V147H2.59931V139.342H0.779313V137.2H5.37131ZM11.1711 147.196C10.3311 147.196 9.58447 146.995 8.93114 146.594C8.27781 146.193 7.76447 145.609 7.39114 144.844C7.02714 144.069 6.84514 143.155 6.84514 142.1C6.84514 141.045 7.02714 140.135 7.39114 139.37C7.76447 138.595 8.27781 138.007 8.93114 137.606C9.58447 137.205 10.3311 137.004 11.1711 137.004C12.0018 137.004 12.7438 137.205 13.3971 137.606C14.0505 138.007 14.5591 138.595 14.9231 139.37C15.2965 140.135 15.4831 141.045 15.4831 142.1C15.4831 143.155 15.2965 144.069 14.9231 144.844C14.5591 145.609 14.0505 146.193 13.3971 146.594C12.7438 146.995 12.0018 147.196 11.1711 147.196ZM11.1711 144.928C11.6378 144.928 12.0065 144.704 12.2771 144.256C12.5571 143.799 12.6971 143.08 12.6971 142.1C12.6971 141.12 12.5571 140.406 12.2771 139.958C12.0065 139.501 11.6378 139.272 11.1711 139.272C10.6951 139.272 10.3171 139.501 10.0371 139.958C9.76647 140.406 9.63114 141.12 9.63114 142.1C9.63114 143.08 9.76647 143.799 10.0371 144.256C10.3171 144.704 10.6951 144.928 11.1711 144.928ZM25.6553 139.286C26.346 139.286 26.9713 139.445 27.5313 139.762C28.1007 140.079 28.5487 140.537 28.8753 141.134C29.2113 141.722 29.3793 142.408 29.3793 143.192C29.3793 143.976 29.2113 144.667 28.8753 145.264C28.5487 145.861 28.1007 146.323 27.5313 146.65C26.9713 146.967 26.346 147.126 25.6553 147.126C24.6567 147.126 23.91 146.832 23.4153 146.244V147H20.8813V136.612H23.5413V140.07C24.0547 139.547 24.7593 139.286 25.6553 139.286ZM25.0953 145.012C25.562 145.012 25.9447 144.853 26.2433 144.536C26.542 144.209 26.6913 143.761 26.6913 143.192C26.6913 142.632 26.542 142.193 26.2433 141.876C25.9447 141.559 25.562 141.4 25.0953 141.4C24.6287 141.4 24.246 141.559 23.9473 141.876C23.6487 142.193 23.4993 142.632 23.4993 143.192C23.4993 143.761 23.6487 144.209 23.9473 144.536C24.246 144.853 24.6287 145.012 25.0953 145.012ZM30.6157 139.412H33.2757V147H30.6157V139.412ZM31.9457 138.572C31.4604 138.572 31.0684 138.437 30.7697 138.166C30.4711 137.895 30.3217 137.559 30.3217 137.158C30.3217 136.757 30.4711 136.421 30.7697 136.15C31.0684 135.879 31.4604 135.744 31.9457 135.744C32.4311 135.744 32.8231 135.875 33.1217 136.136C33.4204 136.388 33.5697 136.715 33.5697 137.116C33.5697 137.536 33.4204 137.886 33.1217 138.166C32.8231 138.437 32.4311 138.572 31.9457 138.572ZM35.0044 136.612H37.6644V147H35.0044V136.612ZM39.3931 136.612H42.0531V147H39.3931V136.612ZM47.5897 147.126C46.7777 147.126 46.0451 146.958 45.3917 146.622C44.7384 146.286 44.2251 145.819 43.8517 145.222C43.4877 144.625 43.3057 143.948 43.3057 143.192C43.3057 142.445 43.4877 141.773 43.8517 141.176C44.2251 140.579 44.7337 140.117 45.3777 139.79C46.0311 139.454 46.7684 139.286 47.5897 139.286C48.4111 139.286 49.1484 139.454 49.8017 139.79C50.4551 140.117 50.9637 140.579 51.3277 141.176C51.6917 141.764 51.8737 142.436 51.8737 143.192C51.8737 143.948 51.6917 144.625 51.3277 145.222C50.9637 145.819 50.4551 146.286 49.8017 146.622C49.1484 146.958 48.4111 147.126 47.5897 147.126ZM47.5897 145.012C48.0564 145.012 48.4391 144.853 48.7377 144.536C49.0364 144.209 49.1857 143.761 49.1857 143.192C49.1857 142.632 49.0364 142.193 48.7377 141.876C48.4391 141.559 48.0564 141.4 47.5897 141.4C47.1231 141.4 46.7404 141.559 46.4417 141.876C46.1431 142.193 45.9937 142.632 45.9937 143.192C45.9937 143.761 46.1431 144.209 46.4417 144.536C46.7404 144.853 47.1231 145.012 47.5897 145.012ZM58.048 139.286C58.9906 139.286 59.7466 139.566 60.316 140.126C60.8946 140.686 61.184 141.531 61.184 142.66V147H58.524V143.094C58.524 142.058 58.1086 141.54 57.278 141.54C56.8206 141.54 56.452 141.689 56.172 141.988C55.9013 142.287 55.766 142.735 55.766 143.332V147H53.106V139.412H55.64V140.238C55.9386 139.93 56.2933 139.697 56.704 139.538C57.1146 139.37 57.5626 139.286 58.048 139.286Z" fill="white"/>
    <path d="M6.45139 17.2V27H3.67939V19.342H1.85939V17.2H6.45139ZM11.5932 20.77C12.9652 20.77 13.9779 21.05 14.6312 21.61C15.2939 22.17 15.6252 22.9167 15.6252 23.85C15.6252 24.4567 15.4666 25.0167 15.1492 25.53C14.8412 26.034 14.3652 26.44 13.7212 26.748C13.0866 27.0467 12.2979 27.196 11.3552 27.196C10.6646 27.196 9.97855 27.112 9.29722 26.944C8.62522 26.776 8.04655 26.538 7.56122 26.23L8.55522 24.144C8.94722 24.4053 9.37655 24.606 9.84322 24.746C10.3192 24.886 10.7952 24.956 11.2712 24.956C11.7472 24.956 12.1252 24.8673 12.4052 24.69C12.6946 24.5033 12.8392 24.2467 12.8392 23.92C12.8392 23.5933 12.6992 23.346 12.4192 23.178C12.1392 23.01 11.6446 22.926 10.9352 22.926H8.27522L8.76522 17.2H15.0092V19.342H11.0612L10.9352 20.77H11.5932ZM25.6553 19.286C26.346 19.286 26.9713 19.4447 27.5313 19.762C28.1007 20.0793 28.5487 20.5367 28.8753 21.134C29.2113 21.722 29.3793 22.408 29.3793 23.192C29.3793 23.976 29.2113 24.6667 28.8753 25.264C28.5487 25.8613 28.1007 26.3233 27.5313 26.65C26.9713 26.9673 26.346 27.126 25.6553 27.126C24.6567 27.126 23.91 26.832 23.4153 26.244V27H20.8813V16.612H23.5413V20.07C24.0547 19.5473 24.7593 19.286 25.6553 19.286ZM25.0953 25.012C25.562 25.012 25.9447 24.8533 26.2433 24.536C26.542 24.2093 26.6913 23.7613 26.6913 23.192C26.6913 22.632 26.542 22.1933 26.2433 21.876C25.9447 21.5587 25.562 21.4 25.0953 21.4C24.6287 21.4 24.246 21.5587 23.9473 21.876C23.6487 22.1933 23.4993 22.632 23.4993 23.192C23.4993 23.7613 23.6487 24.2093 23.9473 24.536C24.246 24.8533 24.6287 25.012 25.0953 25.012ZM30.6157 19.412H33.2757V27H30.6157V19.412ZM31.9457 18.572C31.4604 18.572 31.0684 18.4367 30.7697 18.166C30.4711 17.8953 30.3217 17.5593 30.3217 17.158C30.3217 16.7567 30.4711 16.4207 30.7697 16.15C31.0684 15.8793 31.4604 15.744 31.9457 15.744C32.4311 15.744 32.8231 15.8747 33.1217 16.136C33.4204 16.388 33.5697 16.7147 33.5697 17.116C33.5697 17.536 33.4204 17.886 33.1217 18.166C32.8231 18.4367 32.4311 18.572 31.9457 18.572ZM35.0044 16.612H37.6644V27H35.0044V16.612ZM39.3931 16.612H42.0531V27H39.3931V16.612ZM47.5897 27.126C46.7777 27.126 46.0451 26.958 45.3917 26.622C44.7384 26.286 44.2251 25.8193 43.8517 25.222C43.4877 24.6247 43.3057 23.948 43.3057 23.192C43.3057 22.4453 43.4877 21.7733 43.8517 21.176C44.2251 20.5787 44.7337 20.1167 45.3777 19.79C46.0311 19.454 46.7684 19.286 47.5897 19.286C48.4111 19.286 49.1484 19.454 49.8017 19.79C50.4551 20.1167 50.9637 20.5787 51.3277 21.176C51.6917 21.764 51.8737 22.436 51.8737 23.192C51.8737 23.948 51.6917 24.6247 51.3277 25.222C50.9637 25.8193 50.4551 26.286 49.8017 26.622C49.1484 26.958 48.4111 27.126 47.5897 27.126ZM47.5897 25.012C48.0564 25.012 48.4391 24.8533 48.7377 24.536C49.0364 24.2093 49.1857 23.7613 49.1857 23.192C49.1857 22.632 49.0364 22.1933 48.7377 21.876C48.4391 21.5587 48.0564 21.4 47.5897 21.4C47.1231 21.4 46.7404 21.5587 46.4417 21.876C46.1431 22.1933 45.9937 22.632 45.9937 23.192C45.9937 23.7613 46.1431 24.2093 46.4417 24.536C46.7404 24.8533 47.1231 25.012 47.5897 25.012ZM58.048 19.286C58.9906 19.286 59.7466 19.566 60.316 20.126C60.8946 20.686 61.184 21.5307 61.184 22.66V27H58.524V23.094C58.524 22.058 58.1086 21.54 57.278 21.54C56.8206 21.54 56.452 21.6893 56.172 21.988C55.9013 22.2867 55.766 22.7347 55.766 23.332V27H53.106V19.412H55.64V20.238C55.9386 19.93 56.2933 19.6967 56.704 19.538C57.1146 19.37 57.5626 19.286 58.048 19.286Z" fill="white"/>
    <path d="M464.333 97.073L81 382H657V12L464.333 97.073Z" fill="#F0554B"/>
    <path d="M464.333 180.241L81 382H657V120L464.333 180.241Z" fill="#F5776A"/>
    <path d="M464.333 234.916L81 382H657V191L464.333 234.916Z" fill="#FA9C8A"/>
    <path d="M464 276L81 381.5H656.5V244.5L464 276Z" fill="#FFCAB3"/>
    <line opacity="0.2" x1="81" y1="261.5" x2="657" y2="261.5" stroke="white"/>
    <line opacity="0.2" x1="81" y1="141.5" x2="657" y2="141.5" stroke="white"/>
    <line opacity="0.2" x1="81" y1="21.5" x2="657" y2="21.5" stroke="white"/>
</svg>
