<svg width="654" height="445" viewBox="0 0 654 445" fill="none" xmlns="http://www.w3.org/2000/svg">
    <line x1="78" y1="381.5" x2="654" y2="381.5" stroke="#262626"/>
    <path d="M54.0359 384.249C56.7006 384.254 58.3363 382.285 58.3413 378.924C58.3462 375.583 56.7006 373.679 54.0359 373.679C51.3711 373.679 49.7404 375.578 49.7354 378.924C49.7255 382.275 51.3711 384.249 54.0359 384.249ZM54.0359 382.235C52.9769 382.235 52.256 381.171 52.266 378.924C52.271 376.722 52.9819 375.678 54.0359 375.678C55.0948 375.678 55.8058 376.722 55.8107 378.924C55.8157 381.171 55.0998 382.235 54.0359 382.235Z" fill="#15121D"/>
    <path d="M83.8601 417.818V424.858C83.8551 425.738 83.4673 426.2 82.7614 426.2C82.0852 426.2 81.6726 425.768 81.6477 424.977H79.1967C79.1868 427.17 80.718 428.139 82.6222 428.139C84.7798 428.139 86.2812 426.842 86.2862 424.858V417.818H83.8601ZM89.9838 428.129C91.0478 428.129 91.7836 427.717 92.2012 426.936H92.2608V428H94.5478V422.81C94.5478 421.194 93.111 420.264 91.1671 420.264C89.1138 420.264 87.9505 421.298 87.7566 422.69L89.9988 422.77C90.1032 422.283 90.5059 421.984 91.1472 421.984C91.7438 421.984 92.1216 422.273 92.1216 422.785V422.81C92.1216 423.277 91.6145 423.376 90.312 423.491C88.7658 423.62 87.4732 424.192 87.4732 425.882C87.4732 427.393 88.5222 428.129 89.9838 428.129ZM90.7346 426.538C90.1728 426.538 89.775 426.27 89.775 425.763C89.775 425.271 90.1628 424.972 90.8539 424.868C91.3063 424.803 91.8631 424.704 92.1365 424.56V425.286C92.1365 426.031 91.5101 426.538 90.7346 426.538ZM98.4654 423.645C98.4703 422.775 98.9775 422.258 99.748 422.258C100.519 422.258 100.976 422.765 100.971 423.61V428H103.402V423.133C103.407 421.413 102.358 420.264 100.752 420.264C99.6238 420.264 98.7686 420.836 98.4306 421.766H98.3461V420.364H96.0343V428H98.4654V423.645ZM107.895 428H115.432V426.016H111.306V425.952L112.524 424.828C114.731 422.904 115.308 421.925 115.308 420.756C115.308 418.922 113.811 417.679 111.5 417.679C109.248 417.679 107.741 418.977 107.746 421.05H110.078C110.078 420.13 110.645 419.598 111.49 419.598C112.32 419.598 112.922 420.11 112.922 420.95C112.922 421.711 112.444 422.228 111.609 422.979L107.895 426.23V428ZM116.823 428H124.36V426.016H120.233V425.952L121.452 424.828C123.659 422.904 124.236 421.925 124.236 420.756C124.236 418.922 122.739 417.679 120.427 417.679C118.175 417.679 116.669 418.977 116.674 421.05H119.006C119.006 420.13 119.572 419.598 120.417 419.598C121.248 419.598 121.849 420.11 121.849 420.95C121.849 421.711 121.372 422.228 120.537 422.979L116.823 426.23V428Z" fill="#15121D"/>
    <path d="M252.354 417.818V424.858C252.349 425.738 251.961 426.2 251.256 426.2C250.579 426.2 250.167 425.768 250.142 424.977H247.691C247.681 427.17 249.212 428.139 251.116 428.139C253.274 428.139 254.775 426.842 254.78 424.858V417.818H252.354ZM258.478 428.129C259.542 428.129 260.278 427.717 260.695 426.936H260.755V428H263.042V422.81C263.042 421.194 261.605 420.264 259.661 420.264C257.608 420.264 256.445 421.298 256.251 422.69L258.493 422.77C258.597 422.283 259 421.984 259.641 421.984C260.238 421.984 260.616 422.273 260.616 422.785V422.81C260.616 423.277 260.109 423.376 258.806 423.491C257.26 423.62 255.967 424.192 255.967 425.882C255.967 427.393 257.016 428.129 258.478 428.129ZM259.229 426.538C258.667 426.538 258.269 426.27 258.269 425.763C258.269 425.271 258.657 424.972 259.348 424.868C259.8 424.803 260.357 424.704 260.631 424.56V425.286C260.631 426.031 260.004 426.538 259.229 426.538ZM266.96 423.645C266.964 422.775 267.472 422.258 268.242 422.258C269.013 422.258 269.47 422.765 269.465 423.61V428H271.896V423.133C271.901 421.413 270.852 420.264 269.246 420.264C268.118 420.264 267.263 420.836 266.925 421.766H266.84V420.364H264.528V428H266.96V423.645ZM276.389 428H283.926V426.016H279.8V425.952L281.018 424.828C283.225 422.904 283.802 421.925 283.802 420.756C283.802 418.922 282.306 417.679 279.994 417.679C277.742 417.679 276.235 418.977 276.24 421.05H278.572C278.572 420.13 279.139 419.598 279.984 419.598C280.814 419.598 281.416 420.11 281.416 420.95C281.416 421.711 280.938 422.228 280.103 422.979L276.389 426.23V428ZM284.974 426.31H289.891V428H292.243V426.31H293.461V424.371H292.243V417.818H289.145L284.974 424.391V426.31ZM289.941 424.371H287.42V424.291L289.861 420.423H289.941V424.371Z" fill="#15121D"/>
    <path d="M444.368 417.818V424.858C444.363 425.738 443.975 426.2 443.269 426.2C442.593 426.2 442.18 425.768 442.156 424.977H439.705C439.695 427.17 441.226 428.139 443.13 428.139C445.288 428.139 446.789 426.842 446.794 424.858V417.818H444.368ZM450.492 428.129C451.556 428.129 452.291 427.717 452.709 426.936H452.769V428H455.056V422.81C455.056 421.194 453.619 420.264 451.675 420.264C449.622 420.264 448.458 421.298 448.264 422.69L450.507 422.77C450.611 422.283 451.014 421.984 451.655 421.984C452.252 421.984 452.629 422.273 452.629 422.785V422.81C452.629 423.277 452.122 423.376 450.82 423.491C449.274 423.62 447.981 424.192 447.981 425.882C447.981 427.393 449.03 428.129 450.492 428.129ZM451.242 426.538C450.681 426.538 450.283 426.27 450.283 425.763C450.283 425.271 450.671 424.972 451.362 424.868C451.814 424.803 452.371 424.704 452.644 424.56V425.286C452.644 426.031 452.018 426.538 451.242 426.538ZM458.973 423.645C458.978 422.775 459.485 422.258 460.256 422.258C461.026 422.258 461.484 422.765 461.479 423.61V428H463.91V423.133C463.915 421.413 462.866 420.264 461.26 420.264C460.132 420.264 459.276 420.836 458.938 421.766H458.854V420.364H456.542V428H458.973V423.645ZM468.403 428H475.94V426.016H471.814V425.952L473.032 424.828C475.239 422.904 475.816 421.925 475.816 420.756C475.816 418.922 474.319 417.679 472.007 417.679C469.755 417.679 468.249 418.977 468.254 421.05H470.586C470.586 420.13 471.152 419.598 471.998 419.598C472.828 419.598 473.429 420.11 473.429 420.95C473.429 421.711 472.952 422.228 472.117 422.979L468.403 426.23V428ZM481.412 428.139C483.749 428.144 485.36 426.678 485.355 424.545C485.36 422.661 484.072 421.288 482.248 421.288C481.109 421.288 480.085 421.84 479.662 422.755H479.598C479.608 420.94 480.214 419.777 481.462 419.777C482.138 419.777 482.675 420.115 482.819 420.761H485.241C485.052 419.051 483.6 417.679 481.462 417.679C478.867 417.679 477.182 419.722 477.172 423.083C477.167 426.797 479.175 428.134 481.412 428.139ZM481.398 426.25C480.498 426.25 479.831 425.544 479.827 424.629C479.836 423.71 480.508 423.004 481.403 423.004C482.312 423.004 482.974 423.7 482.969 424.624C482.974 425.554 482.307 426.25 481.398 426.25Z" fill="#15121D"/>
    <path d="M611.327 417.818V424.858C611.322 425.738 610.934 426.2 610.228 426.2C609.552 426.2 609.139 425.768 609.115 424.977H606.664C606.654 427.17 608.185 428.139 610.089 428.139C612.247 428.139 613.748 426.842 613.753 424.858V417.818H611.327ZM617.451 428.129C618.515 428.129 619.25 427.717 619.668 426.936H619.728V428H622.015V422.81C622.015 421.194 620.578 420.264 618.634 420.264C616.581 420.264 615.417 421.298 615.223 422.69L617.466 422.77C617.57 422.283 617.973 421.984 618.614 421.984C619.211 421.984 619.588 422.273 619.588 422.785V422.81C619.588 423.277 619.081 423.376 617.779 423.491C616.233 423.62 614.94 424.192 614.94 425.882C614.94 427.393 615.989 428.129 617.451 428.129ZM618.201 426.538C617.64 426.538 617.242 426.27 617.242 425.763C617.242 425.271 617.63 424.972 618.321 424.868C618.773 424.803 619.33 424.704 619.603 424.56V425.286C619.603 426.031 618.977 426.538 618.201 426.538ZM625.932 423.645C625.937 422.775 626.444 422.258 627.215 422.258C627.985 422.258 628.443 422.765 628.438 423.61V428H630.869V423.133C630.874 421.413 629.825 420.264 628.219 420.264C627.091 420.264 626.235 420.836 625.897 421.766H625.813V420.364H623.501V428H625.932V423.645ZM635.362 428H642.899V426.016H638.773V425.952L639.991 424.828C642.198 422.904 642.775 421.925 642.775 420.756C642.775 418.922 641.278 417.679 638.966 417.679C636.714 417.679 635.208 418.977 635.213 421.05H637.545C637.545 420.13 638.111 419.598 638.956 419.598C639.787 419.598 640.388 420.11 640.388 420.95C640.388 421.711 639.911 422.228 639.076 422.979L635.362 426.23V428ZM648.267 428.139C650.648 428.139 652.379 426.901 652.379 425.246C652.379 423.983 651.359 422.959 650.092 422.76V422.68C651.195 422.472 652.001 421.557 652.001 420.433C652.001 418.847 650.42 417.679 648.267 417.679C646.114 417.679 644.533 418.842 644.533 420.433C644.533 421.557 645.319 422.472 646.442 422.68V422.76C645.155 422.959 644.156 423.983 644.156 425.246C644.156 426.901 645.886 428.139 648.267 428.139ZM648.267 426.394C647.362 426.394 646.736 425.827 646.736 425.047C646.736 424.251 647.382 423.68 648.267 423.68C649.152 423.68 649.798 424.256 649.798 425.047C649.798 425.832 649.167 426.394 648.267 426.394ZM648.267 421.945C647.491 421.945 646.935 421.423 646.935 420.702C646.935 419.986 647.487 419.484 648.267 419.484C649.048 419.484 649.599 419.991 649.599 420.702C649.599 421.428 649.038 421.945 648.267 421.945Z" fill="#15121D"/>
    <path d="M13.0078 267.139C15.3793 267.139 16.9602 265.648 16.9602 263.55C16.9602 261.611 15.608 260.229 13.7784 260.229C12.8139 260.229 12.0135 260.641 11.6754 261.203H11.6158L11.8494 258.802H16.3587V256.818H9.82599L9.38352 262.307L11.5561 262.714C11.8295 262.257 12.3963 261.974 12.9929 261.979C13.9276 261.979 14.5938 262.64 14.5888 263.619C14.5938 264.594 13.9375 265.25 13.0078 265.25C12.2173 265.25 11.5661 264.758 11.5312 264.007H9.14489C9.17472 265.837 10.7805 267.139 13.0078 267.139ZM21.339 267H23.7452V265.762H23.8198C24.128 266.468 24.8141 267.109 25.9675 267.109C27.6578 267.109 29.0201 265.787 29.0201 263.187C29.0201 260.492 27.5783 259.264 25.9824 259.264C24.7743 259.264 24.1131 259.97 23.8198 260.671H23.7701V256.818H21.339V267ZM23.7203 263.182C23.7203 261.934 24.2374 261.163 25.1273 261.163C26.0272 261.163 26.5243 261.954 26.5243 263.182C26.5243 264.415 26.0272 265.215 25.1273 265.215C24.2374 265.215 23.7203 264.42 23.7203 263.182ZM30.294 267H32.7251V259.364H30.294V267ZM31.5121 258.474C32.2031 258.474 32.7599 257.952 32.7599 257.31C32.7599 256.669 32.2031 256.152 31.5121 256.152C30.826 256.152 30.2642 256.669 30.2642 257.31C30.2642 257.952 30.826 258.474 31.5121 258.474ZM36.7037 256.818H34.2725V267H36.7037V256.818ZM40.6822 256.818H38.2511V267H40.6822V256.818ZM45.7942 267.144C48.1955 267.144 49.6522 265.558 49.6522 263.207C49.6522 260.85 48.1955 259.264 45.7942 259.264C43.3929 259.264 41.9363 260.85 41.9363 263.207C41.9363 265.558 43.3929 267.144 45.7942 267.144ZM45.8091 265.31C44.9093 265.31 44.4121 264.455 44.4121 263.192C44.4121 261.924 44.9093 261.064 45.8091 261.064C46.6792 261.064 47.1763 261.924 47.1763 263.192C47.1763 264.455 46.6792 265.31 45.8091 265.31ZM53.3287 262.645C53.3336 261.775 53.8407 261.258 54.6113 261.258C55.3819 261.258 55.8393 261.765 55.8343 262.61V267H58.2654V262.133C58.2704 260.413 57.2214 259.264 55.6156 259.264C54.487 259.264 53.6319 259.836 53.2939 260.766H53.2093V259.364H50.8975V267H53.3287V262.645Z" fill="#15121D"/>
    <path d="M6.13459 136.818H3.85263L1.34197 138.379V140.507L3.61896 139.115H3.67862V147H6.13459V136.818ZM12.5964 147.249C15.2612 147.254 16.8968 145.285 16.9018 141.924C16.9068 138.583 15.2612 136.679 12.5964 136.679C9.93164 136.679 8.30096 138.578 8.29599 141.924C8.28604 145.275 9.93164 147.249 12.5964 147.249ZM12.5964 145.235C11.5375 145.235 10.8166 144.171 10.8265 141.924C10.8315 139.722 11.5424 138.678 12.5964 138.678C13.6554 138.678 14.3663 139.722 14.3713 141.924C14.3762 144.171 13.6603 145.235 12.5964 145.235ZM21.339 147H23.7452V145.762H23.8198C24.128 146.468 24.8141 147.109 25.9675 147.109C27.6578 147.109 29.0201 145.787 29.0201 143.187C29.0201 140.492 27.5783 139.264 25.9824 139.264C24.7743 139.264 24.1131 139.97 23.8198 140.671H23.7701V136.818H21.339V147ZM23.7203 143.182C23.7203 141.934 24.2374 141.163 25.1273 141.163C26.0272 141.163 26.5243 141.954 26.5243 143.182C26.5243 144.415 26.0272 145.215 25.1273 145.215C24.2374 145.215 23.7203 144.42 23.7203 143.182ZM30.294 147H32.7251V139.364H30.294V147ZM31.5121 138.474C32.2031 138.474 32.7599 137.952 32.7599 137.31C32.7599 136.669 32.2031 136.152 31.5121 136.152C30.826 136.152 30.2642 136.669 30.2642 137.31C30.2642 137.952 30.826 138.474 31.5121 138.474ZM36.7037 136.818H34.2725V147H36.7037V136.818ZM40.6822 136.818H38.2511V147H40.6822V136.818ZM45.7942 147.144C48.1955 147.144 49.6522 145.558 49.6522 143.207C49.6522 140.85 48.1955 139.264 45.7942 139.264C43.3929 139.264 41.9363 140.85 41.9363 143.207C41.9363 145.558 43.3929 147.144 45.7942 147.144ZM45.8091 145.31C44.9093 145.31 44.4121 144.455 44.4121 143.192C44.4121 141.924 44.9093 141.064 45.8091 141.064C46.6792 141.064 47.1763 141.924 47.1763 143.192C47.1763 144.455 46.6792 145.31 45.8091 145.31ZM53.3287 142.645C53.3336 141.775 53.8407 141.258 54.6113 141.258C55.3819 141.258 55.8393 141.765 55.8343 142.61V147H58.2654V142.133C58.2704 140.413 57.2214 139.264 55.6156 139.264C54.487 139.264 53.6319 139.836 53.2939 140.766H53.2093V139.364H50.8975V147H53.3287V142.645Z" fill="#15121D"/>
    <path d="M6.8592 16.8182H4.57724L2.06658 18.3793V20.5071L4.34357 19.1151H4.40323V27H6.8592V16.8182ZM13.0078 27.1392C15.3793 27.1392 16.9602 25.6477 16.9602 23.5497C16.9602 21.6108 15.608 20.2287 13.7784 20.2287C12.8139 20.2287 12.0135 20.6413 11.6754 21.2031H11.6158L11.8494 18.8018H16.3587V16.8182H9.82599L9.38352 22.3068L11.5561 22.7145C11.8295 22.2571 12.3963 21.9737 12.9929 21.9787C13.9276 21.9787 14.5938 22.6399 14.5888 23.6193C14.5938 24.5938 13.9375 25.25 13.0078 25.25C12.2173 25.25 11.5661 24.7578 11.5312 24.0071H9.14489C9.17472 25.8366 10.7805 27.1392 13.0078 27.1392ZM21.339 27H23.7452V25.7621H23.8198C24.128 26.468 24.8141 27.1094 25.9675 27.1094C27.6578 27.1094 29.0201 25.7869 29.0201 23.1868C29.0201 20.4922 27.5783 19.2642 25.9824 19.2642C24.7743 19.2642 24.1131 19.9702 23.8198 20.6712H23.7701V16.8182H21.339V27ZM23.7203 23.1818C23.7203 21.9339 24.2374 21.1634 25.1273 21.1634C26.0272 21.1634 26.5243 21.9538 26.5243 23.1818C26.5243 24.4148 26.0272 25.2152 25.1273 25.2152C24.2374 25.2152 23.7203 24.4197 23.7203 23.1818ZM30.294 27H32.7251V19.3636H30.294V27ZM31.5121 18.4737C32.2031 18.4737 32.7599 17.9517 32.7599 17.3104C32.7599 16.669 32.2031 16.152 31.5121 16.152C30.826 16.152 30.2642 16.669 30.2642 17.3104C30.2642 17.9517 30.826 18.4737 31.5121 18.4737ZM36.7037 16.8182H34.2725V27H36.7037V16.8182ZM40.6822 16.8182H38.2511V27H40.6822V16.8182ZM45.7942 27.1442C48.1955 27.1442 49.6522 25.5582 49.6522 23.2067C49.6522 20.8501 48.1955 19.2642 45.7942 19.2642C43.3929 19.2642 41.9363 20.8501 41.9363 23.2067C41.9363 25.5582 43.3929 27.1442 45.7942 27.1442ZM45.8091 25.3097C44.9093 25.3097 44.4121 24.4545 44.4121 23.1918C44.4121 21.924 44.9093 21.0639 45.8091 21.0639C46.6792 21.0639 47.1763 21.924 47.1763 23.1918C47.1763 24.4545 46.6792 25.3097 45.8091 25.3097ZM53.3287 22.6449C53.3336 21.7749 53.8407 21.2578 54.6113 21.2578C55.3819 21.2578 55.8393 21.7649 55.8343 22.6101V27H58.2654V22.1328C58.2704 20.4126 57.2214 19.2642 55.6156 19.2642C54.487 19.2642 53.6319 19.8359 53.2939 20.7656H53.2093V19.3636H50.8975V27H53.3287V22.6449Z" fill="#15121D"/>
    <path d="M461.333 97.073L78 382H654V12L461.333 97.073Z" fill="#F0554B"/>
    <path d="M461.333 180.241L78 382H654V120L461.333 180.241Z" fill="#F5776A"/>
    <path d="M461.333 234.916L78 382H654V191L461.333 234.916Z" fill="#FA9C8A"/>
    <path d="M461 276L78 381.5H653.5V244.5L461 276Z" fill="#FFCAB3"/>
    <line opacity="0.1" x1="78" y1="261.5" x2="654" y2="261.5" stroke="black"/>
    <line opacity="0.1" x1="78" y1="141.5" x2="654" y2="141.5" stroke="black"/>
    <line opacity="0.1" x1="78" y1="21.5" x2="654" y2="21.5" stroke="black"/>
</svg>
