<svg width="60" height="60" viewBox="0 0 60 60" fill="none" xmlns="http://www.w3.org/2000/svg">
    <path d="M42.7625 24.8125C42.7625 25.075 42.7625 25.3375 42.7625 25.5625C42.7625 33.325 36.8375 42.2875 26.0375 42.2875C22.7 42.2875 19.625 41.3125 17 39.6625C17.45 39.7 17.9375 39.7375 18.3875 39.7375C21.125 39.7375 23.675 38.8 25.7 37.225C23.1125 37.1875 20.9375 35.4625 20.225 33.1375C20.6 33.2125 20.9375 33.25 21.35 33.25C21.875 33.25 22.4 33.175 22.8875 33.025C20.1875 32.5 18.1625 30.1375 18.1625 27.2875C18.1625 27.25 18.1625 27.25 18.1625 27.2125C18.95 27.6625 19.85 27.925 20.825 27.9625C19.25 26.9125 18.2 25.1125 18.2 23.05C18.2 21.9625 18.5 20.95 18.9875 20.0875C21.875 23.65 26.225 25.975 31.1 26.2375C30.9875 25.825 30.95 25.3375 30.95 24.8875C30.95 21.625 33.575 19 36.8375 19C38.525 19 40.0625 19.7125 41.1125 20.8375C42.4625 20.575 43.7 20.0875 44.8625 19.4125C44.4125 20.8 43.475 21.925 42.275 22.675C43.475 22.525 44.6 22.225 45.65 21.7375C44.9 22.9375 43.925 23.9875 42.7625 24.8125Z" fill="white"/>
    <circle opacity="0.2" cx="30" cy="30" r="29.5" stroke="white"/>
</svg>
