<svg width="41" height="40" viewBox="0 0 41 40" fill="none" xmlns="http://www.w3.org/2000/svg">
<path d="M29.9095 27.7714L28.4633 26.3238C28.3111 26.2476 28.235 26.019 28.235 25.8667V14.2857C28.235 14.1333 28.3111 13.9048 28.4633 13.7524L29.9095 12.0762V12H24.7337L20.8518 21.8286L16.4371 12H11.109V12.0762L12.4791 13.981C12.7835 14.2857 12.8596 14.7429 12.8596 15.1238V23.5048C12.9358 23.9619 12.8596 24.4952 12.6313 24.9524L10.5762 27.7714V27.8476H16.0565V27.7714L14.0014 25.0286C13.773 24.5714 13.6969 24.1143 13.773 23.581V15.9619C13.8491 16.1143 13.9253 16.1143 14.0014 16.419L19.1772 28H19.2533L24.277 15.4286C24.2008 15.8857 24.2008 16.419 24.2008 16.8V25.7905C24.2008 26.019 24.1247 26.1714 23.9725 26.3238L22.4502 27.7714V27.8476H29.9095V27.7714Z" fill="#BCBCBC"/>
<circle opacity="0.3" cx="20.5742" cy="20" r="19.5" stroke="#BCBCBC"/>
</svg>
