<svg width="29" height="24" viewBox="0 0 29 24" fill="none" xmlns="http://www.w3.org/2000/svg">
<path d="M29 23.6571L26.8307 21.4857C26.6024 21.3714 26.4882 21.0286 26.4882 20.8V3.42857C26.4882 3.2 26.6024 2.85714 26.8307 2.62857L29 0.114284V0H21.2362L15.4134 14.7429L8.79134 0H0.799212V0.114284L2.85433 2.97143C3.31102 3.42857 3.4252 4.11428 3.4252 4.68571V17.2571C3.53937 17.9429 3.4252 18.7429 3.08268 19.4286L0 23.6571V23.7714H8.22047V23.6571L5.13779 19.5429C4.79528 18.8571 4.6811 18.1714 4.79528 17.3714V5.94286C4.90945 6.17143 5.02362 6.17143 5.13779 6.62857L12.9016 24H13.0157L20.5512 5.14286C20.437 5.82857 20.437 6.62857 20.437 7.2V20.6857C20.437 21.0286 20.3228 21.2571 20.0945 21.4857L17.811 23.6571V23.7714H29V23.6571Z" fill="white"/>
</svg>
