<svg width="40" height="40" viewBox="0 0 40 40" fill="none" xmlns="http://www.w3.org/2000/svg">
<path d="M28.0251 14.5261C26.5572 13.3518 24.7958 12.7646 22.9364 12.6667L22.6429 12.9603C24.3065 13.3518 25.7744 14.1346 27.1444 15.2111C25.4808 14.3304 23.6214 13.7432 21.6643 13.5475C21.0771 13.4496 20.5878 13.4496 20.0007 13.4496C19.4135 13.4496 18.9242 13.4496 18.337 13.5475C16.3799 13.7432 14.5205 14.3304 12.8569 15.2111C14.227 14.1346 15.6948 13.3518 17.3584 12.9603L17.0649 12.6667C15.2055 12.7646 13.4441 13.3518 11.9762 14.5261C10.3126 17.6576 9.43184 21.1805 9.33398 24.8013C10.8019 26.3671 12.8569 27.3456 15.0098 27.3456C15.0098 27.3456 15.6948 26.5628 16.1841 25.8778C14.912 25.5842 13.7377 24.8992 12.9548 23.8227C13.6398 24.2141 14.3248 24.6056 15.0098 24.8992C15.8906 25.2906 16.7713 25.4863 17.652 25.682C18.4349 25.7799 19.2178 25.8778 20.0007 25.8778C20.7835 25.8778 21.5664 25.7799 22.3493 25.682C23.23 25.4863 24.1107 25.2906 24.9915 24.8992C25.6765 24.6056 26.3615 24.2141 27.0465 23.8227C26.2636 24.8992 25.0893 25.5842 23.8172 25.8778C24.3065 26.5628 24.9915 27.3456 24.9915 27.3456C27.1444 27.3456 29.1994 26.3671 30.6673 24.8013C30.5695 21.1805 29.6887 17.6576 28.0251 14.5261ZM16.7713 23.0398C15.7927 23.0398 14.912 22.1591 14.912 21.0827C14.912 20.0062 15.7927 19.1255 16.7713 19.1255C17.7499 19.1255 18.6306 20.0062 18.6306 21.0827C18.6306 22.1591 17.7499 23.0398 16.7713 23.0398ZM23.23 23.0398C22.2514 23.0398 21.3707 22.1591 21.3707 21.0827C21.3707 20.0062 22.2514 19.1255 23.23 19.1255C24.2086 19.1255 25.0893 20.0062 25.0893 21.0827C25.0893 22.1591 24.2086 23.0398 23.23 23.0398Z" fill="#BCBCBC"/>
<circle opacity="0.3" cx="20" cy="20" r="19.5" stroke="#BCBCBC"/>
</svg>
