<svg width="60" height="60" viewBox="0 0 60 60" fill="none" xmlns="http://www.w3.org/2000/svg">
    <path d="M42.0367 21.789C39.8349 20.0275 37.1927 19.1468 34.4037 19L33.9633 19.4404C36.4587 20.0275 38.6606 21.2018 40.7156 22.8165C38.2202 21.4954 35.4312 20.6147 32.4954 20.3211C31.6147 20.1743 30.8807 20.1743 30 20.1743C29.1193 20.1743 28.3853 20.1743 27.5046 20.3211C24.5688 20.6147 21.7798 21.4954 19.2844 22.8165C21.3394 21.2018 23.5413 20.0275 26.0367 19.4404L25.5963 19C22.8073 19.1468 20.1651 20.0275 17.9633 21.789C15.4679 26.4862 14.1468 31.7706 14 37.2018C16.2018 39.5505 19.2844 41.0183 22.5138 41.0183C22.5138 41.0183 23.5413 39.844 24.2752 38.8165C22.367 38.3761 20.6055 37.3486 19.4312 35.7339C20.4587 36.3211 21.4862 36.9083 22.5138 37.3486C23.8349 37.9358 25.156 38.2294 26.4771 38.5229C27.6514 38.6697 28.8257 38.8165 30 38.8165C31.1743 38.8165 32.3486 38.6697 33.5229 38.5229C34.844 38.2294 36.1651 37.9358 37.4862 37.3486C38.5138 36.9083 39.5413 36.3211 40.5688 35.7339C39.3945 37.3486 37.633 38.3761 35.7248 38.8165C36.4587 39.844 37.4862 41.0183 37.4862 41.0183C40.7156 41.0183 43.7982 39.5505 46 37.2018C45.8532 31.7706 44.5321 26.4862 42.0367 21.789ZM25.156 34.5596C23.6881 34.5596 22.367 33.2385 22.367 31.6239C22.367 30.0092 23.6881 28.6881 25.156 28.6881C26.6239 28.6881 27.945 30.0092 27.945 31.6239C27.945 33.2385 26.6239 34.5596 25.156 34.5596ZM34.844 34.5596C33.3761 34.5596 32.055 33.2385 32.055 31.6239C32.055 30.0092 33.3761 28.6881 34.844 28.6881C36.3119 28.6881 37.633 30.0092 37.633 31.6239C37.633 33.2385 36.3119 34.5596 34.844 34.5596Z" fill="white"/>
    <circle opacity="0.2" cx="30" cy="30" r="29.5" stroke="white"/>
</svg>

