<svg width="61" height="61" viewBox="0 0 61 61" fill="none" xmlns="http://www.w3.org/2000/svg">
    <path d="M42.8961 22.4578C40.6942 20.6963 38.052 19.8156 35.263 19.6688L34.8227 20.1092C37.3181 20.6963 39.5199 21.8707 41.575 23.4853C39.0796 22.1642 36.2906 21.2835 33.3548 20.9899C32.4741 20.8431 31.7401 20.8431 30.8594 20.8431C29.9786 20.8431 29.2447 20.8431 28.364 20.9899C25.4282 21.2835 22.6392 22.1642 20.1438 23.4853C22.1988 21.8707 24.4007 20.6963 26.8961 20.1092L26.4557 19.6688C23.6667 19.8156 21.0245 20.6963 18.8227 22.4578C16.3273 27.1551 15.0062 32.4395 14.8594 37.8707C17.0612 40.2193 20.1438 41.6872 23.3731 41.6872C23.3731 41.6872 24.4007 40.5129 25.1346 39.4853C23.2263 39.045 21.4649 38.0174 20.2906 36.4028C21.3181 36.9899 22.3456 37.5771 23.3731 38.0174C24.6942 38.6046 26.0153 38.8982 27.3364 39.1918C28.5108 39.3385 29.6851 39.4853 30.8594 39.4853C32.0337 39.4853 33.208 39.3385 34.3823 39.1918C35.7034 38.8982 37.0245 38.6046 38.3456 38.0174C39.3731 37.5771 40.4007 36.9899 41.4282 36.4028C40.2539 38.0174 38.4924 39.045 36.5841 39.4853C37.3181 40.5129 38.3456 41.6872 38.3456 41.6872C41.575 41.6872 44.6575 40.2193 46.8594 37.8707C46.7126 32.4395 45.3915 27.1551 42.8961 22.4578ZM26.0153 35.2285C24.5474 35.2285 23.2263 33.9074 23.2263 32.2927C23.2263 30.678 24.5474 29.3569 26.0153 29.3569C27.4832 29.3569 28.8043 30.678 28.8043 32.2927C28.8043 33.9074 27.4832 35.2285 26.0153 35.2285ZM35.7034 35.2285C34.2355 35.2285 32.9144 33.9074 32.9144 32.2927C32.9144 30.678 34.2355 29.3569 35.7034 29.3569C37.1713 29.3569 38.4924 30.678 38.4924 32.2927C38.4924 33.9074 37.1713 35.2285 35.7034 35.2285Z" fill="url(#paint0_linear)"/>
    <circle cx="30.8594" cy="30.6688" r="29.5" stroke="url(#paint1_linear)"/>
    <defs>
        <linearGradient id="paint0_linear" x1="14.8594" y1="30.678" x2="46.8594" y2="30.678" gradientUnits="userSpaceOnUse">
            <stop stop-color="#FFC9B3"/>
            <stop offset="1" stop-color="#F67D75"/>
        </linearGradient>
        <linearGradient id="paint1_linear" x1="0.859375" y1="30.6689" x2="60.8594" y2="30.6689" gradientUnits="userSpaceOnUse">
            <stop stop-color="#FFC9B3"/>
            <stop offset="1" stop-color="#F67D75"/>
        </linearGradient>
    </defs>
</svg>

