<svg width="61" height="61" viewBox="0 0 61 61" fill="none" xmlns="http://www.w3.org/2000/svg">
    <path fill-rule="evenodd" clip-rule="evenodd" d="M46.1962 30.203C46.5842 30.7566 46.8038 31.4106 46.8285 32.0861C46.8387 32.7474 46.6616 33.3981 46.3176 33.9629C45.9736 34.5278 45.4768 34.9837 44.8845 35.2781C44.9115 35.6296 44.9115 35.9826 44.8845 36.3341C44.8845 41.7101 38.6205 46.0781 30.8925 46.0781C23.1645 46.0781 16.9005 41.7101 16.9005 36.3341C16.8735 35.9826 16.8735 35.6296 16.9005 35.2781C16.4389 35.066 16.0289 34.7561 15.699 34.3698C15.369 33.9835 15.127 33.5301 14.9898 33.041C14.8525 32.5519 14.8232 32.0388 14.9039 31.5373C14.9846 31.0357 15.1734 30.5577 15.4573 30.1364C15.7411 29.7151 16.1131 29.3605 16.5476 29.0972C16.9821 28.834 17.4686 28.6684 17.9734 28.6118C18.4783 28.5553 18.9894 28.6092 19.4713 28.7699C19.9533 28.9305 20.3945 29.194 20.7645 29.5421C23.53 27.6666 26.7834 26.6405 30.1245 26.5901L31.9005 18.2621C31.9205 18.1657 31.9593 18.0742 32.0149 17.9929C32.0705 17.9117 32.1416 17.8422 32.2242 17.7886C32.3068 17.7351 32.3992 17.6984 32.4961 17.6808C32.593 17.6632 32.6923 17.665 32.7885 17.6861L38.6685 18.8621C38.9557 18.3688 39.4093 17.9939 39.9479 17.8049C40.4865 17.6158 41.0749 17.6249 41.6074 17.8306C42.1399 18.0362 42.5816 18.4249 42.8534 18.9269C43.1251 19.4289 43.209 20.0113 43.09 20.5696C42.9711 21.1279 42.657 21.6255 42.2042 21.9731C41.7514 22.3207 41.1895 22.4956 40.6194 22.4662C40.0494 22.4369 39.5084 22.2053 39.0937 21.8131C38.6789 21.4209 38.4176 20.8937 38.3565 20.3261L33.2205 19.2461L31.6605 26.7341C34.961 26.8049 38.1703 27.8302 40.9005 29.6861C41.3882 29.218 42.0009 28.901 42.6648 28.7732C43.3286 28.6455 44.0152 28.7125 44.6418 28.9662C45.2684 29.2199 45.8082 29.6494 46.1962 30.203ZM36.3518 36.883C37.6764 36.883 38.7502 35.8092 38.7502 34.4846C38.7502 33.1599 37.6764 32.0861 36.3518 32.0861C35.0271 32.0861 33.9533 33.1599 33.9533 34.4846C33.9533 35.8092 35.0271 36.883 36.3518 36.883ZM27.633 34.4846C27.633 35.8092 26.5592 36.883 25.2346 36.883C23.91 36.883 22.8361 35.8092 22.8361 34.4846C22.8361 33.1599 23.91 32.0861 25.2346 32.0861C26.5592 32.0861 27.633 33.1599 27.633 34.4846ZM30.8442 41.6573L30.8323 41.6574L30.8205 41.6573V41.6575C29.1099 41.6678 27.845 41.2846 27.0171 40.9092C26.6001 40.7201 26.2923 40.5322 26.0934 40.3958C25.994 40.3276 25.922 40.2724 25.8773 40.2366C25.8549 40.2186 25.8394 40.2055 25.8307 40.1981L25.8237 40.192C25.8235 40.1917 25.8232 40.1915 25.823 40.1913C25.5586 39.9506 25.1491 39.9687 24.9069 40.2322C24.664 40.4965 24.6813 40.9077 24.9457 41.1506L24.9467 41.1516L24.9479 41.1527L24.9508 41.1553L24.9587 41.1624L24.9827 41.1834C25.0024 41.2004 25.0294 41.223 25.0638 41.2506C25.1324 41.3057 25.2306 41.3804 25.3582 41.4679C25.6135 41.643 25.9873 41.8696 26.4802 42.0932C27.4637 42.5391 28.915 42.9697 30.8323 42.9575C32.7497 42.9697 34.201 42.5391 35.1844 42.0932C35.6774 41.8696 36.0512 41.643 36.3064 41.4679C36.4341 41.3804 36.5322 41.3057 36.6009 41.2506C36.6352 41.223 36.6623 41.2004 36.6819 41.1834L36.7059 41.1624L36.7138 41.1553L36.7168 41.1527L36.718 41.1516L36.719 41.1506C36.9833 40.9077 37.0007 40.4965 36.7578 40.2322C36.5156 39.9687 36.1061 39.9506 35.8417 40.1913L35.841 40.192L35.8339 40.1981C35.8253 40.2055 35.8098 40.2186 35.7874 40.2366C35.7427 40.2724 35.6706 40.3276 35.5712 40.3958C35.3724 40.5322 35.0646 40.7201 34.6475 40.9092C33.8197 41.2846 32.5548 41.6678 30.8442 41.6575V41.6573Z" fill="url(#paint0_linear)"/>
    <circle cx="30.8594" cy="30.6688" r="29.5" stroke="url(#paint1_linear)"/>
    <defs>
        <linearGradient id="paint0_linear" x1="14.8594" y1="31.8735" x2="46.8289" y2="31.8735" gradientUnits="userSpaceOnUse">
            <stop stop-color="#FFC9B3"/>
            <stop offset="1" stop-color="#F67D75"/>
        </linearGradient>
        <linearGradient id="paint1_linear" x1="0.859375" y1="30.6689" x2="60.8594" y2="30.6689" gradientUnits="userSpaceOnUse">
            <stop stop-color="#FFC9B3"/>
            <stop offset="1" stop-color="#F67D75"/>
        </linearGradient>
    </defs>
</svg>
