<svg width="32" height="29" viewBox="0 0 32 29" fill="none" xmlns="http://www.w3.org/2000/svg">
<path fill-rule="evenodd" clip-rule="evenodd" d="M31.3369 12.5342C31.7249 13.0877 31.9444 13.7417 31.9691 14.4173C31.9794 15.0786 31.8022 15.7292 31.4582 16.2941C31.1142 16.859 30.6174 17.3149 30.0251 17.6093C30.0522 17.9608 30.0522 18.3138 30.0251 18.6653C30.0251 24.0413 23.7611 28.4093 16.0331 28.4093C8.30514 28.4093 2.04114 24.0413 2.04114 18.6653C2.01412 18.3138 2.01412 17.9608 2.04114 17.6093C1.57952 17.3972 1.16954 17.0873 0.839606 16.701C0.509671 16.3147 0.267674 15.8613 0.130385 15.3722C-0.00690459 14.8831 -0.0362023 14.37 0.0445219 13.8685C0.125246 13.3669 0.314061 12.8889 0.597883 12.4676C0.881705 12.0462 1.25374 11.6917 1.68822 11.4284C2.1227 11.1652 2.60922 10.9995 3.11407 10.943C3.61892 10.8865 4.13003 10.9404 4.61197 11.101C5.09391 11.2617 5.53516 11.5252 5.90514 11.8733C8.67059 9.99774 11.9241 8.97165 15.2651 8.92128L17.0411 0.593281C17.0611 0.49687 17.1 0.405377 17.1555 0.324102C17.2111 0.242828 17.2822 0.17339 17.3648 0.119813C17.4474 0.0662358 17.5398 0.029585 17.6367 0.0119849C17.7336 -0.00561527 17.833 -0.00381488 17.9291 0.0172818L23.8091 1.19328C24.0963 0.699932 24.5499 0.325085 25.0885 0.136028C25.6271 -0.0530294 26.2155 -0.0439171 26.748 0.161729C27.2805 0.367375 27.7223 0.756089 27.994 1.25809C28.2657 1.7601 28.3496 2.34252 28.2307 2.90082C28.1117 3.45911 27.7976 3.95672 27.3448 4.30432C26.892 4.65191 26.3301 4.82674 25.7601 4.79741C25.19 4.76808 24.649 4.53651 24.2343 4.14428C23.8195 3.75205 23.5582 3.22484 23.4971 2.65728L18.3611 1.57728L16.8011 9.06528C20.1016 9.13608 23.311 10.1614 26.0411 12.0173C26.5289 11.5492 27.1416 11.2322 27.8054 11.1044C28.4692 10.9767 29.1558 11.0437 29.7824 11.2974C30.409 11.5511 30.9489 11.9806 31.3369 12.5342ZM21.4924 19.2142C22.817 19.2142 23.8908 18.1404 23.8908 16.8157C23.8908 15.4911 22.817 14.4173 21.4924 14.4173C20.1678 14.4173 19.0939 15.4911 19.0939 16.8157C19.0939 18.1404 20.1678 19.2142 21.4924 19.2142ZM12.7736 16.8157C12.7736 18.1404 11.6998 19.2142 10.3752 19.2142C9.05058 19.2142 7.97676 18.1404 7.97676 16.8157C7.97676 15.4911 9.05058 14.4173 10.3752 14.4173C11.6998 14.4173 12.7736 15.4911 12.7736 16.8157ZM15.9848 23.9885L15.973 23.9886L15.9611 23.9885V23.9887C14.2505 23.999 12.9856 23.6158 12.1577 23.2404C11.7407 23.0513 11.4329 22.8633 11.2341 22.727C11.1347 22.6588 11.0626 22.6036 11.0179 22.5677C10.9955 22.5498 10.98 22.5367 10.9713 22.5292L10.9643 22.5231C10.9641 22.5229 10.9639 22.5227 10.9636 22.5225C10.6992 22.2818 10.2897 22.2998 10.0475 22.5634C9.80459 22.8277 9.82196 23.2389 10.0863 23.4818L10.0873 23.4828L10.0885 23.4839L10.0914 23.4865L10.0993 23.4936L10.1234 23.5146C10.143 23.5315 10.17 23.5542 10.2044 23.5817C10.2731 23.6368 10.3712 23.7116 10.4988 23.7991C10.7541 23.9742 11.1279 24.2008 11.6209 24.4243C12.6043 24.8703 14.0556 25.3008 15.973 25.2886C17.8903 25.3008 19.3416 24.8703 20.3251 24.4243C20.818 24.2008 21.1918 23.9742 21.4471 23.7991C21.5747 23.7116 21.6728 23.6368 21.7415 23.5817C21.7759 23.5542 21.8029 23.5315 21.8225 23.5146L21.8466 23.4936L21.8545 23.4865L21.8574 23.4839L21.8586 23.4828L21.8596 23.4818C22.124 23.2389 22.1413 22.8277 21.8984 22.5634C21.6562 22.2998 21.2467 22.2818 20.9823 22.5225L20.9816 22.5231L20.9746 22.5292C20.9659 22.5367 20.9504 22.5498 20.928 22.5677C20.8833 22.6036 20.8112 22.6588 20.7118 22.727C20.513 22.8633 20.2052 23.0513 19.7882 23.2404C18.9603 23.6158 17.6954 23.999 15.9848 23.9887V23.9885Z" fill="white"/>
</svg>
