<svg width="61" height="61" viewBox="0 0 61 61" fill="none" xmlns="http://www.w3.org/2000/svg">
    <path d="M44.8594 42.1093L42.6901 39.9379C42.4617 39.8236 42.3476 39.4807 42.3476 39.2522V21.8807C42.3476 21.6521 42.4617 21.3093 42.6901 21.0807L44.8594 18.5664V18.4521H37.0956L31.2728 33.195L24.6507 18.4521H16.6586V18.5664L18.7137 21.4236C19.1704 21.8807 19.2846 22.5664 19.2846 23.1379V35.7093C19.3987 36.395 19.2846 37.195 18.9421 37.8807L15.8594 42.1093V42.2236H24.0798V42.1093L20.9972 37.995C20.6547 37.3093 20.5405 36.6236 20.6547 35.8236V24.395C20.7688 24.6236 20.883 24.6236 20.9972 25.0807L28.7609 42.4521H28.8751L36.4106 23.595C36.2964 24.2807 36.2964 25.0807 36.2964 25.6521V39.1379C36.2964 39.4807 36.1822 39.7093 35.9539 39.9379L33.6704 42.1093V42.2236H44.8594V42.1093Z" fill="white"/>
    <circle opacity="0.2" cx="30.8594" cy="30.4521" r="29.5" stroke="white"/>
</svg>
