<svg width="41" height="40" viewBox="0 0 41 40" fill="none" xmlns="http://www.w3.org/2000/svg">
<path fill-rule="evenodd" clip-rule="evenodd" d="M30.7994 19.6896C31.0581 20.0587 31.2045 20.4946 31.221 20.945C31.2278 21.3859 31.1097 21.8197 30.8804 22.1962C30.651 22.5728 30.3198 22.8768 29.925 23.073C29.943 23.3073 29.943 23.5427 29.925 23.777C29.925 27.361 25.749 30.273 20.597 30.273C15.445 30.273 11.269 27.361 11.269 23.777C11.2509 23.5427 11.2509 23.3073 11.269 23.073C10.9612 22.9316 10.6879 22.725 10.4679 22.4675C10.248 22.21 10.0867 21.9077 9.99513 21.5816C9.9036 21.2556 9.88407 20.9135 9.93788 20.5791C9.9917 20.2448 10.1176 19.9261 10.3068 19.6452C10.496 19.3643 10.744 19.1279 11.0337 18.9524C11.3233 18.7769 11.6477 18.6665 11.9842 18.6288C12.3208 18.5911 12.6616 18.6271 12.9828 18.7342C13.3041 18.8413 13.5983 19.0169 13.845 19.249C15.6886 17.9987 17.8576 17.3146 20.085 17.281L21.269 11.729C21.2823 11.6647 21.3082 11.6037 21.3452 11.5496C21.3823 11.4954 21.4297 11.4491 21.4848 11.4134C21.5398 11.3777 21.6014 11.3532 21.666 11.3415C21.7306 11.3298 21.7969 11.331 21.861 11.345L25.781 12.129C25.9724 11.8001 26.2748 11.5502 26.6339 11.4242C26.9929 11.2981 27.3852 11.3042 27.7402 11.4413C28.0952 11.5784 28.3897 11.8376 28.5709 12.1722C28.752 12.5069 28.808 12.8952 28.7286 13.2674C28.6493 13.6396 28.4399 13.9713 28.1381 14.203C27.8362 14.4348 27.4616 14.5513 27.0816 14.5318C26.7015 14.5122 26.3409 14.3578 26.0644 14.0964C25.7879 13.8349 25.6137 13.4834 25.573 13.105L22.149 12.385L21.109 17.377C23.3093 17.4242 25.4488 18.1078 27.269 19.345C27.5941 19.033 28.0026 18.8216 28.4451 18.7364C28.8877 18.6513 29.3454 18.696 29.7632 18.8651C30.1809 19.0342 30.5408 19.3206 30.7994 19.6896ZM24.2358 24.1428C25.1188 24.1428 25.8347 23.4269 25.8347 22.5439C25.8347 21.6608 25.1188 20.9449 24.2358 20.9449C23.3527 20.9449 22.6368 21.6608 22.6368 22.5439C22.6368 23.4269 23.3527 24.1428 24.2358 24.1428ZM18.423 22.5439C18.423 23.4269 17.7071 24.1428 16.8241 24.1428C15.941 24.1428 15.2251 23.4269 15.2251 22.5439C15.2251 21.6608 15.941 20.9449 16.8241 20.9449C17.7071 20.9449 18.423 21.6608 18.423 22.5439ZM20.5482 27.3258L20.556 27.3259L20.5639 27.3258V27.3259C21.7043 27.3328 22.5476 27.0773 23.0996 26.827C23.3776 26.701 23.5828 26.5757 23.7154 26.4848C23.7816 26.4393 23.8297 26.4025 23.8595 26.3786C23.8744 26.3666 23.8847 26.3579 23.8905 26.3529L23.8952 26.3489L23.8952 26.3489C24.0715 26.188 24.3448 26.1999 24.5064 26.3757C24.6683 26.5519 24.6568 26.8261 24.4805 26.988L24.4799 26.9886L24.4791 26.9894L24.4771 26.9911L24.4718 26.9959L24.4558 27.0099C24.4427 27.0211 24.4247 27.0363 24.4018 27.0546C24.356 27.0914 24.2906 27.1412 24.2055 27.1995C24.0353 27.3162 23.7861 27.4673 23.4575 27.6163C22.8018 27.9137 21.8343 28.2007 20.556 28.1925C19.2778 28.2007 18.3102 27.9137 17.6546 27.6163C17.326 27.4673 17.0768 27.3162 16.9066 27.1995C16.8215 27.1412 16.7561 27.0914 16.7103 27.0546C16.6874 27.0363 16.6694 27.0211 16.6563 27.0099L16.6402 26.9959L16.635 26.9911L16.633 26.9894L16.6322 26.9886L16.6315 26.988C16.4553 26.8261 16.4437 26.5519 16.6057 26.3757C16.7673 26.1999 17.0406 26.188 17.2169 26.3489L17.2163 26.3484L17.2216 26.3529C17.2273 26.3579 17.2377 26.3666 17.2526 26.3786C17.2824 26.4025 17.3305 26.4393 17.3967 26.4848C17.5293 26.5757 17.7345 26.701 18.0125 26.827C18.5644 27.0773 19.4077 27.3328 20.5482 27.3259V27.3258Z" fill="#BCBCBC"/>
<circle opacity="0.3" cx="20.5742" cy="20" r="19.5" stroke="#BCBCBC"/>
</svg>
