<svg width="61" height="61" viewBox="0 0 61 61" fill="none" xmlns="http://www.w3.org/2000/svg">
    <path fill-rule="evenodd" clip-rule="evenodd" d="M37.1144 42.6359C38.7919 43.3698 39.421 41.8321 39.421 41.8321L43.8594 19.5352C43.8244 18.0324 41.7974 18.9411 41.7974 18.9411L16.9493 28.6916C16.9493 28.6916 15.7611 29.111 15.8659 29.8449C15.9708 30.5788 16.9144 30.9283 16.9144 30.9283L23.1701 33.0252C23.1701 33.0252 25.0573 39.211 25.4417 40.3992C25.7912 41.5525 26.1057 41.5875 26.1057 41.5875C26.4552 41.7272 26.7697 41.4826 26.7697 41.4826L30.8237 37.8131L37.1144 42.6359ZM38.1978 23.4843C38.1978 23.4843 39.0715 22.9601 39.0365 23.4843C39.0365 23.4843 39.1763 23.5542 38.722 24.0435C38.3026 24.4628 28.4123 33.3397 27.0843 34.5279C26.9794 34.5978 26.9095 34.7026 26.9095 34.8424L26.5251 38.1275C26.4552 38.477 26.0009 38.512 25.896 38.1974L24.2535 32.8154C24.1836 32.6057 24.2535 32.3611 24.4632 32.2213L38.1978 23.4843Z" fill="url(#paint0_linear)"/>
    <circle cx="30.8594" cy="30.6688" r="29.5" stroke="url(#paint1_linear)"/>
    <defs>
        <linearGradient id="paint0_linear" x1="15.8594" y1="30.7516" x2="43.8594" y2="30.7516" gradientUnits="userSpaceOnUse">
            <stop stop-color="#FFC9B3"/>
            <stop offset="1" stop-color="#F67D75"/>
        </linearGradient>
        <linearGradient id="paint1_linear" x1="0.859375" y1="30.6689" x2="60.8594" y2="30.6689" gradientUnits="userSpaceOnUse">
            <stop stop-color="#FFC9B3"/>
            <stop offset="1" stop-color="#F67D75"/>
        </linearGradient>
    </defs>
</svg>
