<svg fill="none" viewBox="0 0 60 60" xmlns="http://www.w3.org/2000/svg">
    <path fill-rule="evenodd" clip-rule="evenodd" d="m41.819 33.167a1.71 1.71 0 0 1-1.7434 0.11706c-0.64385-0.36373-0.99086-1.2166-0.99086-2.3789v-3.5621c0-1.71-0.67729-2.9266-1.8103-3.2569-1.9148-0.56023-3.3447 1.7852-3.8965 2.6674l-3.3865 5.4811v-6.6893c-0.03762-1.5427-0.53933-2.4667-1.4884-2.7426-0.62712-0.18396-1.5678-0.10869-2.4834 1.2877l-7.5715 12.154a13.379 13.379 0 0 1-1.5218-6.2461c0-7.3248 5.8531-13.282 13.065-13.282 7.2119 0 13.086 5.9577 13.086 13.282v0.03762 0.03762c0.07107 1.4173-0.38882 2.5461-1.2542 3.0938zm4.1808-3.1649v-0.07107c-0.058535-8.9261-7.2161-16.167-16.008-16.167-8.7923 0-15.992 7.283-15.992 16.234 0 8.9511 7.1743 16.238 15.992 16.238a15.808 15.808 0 0 0 10.87-4.3313 1.4884 1.4884 0 0 0 0.07526-2.0904 1.434 1.434 0 0 0-2.0319-0.09616 12.931 12.931 0 0 1-18.634-0.86961l6.8147-10.954v5.0546c0 2.4291 0.94068 3.2151 1.7309 3.445 0.79018 0.22994 1.9984 0.07107 3.2652-1.9859l3.7627-6.0915c0.11706-0.1965 0.22994-0.36373 0.33028-0.51006v3.098c0 2.2702 0.91142 4.0847 2.5085 4.9794a4.5989 4.5989 0 0 0 4.6867-0.18814c1.7559-1.1414 2.7134-3.2067 2.613-5.6943z" style="fill:url(#paint0_linear);stroke-width:.41808"/>
    <circle cx="30.8594" cy="30.6688" r="29" stroke="url(#paint1_linear)"/>
    <defs>
        <linearGradient id="paint0_linear" x1="14.8594" y1="30.678" x2="46.8594" y2="30.678" gradientUnits="userSpaceOnUse">
            <stop stop-color="#FFC9B3"/>
            <stop offset="1" stop-color="#F67D75"/>
        </linearGradient>
        <linearGradient id="paint1_linear" x1="0.859375" y1="30.6689" x2="60.8594" y2="30.6689" gradientUnits="userSpaceOnUse">
            <stop stop-color="#FFC9B3"/>
            <stop offset="1" stop-color="#F67D75"/>
        </linearGradient>
    </defs>
</svg>