<svg width="60" height="60" viewBox="0 0 60 60" fill="none" xmlns="http://www.w3.org/2000/svg">
    <path fill-rule="evenodd" clip-rule="evenodd" d="M36.255 41.9671C37.9325 42.701 38.5616 41.1633 38.5616 41.1633L43 18.8664C42.9651 17.3636 40.9381 18.2722 40.9381 18.2722L16.0899 28.0228C16.0899 28.0228 14.9017 28.4421 15.0066 29.1761C15.1114 29.91 16.055 30.2595 16.055 30.2595L22.3107 32.3563C22.3107 32.3563 24.1979 38.5422 24.5823 39.7304C24.9318 40.8837 25.2464 40.9186 25.2464 40.9186C25.5958 41.0584 25.9104 40.8138 25.9104 40.8138L29.9643 37.1442L36.255 41.9671ZM37.3384 22.8155C37.3384 22.8155 38.2121 22.2912 38.1772 22.8155C38.1772 22.8155 38.317 22.8854 37.8626 23.3746C37.4433 23.794 27.5529 32.6708 26.2249 33.8591C26.1201 33.929 26.0502 34.0338 26.0502 34.1736L25.6657 37.4587C25.5958 37.8082 25.1415 37.8432 25.0367 37.5286L23.3941 32.1466C23.3242 31.9369 23.3941 31.6923 23.6038 31.5525L37.3384 22.8155Z" fill="white"/>
    <circle opacity="0.2" cx="30" cy="30" r="29.5" stroke="white"/>
</svg>
