<svg width="61" height="61" viewBox="0 0 61 61" fill="none" xmlns="http://www.w3.org/2000/svg">
    <path d="M43.6219 25.4813C43.6219 25.7438 43.6219 26.0063 43.6219 26.2313C43.6219 33.9938 37.6969 42.9563 26.8969 42.9563C23.5594 42.9563 20.4844 41.9813 17.8594 40.3313C18.3094 40.3688 18.7969 40.4063 19.2469 40.4063C21.9844 40.4063 24.5344 39.4688 26.5594 37.8938C23.9719 37.8563 21.7969 36.1313 21.0844 33.8063C21.4594 33.8813 21.7969 33.9188 22.2094 33.9188C22.7344 33.9188 23.2594 33.8438 23.7469 33.6938C21.0469 33.1688 19.0219 30.8063 19.0219 27.9563C19.0219 27.9188 19.0219 27.9188 19.0219 27.8813C19.8094 28.3313 20.7094 28.5938 21.6844 28.6313C20.1094 27.5813 19.0594 25.7813 19.0594 23.7188C19.0594 22.6313 19.3594 21.6188 19.8469 20.7563C22.7344 24.3188 27.0844 26.6438 31.9594 26.9063C31.8469 26.4938 31.8094 26.0063 31.8094 25.5563C31.8094 22.2938 34.4344 19.6688 37.6969 19.6688C39.3844 19.6688 40.9219 20.3813 41.9719 21.5063C43.3219 21.2438 44.5594 20.7563 45.7219 20.0813C45.2719 21.4688 44.3344 22.5938 43.1344 23.3438C44.3344 23.1938 45.4594 22.8938 46.5094 22.4063C45.7594 23.6063 44.7844 24.6563 43.6219 25.4813Z" fill="url(#paint0_linear)"/>
    <circle cx="30.8594" cy="30.6688" r="29.5" stroke="url(#paint1_linear)"/>
    <defs>
        <linearGradient id="paint0_linear" x1="17.8594" y1="31.3126" x2="46.5094" y2="31.3126" gradientUnits="userSpaceOnUse">
            <stop stop-color="#FFC9B3"/>
            <stop offset="1" stop-color="#F67D75"/>
        </linearGradient>
        <linearGradient id="paint1_linear" x1="0.859375" y1="30.6689" x2="60.8594" y2="30.6689" gradientUnits="userSpaceOnUse">
            <stop stop-color="#FFC9B3"/>
            <stop offset="1" stop-color="#F67D75"/>
        </linearGradient>
    </defs>
</svg>
