<svg width="60" height="60" viewBox="0 0 60 60" fill="none" xmlns="http://www.w3.org/2000/svg">
    <path fill-rule="evenodd" clip-rule="evenodd" d="M45.3369 29.5342C45.7249 30.0877 45.9444 30.7417 45.9691 31.4173C45.9794 32.0786 45.8022 32.7292 45.4582 33.2941C45.1142 33.859 44.6174 34.3149 44.0251 34.6093C44.0522 34.9608 44.0522 35.3138 44.0251 35.6653C44.0251 41.0413 37.7611 45.4093 30.0331 45.4093C22.3051 45.4093 16.0411 41.0413 16.0411 35.6653C16.0141 35.3138 16.0141 34.9608 16.0411 34.6093C15.5795 34.3972 15.1695 34.0873 14.8396 33.701C14.5097 33.3147 14.2677 32.8613 14.1304 32.3722C13.9931 31.8831 13.9638 31.37 14.0445 30.8685C14.1252 30.3669 14.3141 29.8889 14.5979 29.4676C14.8817 29.0462 15.2537 28.6917 15.6882 28.4284C16.1227 28.1652 16.6092 27.9995 17.1141 27.943C17.6189 27.8865 18.13 27.9404 18.612 28.101C19.0939 28.2617 19.5352 28.5252 19.9051 28.8733C22.6706 26.9977 25.9241 25.9717 29.2651 25.9213L31.0411 17.5933C31.0611 17.4969 31.1 17.4054 31.1555 17.3241C31.2111 17.2428 31.2822 17.1734 31.3648 17.1198C31.4474 17.0662 31.5398 17.0296 31.6367 17.012C31.7336 16.9944 31.833 16.9962 31.9291 17.0173L37.8091 18.1933C38.0963 17.6999 38.5499 17.3251 39.0885 17.136C39.6271 16.947 40.2155 16.9561 40.748 17.1617C41.2805 17.3674 41.7223 17.7561 41.994 18.2581C42.2657 18.7601 42.3496 19.3425 42.2307 19.9008C42.1117 20.4591 41.7976 20.9567 41.3448 21.3043C40.892 21.6519 40.3301 21.8267 39.7601 21.7974C39.19 21.7681 38.649 21.5365 38.2343 21.1443C37.8195 20.7521 37.5582 20.2248 37.4971 19.6573L32.3611 18.5773L30.8011 26.0653C34.1016 26.1361 37.311 27.1614 40.0411 29.0173C40.5289 28.5492 41.1416 28.2322 41.8054 28.1044C42.4692 27.9767 43.1558 28.0437 43.7824 28.2974C44.409 28.5511 44.9489 28.9806 45.3369 29.5342ZM35.4924 36.2142C36.817 36.2142 37.8908 35.1404 37.8908 33.8157C37.8908 32.4911 36.817 31.4173 35.4924 31.4173C34.1678 31.4173 33.0939 32.4911 33.0939 33.8157C33.0939 35.1404 34.1678 36.2142 35.4924 36.2142ZM26.7736 33.8157C26.7736 35.1404 25.6998 36.2142 24.3752 36.2142C23.0506 36.2142 21.9768 35.1404 21.9768 33.8157C21.9768 32.4911 23.0506 31.4173 24.3752 31.4173C25.6998 31.4173 26.7736 32.4911 26.7736 33.8157ZM29.9848 40.9885L29.973 40.9886L29.9611 40.9885V40.9887C28.2505 40.999 26.9856 40.6158 26.1577 40.2404C25.7407 40.0513 25.4329 39.8633 25.2341 39.727C25.1347 39.6588 25.0626 39.6036 25.0179 39.5677C24.9955 39.5498 24.98 39.5367 24.9713 39.5292L24.9643 39.5231C24.9641 39.5229 24.9639 39.5227 24.9636 39.5225C24.6992 39.2818 24.2897 39.2998 24.0475 39.5634C23.8046 39.8277 23.822 40.2389 24.0863 40.4818L24.0873 40.4828L24.0885 40.4839L24.0914 40.4865L24.0993 40.4936L24.1234 40.5146C24.143 40.5315 24.17 40.5542 24.2044 40.5817C24.2731 40.6368 24.3712 40.7116 24.4988 40.7991C24.7541 40.9742 25.1279 41.2008 25.6209 41.4243C26.6043 41.8703 28.0556 42.3008 29.973 42.2886C31.8903 42.3008 33.3416 41.8703 34.3251 41.4243C34.818 41.2008 35.1918 40.9742 35.4471 40.7991C35.5747 40.7116 35.6728 40.6368 35.7415 40.5817C35.7759 40.5542 35.8029 40.5315 35.8225 40.5146L35.8466 40.4936L35.8545 40.4865L35.8574 40.4839L35.8586 40.4828L35.8596 40.4818C36.124 40.2389 36.1413 39.8277 35.8984 39.5634C35.6562 39.2998 35.2467 39.2818 34.9823 39.5225L34.9816 39.5231L34.9746 39.5292C34.9659 39.5367 34.9504 39.5498 34.928 39.5677C34.8833 39.6036 34.8112 39.6588 34.7118 39.727C34.513 39.8633 34.2052 40.0513 33.7882 40.2404C32.9603 40.6158 31.6954 40.999 29.9848 40.9887V40.9885Z" fill="white"/>
    <circle opacity="0.2" cx="30" cy="30" r="29.5" stroke="white"/>
</svg>
