<svg width="41" height="40" viewBox="0 0 41 40" fill="none" xmlns="http://www.w3.org/2000/svg">
<path fill-rule="evenodd" clip-rule="evenodd" d="M24.7462 27.978C25.8645 28.4673 26.2839 27.4422 26.2839 27.4422L29.2428 12.5776C29.2195 11.5757 27.8682 12.1815 27.8682 12.1815L11.3028 18.6818C11.3028 18.6818 10.5106 18.9614 10.5805 19.4507C10.6504 19.94 11.2795 20.173 11.2795 20.173L15.45 21.5709C15.45 21.5709 16.7081 25.6948 16.9644 26.4869C17.1974 27.2558 17.4071 27.2791 17.4071 27.2791C17.6401 27.3723 17.8497 27.2092 17.8497 27.2092L20.5524 24.7628L24.7462 27.978ZM25.4669 15.2103C25.4669 15.2103 26.0494 14.8608 26.0261 15.2103C26.0261 15.2103 26.1193 15.2569 25.8164 15.5831C25.5368 15.8627 18.9433 21.7805 18.0579 22.5727C17.988 22.6193 17.9415 22.6892 17.9415 22.7824L17.6852 24.9725C17.6386 25.2055 17.3357 25.2288 17.2658 25.0191L16.1707 21.4311C16.1241 21.2913 16.1707 21.1282 16.3105 21.035L25.4669 15.2103Z" fill="#BCBCBC"/>
<circle opacity="0.3" cx="20.5742" cy="20" r="19.5" stroke="#BCBCBC"/>
</svg>
