<svg width="32" height="23" viewBox="0 0 32 23" fill="none" xmlns="http://www.w3.org/2000/svg">
<path d="M28.0367 2.78899C25.8349 1.02752 23.1927 0.146789 20.4037 0L19.9633 0.440367C22.4587 1.02752 24.6606 2.20183 26.7156 3.81651C24.2202 2.49541 21.4312 1.61468 18.4954 1.3211C17.6147 1.17431 16.8807 1.17431 16 1.17431C15.1193 1.17431 14.3853 1.17431 13.5046 1.3211C10.5688 1.61468 7.77982 2.49541 5.2844 3.81651C7.33945 2.20183 9.54128 1.02752 12.0367 0.440367L11.5963 0C8.80734 0.146789 6.16514 1.02752 3.9633 2.78899C1.46789 7.48624 0.146789 12.7706 0 18.2018C2.20183 20.5505 5.2844 22.0183 8.51376 22.0183C8.51376 22.0183 9.54128 20.844 10.2752 19.8165C8.36697 19.3761 6.6055 18.3486 5.43119 16.7339C6.45872 17.3211 7.48624 17.9083 8.51376 18.3486C9.83486 18.9358 11.156 19.2294 12.4771 19.5229C13.6514 19.6697 14.8257 19.8165 16 19.8165C17.1743 19.8165 18.3486 19.6697 19.5229 19.5229C20.844 19.2294 22.1651 18.9358 23.4862 18.3486C24.5138 17.9083 25.5413 17.3211 26.5688 16.7339C25.3945 18.3486 23.633 19.3761 21.7248 19.8165C22.4587 20.844 23.4862 22.0183 23.4862 22.0183C26.7156 22.0183 29.7982 20.5505 32 18.2018C31.8532 12.7706 30.5321 7.48624 28.0367 2.78899ZM11.156 15.5596C9.68807 15.5596 8.36697 14.2385 8.36697 12.6239C8.36697 11.0092 9.68807 9.68807 11.156 9.68807C12.6239 9.68807 13.945 11.0092 13.945 12.6239C13.945 14.2385 12.6239 15.5596 11.156 15.5596ZM20.844 15.5596C19.3761 15.5596 18.055 14.2385 18.055 12.6239C18.055 11.0092 19.3761 9.68807 20.844 9.68807C22.3119 9.68807 23.633 11.0092 23.633 12.6239C23.633 14.2385 22.3119 15.5596 20.844 15.5596Z" fill="white"/>
</svg>
