<svg width="41" height="40" viewBox="0 0 41 40" fill="none" xmlns="http://www.w3.org/2000/svg">
<path d="M29.0832 16.5417C29.0832 16.7167 29.0832 16.8917 29.0832 17.0417C29.0832 22.2167 25.1332 28.1917 17.9332 28.1917C15.7082 28.1917 13.6582 27.5417 11.9082 26.4417C12.2082 26.4667 12.5332 26.4917 12.8332 26.4917C14.6582 26.4917 16.3582 25.8667 17.7082 24.8167C15.9832 24.7917 14.5332 23.6417 14.0582 22.0917C14.3082 22.1417 14.5332 22.1667 14.8082 22.1667C15.1582 22.1667 15.5082 22.1167 15.8332 22.0167C14.0332 21.6667 12.6832 20.0917 12.6832 18.1917C12.6832 18.1667 12.6832 18.1667 12.6832 18.1417C13.2082 18.4417 13.8082 18.6167 14.4582 18.6417C13.4082 17.9417 12.7082 16.7417 12.7082 15.3667C12.7082 14.6417 12.9082 13.9667 13.2332 13.3917C15.1582 15.7667 18.0582 17.3167 21.3082 17.4917C21.2332 17.2167 21.2082 16.8917 21.2082 16.5917C21.2082 14.4167 22.9582 12.6667 25.1332 12.6667C26.2582 12.6667 27.2832 13.1417 27.9832 13.8917C28.8832 13.7167 29.7082 13.3917 30.4832 12.9417C30.1832 13.8667 29.5582 14.6167 28.7582 15.1167C29.5582 15.0167 30.3082 14.8167 31.0082 14.4917C30.5082 15.2917 29.8582 15.9917 29.0832 16.5417Z" fill="#BCBCBC"/>
<circle opacity="0.3" cx="20.5742" cy="20" r="19.5" stroke="#BCBCBC"/>
</svg>
