<svg width="192" height="95" viewBox="0 0 192 95" fill="none" xmlns="http://www.w3.org/2000/svg">
<path fill-rule="evenodd" clip-rule="evenodd" d="M26.3192 63.6515C26.1244 63.6568 25.9279 63.664 25.7298 63.6729L22.0858 63.8126C18.2466 64.0046 15.6195 63.4117 15.0596 61.0098C14.4934 58.8188 15.9434 56.736 19.6905 55.732C23.4571 54.7227 25.9807 55.8663 26.9979 58.6477L36.2485 56.169C35.7968 54.5508 35.0988 53.1209 34.1876 51.8992C30.9017 47.4934 24.8442 45.7959 17.5712 47.7447C8.43768 50.192 3.19423 56.9309 5.24515 64.3508C6.62768 69.5776 10.6479 71.9917 16.4139 72.3915C17.3492 72.4564 18.3305 72.4682 19.3539 72.4305L23.7918 72.2872C28.4548 72.1254 30.7449 72.7877 31.3853 75.0216C31.9999 77.4716 30.1715 79.7813 26.2878 80.822C22.0741 81.951 18.7646 80.764 17.4792 77.1011C17.4608 77.0488 17.4428 76.9958 17.4252 76.9424L8.17462 79.4211C8.63771 81.0667 9.2591 82.5067 10.0238 83.7476C13.5887 89.5324 20.2681 90.9901 28.5437 88.7727C38.4969 86.1057 43.1828 80.0183 41.1876 72.416C39.4801 66.196 34.332 63.4297 26.3192 63.6515ZM7.68743 74.7297C4.24079 72.7915 1.84546 69.6834 0.750299 65.5715C-0.672608 60.3999 0.479137 55.3862 3.49255 51.3822C6.44307 47.4618 11.0228 44.6773 16.3657 43.2457C21.7965 41.7905 27.0972 41.9559 31.5504 43.9926C34.3919 45.2922 36.7273 47.2854 38.4192 49.8206C38.921 47.7023 39.7007 45.702 40.7502 43.8466C43.9358 38.2146 49.329 34.4132 55.7492 32.693C62.1525 30.9772 68.7252 31.5739 74.3049 34.8508C76.9894 36.4273 79.3334 38.5587 81.2698 41.1871C81.6273 37.9476 82.5842 34.9332 84.1149 32.2271C87.3005 26.595 92.6937 22.7937 99.1139 21.0734C105.517 19.3576 112.09 19.9544 117.67 23.2312C119.373 24.2318 120.94 25.4559 122.352 26.8886L119.488 16.1998L134.676 12.1302L147.468 23.1191L143.864 9.66839L179.947 0L188.301 35.7693C189.38 36.8925 190.21 38.2857 190.664 39.889L190.682 39.9517L190.698 40.0148C192.036 45.302 188.81 50.714 183.674 52.0905C180.437 52.9576 177.083 52.123 174.669 50.0795L175.623 53.6409L160.565 57.6758L147.654 46.6826L151.267 60.1671L132.609 65.1666L129.745 54.4778C129.238 56.4247 128.493 58.2681 127.518 59.9865C124.324 65.6142 118.931 69.4173 112.527 71.1331C106.097 72.856 99.5219 72.2391 93.9509 68.9488C91.278 67.3702 88.9456 65.2413 87.0186 62.6223C86.6571 65.8721 85.6922 68.8946 84.1534 71.6061C80.9597 77.2337 75.566 81.0369 69.1626 82.7526C62.7325 84.4756 56.1572 83.8586 50.5862 80.5683C49.0118 79.6385 47.5556 78.5178 46.2308 77.2185C45.9667 80.1268 44.9018 82.8712 43.0329 85.2916C40.0395 89.1684 35.3325 91.7756 29.7492 93.2716C24.1404 94.7745 18.5425 94.9493 13.732 92.8788C8.72949 90.7258 5.3183 86.4648 3.69114 80.6829L2.4135 76.1429L7.68743 74.7297ZM139.382 33.8057L139.635 33.7377L161.722 52.5438L169.919 50.3475L159.209 10.3786L149.568 12.9618L155.739 35.9908L155.407 36.0797L133.507 17.2656L125.193 19.4933L135.902 59.4622L145.563 56.8737L139.382 33.8057ZM176.034 43.877C176.748 46.6977 179.658 48.3445 182.468 47.5915C185.142 46.8751 186.897 43.9785 186.183 41.1577C185.836 39.9319 185.059 38.9326 184.068 38.2631C182.827 37.4247 181.251 37.1034 179.764 37.5017C178.202 37.9204 176.982 38.9908 176.341 40.3334C175.83 41.4055 175.687 42.6511 176.034 43.877ZM175.017 35.8662L183.038 33.717L176.505 5.74407L166.689 8.37442L175.017 35.8662ZM67.3369 63.0675C67.8289 61.8978 68.0629 59.7977 67.1685 56.46C66.2742 53.1224 65.0216 51.4206 64.0106 50.6536C63.1704 50.0162 62.1069 49.7114 60.4297 50.1608C58.7657 50.6066 57.9933 51.4008 57.5808 52.3793C57.0866 53.5518 56.8503 55.6533 57.7432 58.9856C58.6361 62.3178 59.8915 64.0196 60.9057 64.7879C61.7522 65.4291 62.8182 65.7307 64.4821 65.2848C66.1594 64.8354 66.928 64.0397 67.3369 63.0675ZM110.702 51.448C111.194 50.2782 111.428 48.1782 110.533 44.8405C109.639 41.5028 108.386 39.8011 107.375 39.0341C106.535 38.3966 105.472 38.0918 103.794 38.5413C102.13 38.9871 101.358 39.7812 100.946 40.7598C100.451 41.9322 100.215 44.0338 101.108 47.366C102.001 50.6983 103.256 52.4001 104.27 53.1684C105.117 53.8096 106.183 54.1111 107.847 53.6653C109.524 53.2158 110.293 52.4202 110.702 51.448ZM100.319 25.5723C111.053 22.6962 121.367 27.7766 124.907 40.989C128.448 54.2014 122.056 63.7581 111.322 66.6342C100.549 69.5208 90.278 64.3661 86.7534 51.2123C83.2132 37.9999 89.5465 28.4589 100.319 25.5723ZM109.052 58.1642C114.829 56.6163 117.129 51.461 115.032 43.635C112.935 35.8091 108.366 32.4944 102.589 34.0423C96.8316 35.585 94.5121 40.7456 96.609 48.5715C98.706 56.3974 103.295 59.7068 109.052 58.1642ZM81.5426 52.6085C78.0024 39.3961 67.6885 34.3158 56.9546 37.1919C46.1818 40.0785 39.8484 49.6195 43.3887 62.8318C46.9132 75.9857 57.1842 81.1403 67.9571 78.2537C78.691 75.3776 85.0829 65.8209 81.5426 52.6085ZM71.6675 55.2546C73.7644 63.0805 71.4644 68.2359 65.6876 69.7837C59.9304 71.3264 55.3413 68.017 53.2443 60.191C51.1473 52.3651 53.4669 47.2045 59.2242 45.6619C65.0009 44.114 69.5705 47.4286 71.6675 55.2546Z" fill="url(#paint0_linear)"/>
<defs>
<linearGradient id="paint0_linear" x1="0.144531" y1="47.2083" x2="191.001" y2="47.2083" gradientUnits="userSpaceOnUse">
<stop stop-color="#FFC9B3"/>
<stop offset="1" stop-color="#F67D75"/>
</linearGradient>
</defs>
</svg>
