<svg width="49" height="49" viewBox="0 0 49 49" fill="none" xmlns="http://www.w3.org/2000/svg">
<path d="M32.2184 1H16.7803C8.06509 1 1 8.06509 1 16.7803V32.2184C1 40.9336 8.06509 47.9987 16.7803 47.9987H32.2184C40.9336 47.9987 47.9987 40.9336 47.9987 32.2184V16.7803C47.9987 8.06509 40.9336 1 32.2184 1Z" fill="white" stroke="#DFE5EC"/>
<path d="M2.79297 24.8387C2.79297 12.7776 12.5703 3.00049 24.6311 3.00049C36.6921 3.00049 46.4695 12.7776 46.4695 24.8387C46.4695 36.8998 36.6921 46.6771 24.6311 46.6771C12.5703 46.6771 2.79297 36.8998 2.79297 24.8387Z" fill="white"/>
<path fill-rule="evenodd" clip-rule="evenodd" d="M23.6906 10.641C24.2446 10.1783 25.0503 10.1783 25.6043 10.641C29.3647 13.7817 33.653 13.7578 35.3226 13.7484C35.4056 13.748 35.4822 13.7476 35.5519 13.7476C35.9516 13.7476 36.3347 13.9079 36.6153 14.1927C36.8958 14.4776 37.0504 14.863 37.0444 15.2627C36.9653 20.5078 36.7551 24.2562 36.3416 27.0063C35.9284 29.7546 35.293 31.6513 34.2612 33.0853C33.2216 34.53 31.8861 35.3482 30.4806 36.1249C30.2366 36.2598 29.988 36.3946 29.7338 36.5325C28.5018 37.2008 27.1379 37.9406 25.5175 39.103C24.9974 39.4761 24.2974 39.4761 23.7774 39.103C22.1586 37.9418 20.7965 37.2023 19.5664 36.5345C19.311 36.3958 19.0613 36.2602 18.8161 36.1246C17.4118 35.3477 16.0781 34.5292 15.0405 33.084C14.011 31.6499 13.3779 29.7532 12.9662 27.0055C12.5542 24.2558 12.3449 20.5076 12.2658 15.2628C12.2598 14.863 12.4143 14.4776 12.6949 14.1927C12.9754 13.9079 13.3585 13.7476 13.7583 13.7476C13.8272 13.7476 13.903 13.748 13.9853 13.7484C15.6415 13.7578 19.93 13.7819 23.6906 10.641ZM24.6475 13.6714C21.1388 16.1731 17.4312 16.6406 15.2781 16.7208C15.3725 21.1377 15.5754 24.2726 15.9186 26.5632C16.2998 29.1076 16.8351 30.4647 17.4657 31.343C18.0882 32.2101 18.9062 32.7627 20.2613 33.5123C20.4814 33.6341 20.7139 33.7602 20.9582 33.8927C21.9885 34.4513 23.2299 35.1245 24.6475 36.074C26.0671 35.1232 27.3105 34.4496 28.3425 33.8904C28.5858 33.7586 28.8173 33.6332 29.0367 33.512C30.3936 32.7621 31.2136 32.2093 31.8379 31.3417C32.47 30.4632 33.0069 29.1063 33.3894 26.5624C33.7338 24.2722 33.9375 21.1377 34.0321 16.7212C31.8738 16.6417 28.1606 16.1762 24.6475 13.6714Z" fill="#3375BB"/>
</svg>
