<svg width="29" height="29" viewBox="0 0 29 29" fill="none" xmlns="http://www.w3.org/2000/svg">
<circle cx="14.5" cy="14.5" r="14.5" fill="#2775CA"/>
<path d="M18.8919 16.8307C18.8919 14.5004 17.4937 13.7014 14.6973 13.3686C12.6999 13.1022 12.3004 12.5696 12.3004 11.6374C12.3004 10.7051 12.9662 10.106 14.2978 10.106C15.4963 10.106 16.1621 10.5055 16.495 11.5042C16.5616 11.704 16.7614 11.8371 16.9611 11.8371H18.0263C18.2927 11.8371 18.4924 11.6374 18.4924 11.3711V11.3045C18.226 9.83967 17.0276 8.70784 15.4963 8.57473V6.97679C15.4963 6.71041 15.2965 6.51067 14.9637 6.44404H13.965C13.6986 6.44404 13.4988 6.64378 13.4322 6.97679V8.5081C11.4348 8.77448 10.1698 10.106 10.1698 11.7706C10.1698 13.9678 11.5014 14.8332 14.2978 15.1663C16.1621 15.4991 16.7614 15.8986 16.7614 16.9639C16.7614 18.0293 15.8291 18.7616 14.5642 18.7616C12.833 18.7616 12.2337 18.0291 12.034 17.0304C11.9675 16.7642 11.7678 16.6309 11.568 16.6309H10.4361C10.1698 16.6309 9.9701 16.8307 9.9701 17.0971V17.1637C10.2363 18.8281 11.3017 20.0266 13.4988 20.3596V21.9575C13.4988 22.2237 13.6986 22.4235 14.0314 22.4901H15.0301C15.2965 22.4901 15.4963 22.2904 15.5629 21.9575V20.3596C17.5603 20.0266 18.8919 18.6284 18.8919 16.8307Z" fill="white"/>
<path d="M11.1019 23.8217C5.90861 21.9575 3.24531 16.165 5.17627 11.0381C6.17499 8.24173 8.37216 6.11119 11.1019 5.11247C11.3683 4.97936 11.5014 4.77962 11.5014 4.44661V3.51453C11.5014 3.24815 11.3683 3.04841 11.1019 2.98193C11.0353 2.98193 10.9022 2.98193 10.8355 3.04841C4.51041 5.04584 1.04814 11.7706 3.04557 18.0958C4.24403 21.8243 7.10707 24.6873 10.8355 25.8858C11.1019 26.0189 11.3683 25.8858 11.4348 25.6194C11.5014 25.5529 11.5014 25.4863 11.5014 25.3532V24.4209C11.5014 24.2212 11.3017 23.955 11.1019 23.8217ZM18.1596 3.04841C17.8932 2.9153 17.6268 3.04841 17.5603 3.31479C17.4937 3.38142 17.4937 3.44789 17.4937 3.58116V4.51324C17.4937 4.77962 17.6934 5.04584 17.8932 5.17911C23.0865 7.04327 25.7498 12.8358 23.8188 17.9627C22.8201 20.7591 20.623 22.8896 17.8932 23.8883C17.6268 24.0214 17.4937 24.2212 17.4937 24.5542V25.4863C17.4937 25.7526 17.6268 25.9524 17.8932 26.0189C17.9598 26.0189 18.0929 26.0189 18.1596 25.9524C24.4847 23.955 27.947 17.2302 25.9495 10.905C24.7511 7.1099 21.8214 4.24687 18.1596 3.04841Z" fill="white"/>
</svg>
