<svg width="29" height="29" viewBox="0 0 29 29" fill="none" xmlns="http://www.w3.org/2000/svg">
<circle cx="14.5" cy="14.5" r="14.5" fill="#50AF95"/>
<path fill-rule="evenodd" clip-rule="evenodd" d="M16.1277 16.0633C16.0368 16.0702 15.5671 16.0988 14.5193 16.0988C13.6859 16.0988 13.0943 16.0733 12.8867 16.0633C9.66606 15.9191 7.26216 15.3485 7.26216 14.6653C7.26216 13.9821 9.66606 13.4123 12.8867 13.2658V15.495C13.0973 15.5104 13.7003 15.5467 14.5337 15.5467C15.5338 15.5467 16.0345 15.5042 16.1247 15.4958V13.2673C19.3385 13.413 21.7371 13.9837 21.7371 14.6653C21.7371 15.3469 19.3392 15.9175 16.1247 16.0625L16.1277 16.0633ZM16.1277 13.0368V11.0419H20.6128V8H8.40161V11.0419H12.8859V13.036C9.24104 13.2064 6.5 13.9412 6.5 14.8218C6.5 15.7024 9.24104 16.4365 12.8859 16.6077V23H16.127V16.6054C19.7635 16.4349 22.5 15.7009 22.5 14.8211C22.5 13.9412 19.7658 13.2072 16.127 13.036L16.1277 13.0368Z" fill="white"/>
</svg>
