<svg width="48" height="29" viewBox="0 0 48 29" fill="none" xmlns="http://www.w3.org/2000/svg">
<path d="M10.3316 5.68356C18.0544 -1.82323 30.5756 -1.82323 38.2984 5.68356L39.2278 6.58702C39.614 6.96236 39.614 7.5709 39.2278 7.94624L36.0484 11.0368C35.8553 11.2245 35.5423 11.2245 35.3492 11.0368L34.0702 9.79352C28.6825 4.55659 19.9474 4.55659 14.5598 9.79352L13.1901 11.125C12.997 11.3126 12.684 11.3126 12.4909 11.125L9.31141 8.03441C8.92527 7.65907 8.92527 7.05053 9.31141 6.67519L10.3316 5.68356ZM44.8739 12.0751L47.7036 14.8257C48.0897 15.2011 48.0897 15.8096 47.7036 16.1849L34.9441 28.5877C34.558 28.9631 33.9319 28.9631 33.5458 28.5877C33.5458 28.5877 33.5458 28.5877 33.5458 28.5877L24.4898 19.7851C24.3933 19.6913 24.2368 19.6913 24.1403 19.7851C24.1403 19.7851 24.1402 19.7851 24.1402 19.7851L15.0845 28.5877C14.6984 28.9631 14.0723 28.9631 13.6862 28.5877C13.6862 28.5877 13.6862 28.5877 13.6862 28.5877L0.926325 16.1848C0.540183 15.8094 0.540183 15.2009 0.926325 14.8256L3.75607 12.075C4.14221 11.6996 4.76827 11.6996 5.15441 12.075L14.2105 20.8777C14.307 20.9715 14.4635 20.9715 14.56 20.8777C14.56 20.8777 14.56 20.8777 14.56 20.8777L23.6156 12.075C24.0018 11.6996 24.6278 11.6996 25.014 12.0749C25.014 12.0749 25.014 12.0749 25.014 12.075L34.07 20.8777C34.1666 20.9715 34.3231 20.9715 34.4196 20.8777L43.4755 12.0751C43.8617 11.6998 44.4877 11.6998 44.8739 12.0751Z" fill="white"/>
</svg>
